SplineFontDB: 1.0
FontName: Essays1743-Italic
FullName: Essays 1743 Italic
FamilyName: Essays1743
Weight: Medium
Copyright: Created by John Stracke with PfaEdit 1.0 (http://pfaedit.sf.net)
Comments: 2004-10-09: Added bunch of other Latin-derived chars.  Calling this 0.2; don't expect much change before 1.0.\n\n2004-10-04: Finished Latin-1 and Latin Extended A (plus miscellaneous other chars).\n\n2004-9-21: Finished the basic alphabet (Roman alphabet +  + ß).\n\n2004-6-7: Began.
Version: 000.400
ItalicAngle: -10
UnderlinePosition: -100
UnderlineWidth: 50
Ascent: 759
Descent: 265
NeedsXUIDChange: 1
XUID: [1021 117 711671440 7125089]
FSType: 0
PfmFamily: 17
TTFWeight: 500
TTFWidth: 5
Panose: 2 0 6 2 0 0 0 0 0 0
LineGap: 90
VLineGap: 0
ScriptLang: 3
 1 latn 1 dflt 
 1 DFLT 1 dflt 
 1 hani 1 dflt 
TtfTable: cvt  8
!$hWI!$VK#
EndTtf
LangName: 1033 "Copyright 2004, John Stracke.  Based on a 1743 translation of the essays of Montaigne." "" "" "" "" "" "" "" "" "Based on the typeface in a 1743 English translation of the essays of Montaigne.  PostScript/TrueType font designed by John Stracke." "" "http://www.thibault.org/fonts/" "http://www.thibault.org/fonts/" "Licensed under the GNU Lesser General Public License." "http://www.fsf.org/copyleft/lesser.html" "" "" "" "" "Essays" 
Encoding: unicode
DisplaySize: -24
AntiAlias: 1
FitToEm: 1
WinInfo: 8256 32 31
TeXData: 1 10485760 0 346030 173015 115343 0 1048576 115343 783286 444596 497025 792723 393216 433062 380633 303038 157286 324010 404750 52429 2506097 1059062 262144
BeginChars: 65536 814
StartChar: exclam
Encoding: 33 33 1
Width: 283
Flags: HW
Fore
174.566 237 m 5
 242.115 369 239.706 357.237 274.391 435 c 28
 322.743 543.408 340.289 585 382.781 714 c 5
 356.751 746.523 312.979 742.96 267.607 705 c 5
 216.115 576 203.842 512.799 165.521 390 c 28
 144.699 323.272 136.246 324 114.219 219 c 5
 128.643 206.981 153.858 220.551 174.566 237 c 5
32.2188 12 m 28
 53.7227 -4.33594 85.9912 -1.47461 116.393 21 c 28
 146.793 43.4746 164.842 77.0449 153.957 102 c 28
 144.267 124.218 115.017 122.777 85.1309 111 c 28
 58.4014 100.467 41.5869 82.1748 30.0879 57 c 28
 21.5 38.1992 19.4307 21.7148 32.2188 12 c 28
EndSplineSet
EndChar
StartChar: numbersign
Encoding: 35 35 3
Width: 560
Flags: HW
Fore
440.57 442.124 m 5
 452.458 458.449 466.42 473.343 483.326 486.5 c 12
 511.225 508.203 533.365 501.891 543.05 477.5 c 20
 547.903 465.279 548.833 452.107 547.255 438.064 c 5
 566.25 434.829 581.492 429.137 591.166 416 c 12
 607.896 393.281 606.145 367.344 573.96 344 c 20
 553.687 329.289 532.392 320.792 509.925 315.829 c 5
 508.598 311.262 507.339 306.652 506.173 302 c 4
 500.427 279.039 497.042 260.784 492.565 242.611 c 5
 504.554 239.008 514.351 233.417 521.283 224 c 12
 538.015 201.281 536.263 175.344 504.078 152 c 20
 485.043 138.188 465.108 129.854 444.147 124.779 c 5
 434.674 108.269 423.633 93.8408 407.918 81.5 c 12
 376.101 56.5 347.37 48.8281 332.643 72.5 c 20
 324.908 84.9355 322.319 99.6504 323.151 116.169 c 5
 320.605 116.12 318.047 116.065 315.475 116 c 4
 291.496 115.4 267.774 114.136 245.095 113.374 c 5
 237.169 101.537 227.902 90.9111 215.918 81.5 c 12
 184.101 56.5 155.37 48.8281 140.643 72.5 c 20
 131.892 86.5684 129.728 103.555 131.652 122.77 c 5
 114.406 128.734 100.206 137.97 90.0781 152 c 12
 75.6543 172 90.8613 196.438 122.009 215 c 20
 135.885 223.267 149.485 228.707 163.108 232.295 c 5
 164.92 237.483 166.731 242.721 168.52 248 c 4
 176.725 272.225 184.051 295.932 191.595 318.737 c 5
 178.791 324.606 168.07 332.766 159.961 344 c 12
 145.537 364 160.744 388.438 191.891 407 c 20
 207.255 416.154 222.282 421.842 237.374 425.386 c 5
 251.504 448.359 268.803 468.97 291.326 486.5 c 12
 319.225 508.203 341.365 501.891 351.05 477.5 c 20
 356.573 463.592 357.015 448.451 354.46 432.196 c 5
 361.855 432.582 369.432 433.151 377.218 434 c 4
 401.568 436.659 421.286 439.99 440.57 442.124 c 5
380.029 307.856 m 5
 357.889 307.216 336.017 306.081 315.037 305.376 c 5
 314.744 304.253 314.456 303.128 314.173 302 c 4
 308.288 278.485 304.88 259.906 300.24 241.296 c 5
 302.585 241.506 304.95 241.74 307.335 242 c 4
 327.565 244.209 344.598 246.882 360.84 248.947 c 5
 367.622 269.015 373.811 288.725 380.029 307.856 c 5
EndSplineSet
EndChar
StartChar: dollar
Encoding: 36 36 4
Width: 338
VWidth: 1080
Flags: HW
Fore
154.352 42 m 1
 159.755 42.9121 178.322 120.591 184.469 122 c 8
 230.265 132.494 263.726 138.513 301.396 174 c 24
 344.229 214.352 362.114 252.224 363.892 299 c 24
 365.884 351.449 333.758 366.717 303.017 401 c 24
 278.753 428.06 221.22 415.391 227.763 458 c 24
 232.3 487.547 263.59 511.867 295.693 521 c 24
 323.364 528.872 334.393 513.539 350.686 499 c 24
 369.543 482.173 357.707 413.816 380.575 441 c 16
 417.59 485 421.746 491.759 420.693 521 c 24
 419.375 557.589 398.843 573.592 364.623 584 c 16
 352.161 587.79 372.723 609 385.373 652 c 1
 386.573 687.837 327.787 664.954 316.648 661 c 1
 294.998 618 282.201 575.903 274.256 572 c 8
 214.177 542.487 167.345 510.436 143.943 453 c 16
 125.2 407 123.017 401 129.821 362 c 8
 137.957 315.378 206.022 341.905 235.531 309 c 24
 252.485 290.095 270.8 276.401 258.602 246 c 24
 243.402 208.124 207.819 176.023 168.667 172 c 24
 108.315 165.799 124.259 311 82.7891 263 c 0
 40.6816 216 38.0449 189.75 48.1162 154 c 24
 54.6377 130.849 75.166 128.684 99.4688 122 c 16
 101.646 121.401 84.0059 96 78.8105 57 c 1
 88.2959 24.2998 151.928 42.4814 154.352 42 c 1
EndSplineSet
EndChar
StartChar: percent
Encoding: 37 37 5
Width: 793
VWidth: 1080
Flags: HW
Fore
183.74 539.562 m 28
 168.623 531.706 156.702 531.176 140.24 535.562 c 28
 114.678 542.374 97.7646 551.536 84.7402 574.562 c 28
 72.6123 596.003 73.4619 613.881 80.2402 637.562 c 28
 86.8076 660.512 95.127 675.926 116.24 687.062 c 28
 140.225 699.713 160.504 698.984 185.74 689.062 c 28
 203.064 682.251 211.354 672.182 219.74 655.562 c 28
 230.922 633.404 235.623 616.408 228.74 592.562 c 28
 221.22 566.511 207.801 552.066 183.74 539.562 c 28
108.74 505.562 m 4
 149.24 483.062 177.67 480.981 216.74 497.062 c 28
 252.924 511.955 270.151 535.848 282.24 573.062 c 28
 295.298 613.261 294.743 644.675 273.24 681.062 c 28
 255.492 711.094 232.135 720.479 198.74 730.562 c 28
 163.458 741.215 138.507 744.13 104.24 730.562 c 28
 75.6367 719.237 60.6484 704.003 46.7402 676.562 c 20
 28.3252 640.23 27.5801 609.908 42.2402 573.062 c 12
 55.9014 538.726 80.374 521.321 108.74 505.562 c 4
618.74 101.562 m 24
 603.623 93.7061 591.702 93.1758 575.24 97.5625 c 24
 549.678 104.374 532.765 113.536 519.74 136.562 c 24
 507.612 158.003 508.462 175.881 515.24 199.562 c 24
 521.808 222.512 530.127 237.926 551.24 249.062 c 24
 575.225 261.713 595.504 260.984 620.74 251.062 c 24
 638.064 244.251 646.354 234.182 654.74 217.562 c 24
 665.922 195.404 670.623 178.408 663.74 154.562 c 24
 656.22 128.511 642.801 114.066 618.74 101.562 c 24
543.74 67.5625 m 0
 584.24 45.0625 612.67 42.9814 651.74 59.0625 c 24
 687.924 73.9551 705.151 97.8477 717.24 135.062 c 24
 730.298 175.261 729.743 206.675 708.24 243.062 c 24
 690.492 273.094 667.135 282.479 633.74 292.562 c 24
 598.458 303.215 573.507 306.13 539.24 292.562 c 24
 510.637 281.237 495.648 266.003 481.74 238.562 c 16
 463.325 202.23 462.58 171.908 477.24 135.062 c 8
 490.901 100.726 515.374 83.3213 543.74 67.5625 c 0
EndSplineSet
Ref: 47 47 N 1 0 0 1 0 0
EndChar
StartChar: ampersand
Encoding: 38 38 6
Width: 943
Flags: W
Fore
346.242 639 m 24
 366.226 658.915 374.805 687.443 353.242 711 c 0
 312.883 755.091 253.242 729 200.242 702 c 0
 143.448 665.49 124.94 621.498 124.242 558 c 24
 123.811 518.76 159 513 169.242 468 c 1
 132 414 127.242 492 70.2422 333 c 8
 39.3193 246.742 64.0263 176.873 118.242 103 c 24
 160.288 45.71 208.092 30.3779 277.242 14 c 16
 391.242 -13 445.242 0 547.242 21 c 8
 617.099 35.3818 641.455 84.7021 685.242 141 c 16
 748.242 222 711.965 273.993 711.242 360 c 24
 710.975 391.879 682.214 414.707 700.242 441 c 24
 728.808 482.661 788.89 436.992 826.242 471 c 24
 874.667 515.089 886.242 585 880.242 630 c 8
 873.097 683.594 807.394 709.519 756.242 692 c 24
 716.141 678.266 700.722 635.523 709.242 594 c 24
 716.742 557.45 794.366 565.928 781.242 531 c 24
 747.909 442.285 629.728 555.733 538.242 531 c 24
 491.17 518.274 453.346 510.942 430.242 468 c 24
 400.261 412.276 394.977 351.217 439.242 306 c 24
 471.257 273.297 516.94 273.553 556.242 297 c 24
 585.93 314.711 611.08 349.013 592.242 378 c 24
 569.29 413.317 516.381 350.774 484.242 378 c 24
 467.951 391.801 463.374 414.252 475.242 432 c 24
 501.273 470.928 548.117 474.682 592.242 459 c 24
 629.951 445.598 645.255 416.754 655.242 378 c 24
 672.091 312.62 666.001 262.971 628.242 207 c 24
 593.904 156.1 552.46 142.222 493.242 126 c 24
 426.664 107.762 383.232 110.337 316.242 127 c 24
 260.717 140.812 216.889 146.682 186.242 195 c 24
 146.1 258.288 138 285 178.242 387 c 8
 194.954 429.359 256.82 389.071 290.242 420 c 24
 315.972 443.811 336.531 471.987 322.242 504 c 24
 302.315 548.644 221.926 503.046 205.242 549 c 24
 192.91 582.968 219.986 610.238 250.242 630 c 24
 281.726 650.563 319.607 612.456 346.242 639 c 24
EndSplineSet
EndChar
StartChar: quotesingle
Encoding: 39 39 7
Width: 243
Flags: HW
Fore
149.477 492 m 5
 113.998 519 113.577 531.104 113.926 567 c 28
 114.281 603.907 127.217 629.83 152.189 667 c 28
 176.491 703.168 194.518 736.497 234.756 748 c 28
 286.569 762.812 320.135 741.985 335.887 703 c 28
 353.678 658.964 329.626 616.031 299.162 562 c 28
 279.706 527.494 253.019 515.213 227.303 483 c 28
 164.171 403.918 197.303 276 81.2441 273 c 5
 68.0576 293.512 117.037 383 149.477 492 c 5
EndSplineSet
EndChar
StartChar: parenleft
Encoding: 40 40 8
Width: 256
Flags: HW
Fore
4.12109 -234 m 12
 8.24121 -273.312 126.519 -246.129 121.948 -207 c 20
 103.729 -51 81.8896 -60.7314 96.6689 45 c 28
 113.267 163.735 144.33 237.01 208.228 357 c 28
 270.799 474.499 304.007 513 415.052 645 c 12
 427.224 659.469 409.074 683.734 393.879 672 c 20
 281.213 585 222.305 511.649 150.331 393 c 28
 63.4248 249.735 40.2295 160.538 10.75 15 c 28
 -9.74316 -86.1777 -5.9375 -138 4.12109 -234 c 12
EndSplineSet
EndChar
StartChar: asterisk
Encoding: 42 42 10
Width: 534
Flags: W
Fore
371 549 m 1
 407 573 489.843 626.365 449 660 c 16
 398 702 362 636 317 567 c 1
 290 648 338.44 717.703 278 717 c 24
 216.705 716.286 245 684 242 564 c 1
 179.062 630.871 139.038 694.676 98 645 c 24
 59.9307 598.918 146 585 197 528 c 1
 128 513 26.1699 549.006 31 482 c 24
 36.1162 411.026 158 456 212 459 c 1
 179 402 44.1689 363.856 98 318 c 16
 179 249 188 375 239 414 c 1
 251 303 213.79 264.314 275 261 c 24
 338.185 257.578 314 303 329 414 c 1
 395 366 394.02 289.959 437 324 c 24
 486.221 362.983 404 402 365 468 c 1
 449 483 506.968 446.147 509 504 c 24
 510.987 560.574 434 537 371 549 c 1
EndSplineSet
EndChar
StartChar: plus
Encoding: 43 43 11
Width: 346
Flags: W
Fore
226.718 283.043 m 5
 229.999 282.842 233.413 282.502 237 282 c 12
 264.547 278.156 286.547 277.422 303 255 c 28
 319.656 232.281 324.781 206.344 309 183 c 20
 291.353 156.91 266.842 150.454 238.5 148.5 c 13
 234.656 120.953 233.922 98.9531 211.5 82.5 c 28
 188.781 65.8438 162.844 60.7188 139.5 76.5 c 20
 114.17 93.6336 107.263 117.248 105.094 144.547 c 5
 76.9359 147.09 52.1965 156.482 33 183 c 12
 18.5312 203 22.7344 227.438 39 246 c 20
 56.6664 266.162 77.3184 269.512 100.41 270.167 c 5
 101.589 302.571 109.812 331.009 139.5 352.5 c 12
 159.5 366.969 183.938 362.766 202.5 346.5 c 20
 223.254 328.315 226.195 306.961 226.718 283.043 c 5
EndSplineSet
EndChar
StartChar: comma
Encoding: 44 44 12
Width: 250
Flags: HW
Fore
11 -116 m 16
 51 -58 83.1141 -66.3045 120 -25 c 24
 133.689 -9.6709 155.756 -0.409312 149 19 c 24
 137.932 50.7979 88.4996 20.0896 67 46 c 24
 44.3877 73.251 40.3955 103.741 55 136 c 24
 67.1787 162.901 89.5049 170.253 118 178 c 24
 157.58 188.761 193.92 200.926 223 172 c 24
 276.193 119.09 259.658 50.8583 235 -20 c 24
 219.661 -64.0791 192.123 -80.7129 155 -109 c 24
 138.353 -121.685 127.713 -129.993 107 -133 c 24
 69.3721 -138.464 -10.5869 -147.301 11 -116 c 16
EndSplineSet
EndChar
StartChar: hyphen
Encoding: 45 45 13
Width: 346
Flags: W
Fore
33 183 m 28
 18.5273 202.992 22.7351 227.436 39 246 c 28
 69.8604 281.223 109.836 265.136 156 273 c 28
 187.333 278.338 205.521 286.398 237 282 c 28
 264.543 278.151 286.552 277.426 303 255 c 28
 319.664 232.278 324.784 206.342 309 183 c 28
 282.258 143.452 239.707 148.81 192 147 c 28
 128.466 144.59 70.282 131.499 33 183 c 28
EndSplineSet
EndChar
StartChar: period
Encoding: 46 46 14
Width: 236
VWidth: 1080
Flags: HW
Fore
69 27 m 24
 49.9287 38.1182 43.667 53.4238 39 75 c 24
 30.2656 115.379 22.2687 152.39 53 180 c 24
 98.2725 220.674 160.901 221.289 209 184 c 24
 248.852 153.104 256.623 104.859 238 58 c 24
 228.652 34.4785 208.379 28.8068 184 22 c 24
 140.762 9.92773 107.783 4.38953 69 27 c 24
EndSplineSet
EndChar
StartChar: slash
Encoding: 47 47 15
Width: 770
VWidth: 1080
Flags: HW
Fore
524 472 m 4
 636.156 575 617.281 587 719.844 681 c 5
 718.562 702 675.781 684.703 672.266 706 c 20
 672.047 707.266 671.953 708.516 671.953 709.75 c 4
 671.953 722.312 682.297 733.625 695.25 740 c 5
 765.25 740 784.141 745 799.141 745 c 4
 814.141 745 825.25 740 879.734 720 c 5
 882.281 715.562 883.453 710.656 883.453 705.625 c 4
 883.453 692.516 875.453 678.453 862.734 669 c 4
 858.469 665.828 854.422 664.703 850.469 664.703 c 4
 840.938 664.703 831.875 671.219 821.141 671.219 c 4
 817.859 671.219 814.406 670.609 810.734 669 c 5
 652.703 527 674.344 525 553.828 403 c 4
 469.781 312 416.031 268 301.406 134 c 5
 295.969 123.344 279.688 112.094 279.688 99.7344 c 4
 279.688 98.1719 279.953 96.5938 280.531 95 c 4
 282.406 89.75 287.156 88.3125 292.938 88.3125 c 4
 299.844 88.3125 308.234 90.375 314.922 90.375 c 4
 320.734 90.375 325.266 88.8125 326.406 83 c 4
 326.75 81.2656 326.906 79.5938 326.906 78 c 4
 326.906 54.9062 293 44.875 273.828 23 c 5
 205.156 23 176.281 16.7812 135.766 16.7812 c 4
 115.516 16.7812 92.3438 18.3281 59.8281 23 c 5
 48.3125 41.2344 26.125 47.6719 26.125 67.7344 c 4
 26.125 69.9688 26.3906 72.375 27 75 c 12
 32.2969 98.125 53.4375 108.141 76.4062 117 c 20
 80.875 118.719 85.2031 119.406 89.4219 119.406 c 4
 105.984 119.406 120.797 108.859 134.891 108.859 c 4
 141.172 108.859 147.312 110.953 153.406 117 c 4
 336.5 299 379.953 347 524 472 c 4
EndSplineSet
EndChar
StartChar: zero
Encoding: 48 48 16
Width: 560
Flags: HW
Fore
299.95 101 m 28
 263.998 85.2881 239.77 84.2266 210.039 93 c 28
 163.872 106.623 136.717 124.947 127.429 171 c 28
 118.779 213.881 133.494 249.637 164.289 297 c 28
 194.13 342.898 221.988 373.727 272.321 396 c 28
 329.5 421.302 369.528 419.844 412.777 400 c 28
 442.467 386.377 451.716 366.238 456.392 333 c 28
 462.625 288.685 459.656 254.691 428.531 207 c 28
 394.527 154.896 357.174 126.008 299.95 101 c 28
125.2 33 m 4
 189.822 -12 245.166 -16.1621 335.013 16 c 28
 418.223 45.7861 470.068 93.5703 521.336 168 c 28
 576.714 248.396 598.474 311.226 581.954 384 c 28
 568.32 444.062 528.438 462.834 468.987 483 c 28
 406.179 504.306 358.396 510.136 279.987 483 c 28
 214.537 460.35 173.47 429.881 125.679 375 c 20
 62.4023 302.337 38.8389 241.691 41.3359 168 c 12
 43.6641 99.3271 79.9404 64.5186 125.2 33 c 4
EndSplineSet
EndChar
StartChar: one
Encoding: 49 49 17
Width: 560
Flags: HW
VStem: 372 0<96 318>
Fore
70.2793 15 m 12
 42.1025 14.7305 71.4805 64.5166 96.4854 87 c 28
 114.948 103.6 133.834 76.3945 152.945 102 c 5
 286.423 444 129.475 54 266.228 405 c 5
 262.753 432.09 231.179 404.518 226.688 420 c 28
 217.275 452.446 237.62 499.53 271.721 519 c 5
 720.629 516 158.812 522 469.721 519 c 5
 490.697 493.855 481.605 455.344 451.688 420 c 28
 442.242 408.843 433.602 429.471 418.228 405 c 5
 246.246 -84 522.684 681 309.761 96 c 5
 309.5 84.0264 327.14 94.8418 330.485 87 c 28
 339.829 65.1064 341.747 16.542 313.644 16 c 20
 2.45996 10 383.371 18 70.2793 15 c 12
EndSplineSet
EndChar
StartChar: two
Encoding: 50 50 18
Width: 560
Flags: HW
Fore
367.052 169.503 m 5
 418.83 188.125 436.83 188.125 461.923 166.399 c 5
 394.256 54.668 430.706 105.361 338.336 24.666 c 5
 69.8174 12.252 243.076 18.458 22.2061 21.5625 c 12
 6.29883 21.7852 23.9336 50.0635 37.6445 63.9795 c 20
 166.089 194.332 229.089 194.332 336.146 315.375 c 12
 367.251 350.545 388.551 388.178 373.423 417.794 c 28
 359.602 444.854 324.473 438.553 286.812 427.105 c 28
 231.103 410.172 224.867 380.551 153.923 333.996 c 5
 143.867 380.551 152.995 382.704 176.905 405.381 c 20
 245.627 470.557 262.301 480.591 321.794 498.49 c 28
 396.824 521.064 465.287 538.958 498.404 489.179 c 28
 527.809 444.98 496.619 386.647 456.534 324.685 c 28
 410.055 252.84 348.121 237.998 285.312 175.71 c 5
 252.237 126.052 287.182 172.606 246.978 119.844 c 5
 402.237 126.052 170.848 116.74 342.978 119.844 c 5
 354.258 127.015 348.098 156.816 367.052 169.503 c 5
EndSplineSet
EndChar
StartChar: three
Encoding: 51 51 19
Width: 560
Flags: HW
Fore
113.062 66 m 5
 91.6426 86.1367 120.585 123.572 145.82 156 c 5
 259.577 246 265.302 237 366.783 318 c 12
 390.712 337.099 384.857 364.204 371.713 381 c 28
 358.945 397.312 338.367 397.286 311.989 390 c 28
 256.532 374.682 244.239 322 180.231 300 c 12
 157.518 292.193 178.531 333.191 190.886 354 c 28
 229.897 419.703 283.983 462.277 342.206 495 c 4
 417.982 524.555 389.637 518.164 431.761 524 c 4
 448.723 526.35 492.848 515.162 522.298 498 c 4
 546.986 461.522 519.862 411.311 488.978 357 c 28
 454.21 295.861 397.312 270 357.75 219 c 5
 361.059 193.022 407.703 219.526 423.198 201 c 28
 445.904 173.854 440.39 143.83 432.165 102 c 28
 417.809 28.9727 398.15 -18.3721 345.375 -87 c 28
 302.656 -142.55 268.914 -179.206 205.698 -207 c 28
 115.4 -246.701 22.541 -280.431 -18.7607 -222 c 28
 -42.4688 -188.461 -20.2949 -130.747 27.0996 -96 c 5
 95.2832 -90 56.0078 -99 117.1 -96 c 5
 129.884 -108.183 101.689 -136.908 116.537 -147 c 28
 134.317 -159.084 159.573 -147.874 184.996 -132 c 28
 242.413 -96.1484 268.756 -56.6523 296.04 0 c 28
 312.065 33.2744 323.903 60.4717 308.614 84 c 28
 292.28 109.137 261.843 104.707 225.165 102 c 5
 183.068 98.8936 178.246 72 113.062 66 c 5
EndSplineSet
EndChar
StartChar: four
Encoding: 52 52 20
Width: 560
Flags: HW
VStem: 240 96<-204 -100.467 -204 24>
Fore
266.713 114 m 5
 303.838 216 251.427 72 315.85 249 c 5
 313.486 269.257 307.48 288.774 283.952 285 c 5
 186.011 189 212.746 213 141.54 141 c 5
 132.758 127.504 121.676 114.592 128.438 105 c 5
 310.621 111 73.3457 102 266.713 114 c 5
251.246 -195 m 5
 211.889 -226.874 173.234 -231.354 150.971 -204 c 5
 197.106 -69 206.383 -60 233.14 30 c 5
 116.415 39 126.221 0 14.1396 30 c 5
 -5.83691 35.0596 11.3545 63.1582 24.7939 84 c 5
 315.894 381 208.136 291 476.029 516 c 5
 495.062 522.73 511.737 521.023 517.754 507 c 5
 478.158 357 476.525 369 365.713 114 c 5
 462.529 108 422.177 140 580.9 131 c 5
 591.736 92.6855 544.135 49.3105 496.956 24 c 5
 428.003 -12.9932 440.14 30 329.956 24 c 5
 269.9 -141 296.556 -87 251.246 -195 c 5
EndSplineSet
EndChar
StartChar: five
Encoding: 53 53 21
Width: 560
Flags: HW
Fore
22.7354 -92 m 28
 -5.3623 -86.9668 -34.1729 -100.275 -59.6396 -126 c 28
 -79.2744 -145.834 -85.4961 -165.591 -81.4775 -186 c 28
 -73.0029 -229.054 -40.9033 -239.821 2.5 -252 c 28
 43.7021 -263.561 74.8359 -263.181 124.684 -246 c 28
 228.908 -210.078 298.937 -171.004 375.647 -84 c 28
 440.008 -11.0029 478.777 51.9346 470.081 126 c 28
 466.511 156.408 444.292 164.221 415.552 174 c 28
 369.717 189.596 332.708 178.104 277.552 174 c 28
 246.009 171.653 227.308 166.68 195.184 162 c 21
 316.154 346 229.742 202 354.36 418 c 5
 385.686 416.978 393.946 425.773 400.605 413.18 c 4
 406.972 401.141 369.72 368.968 380.338 352 c 5
 477.971 340 407.794 356 563.427 344 c 13
 563.427 344 646.557 426.306 652.927 480 c 5
 658.17 524.199 637.908 546.203 602.5 564 c 5
 592.486 569.033 582.644 571.623 569.5 564 c 28
 529.439 540.766 544.619 491.234 504.559 468 c 28
 485.44 456.911 472.022 461.881 456.559 468 c 28
 422.142 481.618 440.82 545.629 396.581 534 c 5
 205.787 334 251.625 394 51.1475 52 c 5
 52.1729 40.5225 63.79 38.7676 76.7793 40 c 28
 134.316 45.458 166.219 105.492 225.169 118 c 28
 265.018 126.455 302.647 134.631 316.802 106 c 28
 348.416 42.0547 307.331 -42.6289 232.184 -110 c 28
 177.412 -159.104 119.139 -172.472 64.7129 -158 c 28
 32.458 -149.423 56.4355 -98.0371 22.7354 -92 c 28
EndSplineSet
EndChar
StartChar: six
Encoding: 54 54 22
Width: 560
Flags: HW
Fore
438.729 387.75 m 28
 400.106 417.468 349.027 412.735 288.037 385.85 c 28
 238.644 364.076 211.043 333.294 186.769 288.95 c 28
 149.837 221.485 140.311 171.035 166.529 117.95 c 28
 178.716 93.2773 199.81 86.7285 232.082 83.75 c 28
 269.256 80.3193 299.225 81.2754 336.38 106.55 c 28
 406.225 154.06 431.781 206.89 451.928 275.65 c 28
 465.983 323.62 472.141 362.043 438.729 387.75 c 28
294.569 19.1504 m 28
 225.645 5.84277 179.798 1.12207 129.336 26.75 c 28
 71.623 56.0596 35.0645 88.4932 43.0518 157.85 c 20
 55.0869 262.35 70.7793 334.396 140.092 440.95 c 28
 196.887 528.26 246.938 578.44 340.013 638.55 c 28
 443.339 705.281 519.557 746.482 625.431 746.85 c 28
 653.74 746.948 671.431 746.85 681.058 718.35 c 5
 586.311 661.35 568.729 672.847 502.9 630 c 28
 417.675 574.528 372.893 553.05 302.391 463.75 c 12
 292.1 450.716 291.295 436.169 301.942 429.55 c 5
 406.391 463.75 399.824 471.699 453.082 465.65 c 4
 512.353 458.917 549.958 442.425 566.804 393.45 c 28
 593.616 315.499 582.172 243.35 507.669 154.05 c 12
 471.569 110.78 442.047 89.8564 392.438 60 c 28
 356.185 38.1816 332.876 26.5459 294.569 19.1504 c 28
EndSplineSet
EndChar
StartChar: seven
Encoding: 55 55 23
Width: 560
Flags: HW
HStem: 598 114<225 255>
Fore
-31.8545 -18 m 5
 155.689 250 133.153 188.032 233.896 322 c 5
 301.872 412.396 365.211 452 403.064 556 c 5
 403.065 586.548 378.86 598 346.351 598 c 5
 281.334 598 277.616 574 171.777 514 c 5
 147.687 514 128.021 521.152 128.696 544 c 5
 206.925 682 205.833 679 297.854 745 c 5
 327.325 759.359 351.692 757.619 368.398 741 c 28
 375.656 733.781 359.978 722.259 369.844 712 c 5
 547.844 712 447.844 712 675.844 712 c 5
 372.086 350 403.741 404 121.8 36 c 5
 101.157 21.3545 78.2109 -6.52344 55.4639 -8.88379 c 4
 -13.127 -16 28.1455 -18 -31.8545 -18 c 5
EndSplineSet
EndChar
StartChar: eight
Encoding: 56 56 24
Width: 560
Flags: HW
Fore
259.092 98 m 28
 288.125 111.828 301.812 131.311 318.931 158 c 28
 339.667 190.328 352.415 214.036 348.231 244 c 28
 344.904 267.829 331.604 277.342 309.519 286 c 28
 278.527 298.15 253.139 302.449 213.519 286 c 28
 185.285 274.278 168.963 257.51 151.864 232 c 28
 129.318 198.364 122.23 174.034 125.106 142 c 28
 127.271 117.892 134.496 103.65 155.636 94 c 28
 187.426 79.4893 217.364 78.125 259.092 98 c 28
393.21 450 m 28
 413.861 459.742 423.187 473.438 436.496 492 c 28
 453.972 516.373 463.762 532.949 466.519 558 c 28
 469.218 582.532 466.358 598.19 450.173 612 c 28
 423.851 634.458 396.472 642.083 352.725 630 c 28
 320.48 621.095 299.099 603.924 277.069 576 c 28
 254.983 548.003 248.219 526.435 248.68 498 c 28
 249.107 471.662 254.98 454.863 277.025 444 c 28
 311.858 426.836 346.503 427.968 393.21 450 c 28
227.725 358 m 5
 186.1 392 166.741 405.655 165.394 456 c 28
 163.466 527.982 182.315 587.175 245.459 654 c 28
 281.534 692.177 316.56 703.217 363.298 714 c 28
 439.425 731.564 486.637 729.685 542.93 702 c 28
 578.83 684.345 597.731 665.34 602.54 624 c 28
 607.453 581.761 594.662 548.883 564.864 504 c 28
 546.411 476.206 527.164 464.275 499.025 444 c 28
 459.368 415.425 444.106 414 391.188 384 c 12
 376.771 375.827 394.094 364.052 400.269 354 c 28
 421.787 318.963 470.234 325.465 477.062 282 c 28
 485.864 225.97 457.348 180.818 418.1 120 c 28
 392.545 80.4023 373.374 50.9238 330.342 30 c 28
 239.679 -14.085 175.927 -8.85059 104.702 20 c 28
 67.9189 34.9004 49.0273 54.8613 46.3643 96 c 28
 42.6016 154.108 67.7295 198.738 111.327 258 c 28
 145.768 304.814 198.438 316 227.725 358 c 5
EndSplineSet
EndChar
StartChar: nine
Encoding: 57 57 25
Width: 560
Flags: HW
Fore
420.022 132 m 28
 473.854 201.367 485.056 256.08 477.904 324 c 28
 475.248 349.226 465.896 362.72 443.739 373 c 28
 408.385 389.402 376.868 391.822 329.739 373 c 28
 300.096 361.162 282.952 344.232 263.721 318 c 28
 213.827 249.945 189.692 198.671 194.022 132 c 28
 195.867 103.597 207.161 88.5557 232.367 78 c 28
 268.678 62.7939 301.212 67.0898 348.552 84 c 28
 378.512 94.7021 399.805 105.948 420.022 132 c 28
353.625 32 m 5
 332.353 34 305.237 18.1875 275.073 14 c 28
 239.271 9.0293 215.366 0.793945 185.617 10 c 28
 144.22 22.8115 120.338 38.1816 108.367 78 c 28
 86.6904 150.111 95.1562 211.731 145.713 296 c 28
 189.895 369.642 239.539 418.142 319.765 450 c 28
 414.98 487.811 484.673 484.261 545.761 439 c 28
 585.582 409.497 584.444 368.414 579.537 312 c 28
 570.51 208.241 534.287 141.198 473.081 36 c 28
 423.824 -48.6611 388.383 -99.0312 310.831 -168 c 28
 237.345 -233.354 185.958 -266.734 98.7871 -300 c 5
 50.999 -318.236 38.2354 -318 -21.7646 -318 c 5
 -34.2285 -309.384 -35.21 -293.256 -24.4775 -276 c 5
 78.0957 -192 103.729 -204 183.383 -150 c 5
 259.424 -88.2402 300.5 -70 353.625 32 c 5
EndSplineSet
EndChar
StartChar: less
Encoding: 60 60 28
Width: 372
VWidth: 1080
Flags: HW
Fore
334.564 430.75 m 28
 374.954 437.828 414.521 437.5 428.128 416.5 c 5
 435.829 406.75 419.982 387.25 406.16 376.75 c 5
 393.315 365.5 372.956 378.25 358.977 370.75 c 5
 300.284 340 245.845 317.5 157.168 262.75 c 5
 175.057 202 236.436 181.75 291.121 122.5 c 5
 294.411 107.5 302.544 95.5 282.903 82.75 c 5
 230.489 69.25 216.581 72.25 171.739 69.25 c 4
 129.671 67 103.681 109.752 102.356 146.5 c 20
 101.681 165.25 23.0205 246.549 66.5791 268 c 4
 88.1299 286 146.043 325.555 202.382 359.5 c 28
 251.24 388.938 271.198 419.644 334.564 430.75 c 28
EndSplineSet
EndChar
StartChar: question
Encoding: 63 63 31
Width: 474
Flags: HW
Fore
234.491 228 m 5
 208.49 212.612 186.962 226.183 178.042 246 c 5
 190.352 354 201.271 384 248.487 489 c 5
 349.406 519 339.579 492 408.038 507 c 5
 428.854 521.73 438.729 541.672 436.693 561 c 28
 432.043 605.144 384.188 598.79 351.623 624 c 28
 329.509 641.119 295.867 637.841 296.002 669 c 5
 302.288 711 317.42 734.205 352.483 750 c 5
 417.667 756 432.392 747 474.381 714 c 5
 489.634 657 502.57 630.713 488.604 569 c 28
 476.473 515.391 478.119 477 416.741 432 c 12
 370.269 397.929 332.579 416.633 286.902 372 c 5
 271.34 321 247.329 288 234.491 228 c 5
133.517 33 m 28
 110.801 31.4268 97.0732 36.0781 86.0684 51 c 28
 68.9307 74.2373 58.3174 98.6475 79.5498 132 c 28
 98.0947 161.131 127.559 173.063 158.929 177 c 28
 190.084 180.909 211.463 173.768 221.102 150 c 28
 232.438 122.043 225.615 90.8926 197.344 60 c 28
 178.474 39.3789 157.61 34.6689 133.517 33 c 28
EndSplineSet
EndChar
StartChar: at
Encoding: 64 64 32
Width: 549
VWidth: 1000
Flags: HW
Fore
406.135 312.75 m 24
 410.299 326.25 409.348 336 399.805 342.75 c 24
 392.919 346.5 385.827 343.5 376.008 341.25 c 24
 361.144 337.5 352.756 333 338.775 325.5 c 24
 322.273 317.25 312.658 313.5 299.29 301.5 c 24
 291.311 294 285.649 288.75 282.374 279.75 c 24
 274.935 257.25 269.541 236.25 287.266 227.25 c 24
 294.628 222.75 304.381 231 315.495 234.75 c 24
 335.476 242.25 348.771 243.75 366.98 258.75 c 24
 387.236 275.25 400.195 290.25 406.135 312.75 c 24
440.61 238.5 m 8
 436.001 213.179 468.677 232.5 506.068 282 c 0
 562.237 356.358 552.476 403.413 562.031 444 c 0
 567.707 468.109 549.264 559.378 529.075 576 c 0
 510.611 591.202 387.82 592.635 313.696 531 c 0
 277.889 501.226 53.2549 229.913 150.844 155 c 0
 244.638 83 436.596 146.121 430.017 128 c 0
 422.116 106.238 300.631 61 210.631 61 c 0
 138.069 61 93.6309 61 67.1045 120 c 0
 27.9004 207.201 67.1074 273.115 115.825 372 c 24
 164.355 470.503 203.89 545.03 305.267 604 c 24
 419.624 670.521 590.719 650.234 603.369 640 c 0
 658.99 595 631.555 323.188 470.114 181.5 c 24
 453.789 167.173 439.722 173.916 421.361 173.25 c 24
 404.384 172.634 392.633 170.389 380.249 177.75 c 24
 372.15 182.564 372.95 190.175 368.119 198 c 24
 364.292 204.2 366.332 212.678 358.103 213.75 c 24
 339.709 216.146 326.408 197.992 306.071 188.25 c 24
 292.35 181.678 284.613 174.448 270.815 171.75 c 24
 242.636 166.239 222.383 164.162 205.022 178.5 c 24
 192.421 188.907 192.792 202.384 195.082 221.25 c 24
 198.434 248.875 206.249 267.446 226.061 294 c 24
 240.866 313.843 254.195 322.957 275.37 336.75 c 24
 305.787 356.562 325.083 363.79 357.542 375 c 24
 379.654 382.637 393.022 374.659 413.933 387.75 c 24
 423.408 393.683 426.906 400.318 432.35 409.5 c 24
 441.982 425.753 445.044 435.868 447.909 452.25 c 24
 450.662 467.994 456.435 481.144 446.831 490.5 c 24
 439.81 497.34 429.725 494.457 417.377 492 c 24
 401.796 488.9 390.495 486.603 377.349 474.75 c 24
 360.152 459.247 356.473 438 350.604 426 c 8
 339.479 403.248 308.496 390.123 288.959 396.75 c 24
 271.682 402.61 271.843 423.283 282.633 443.25 c 16
 296.414 468.75 309.685 489.007 337.336 507 c 24
 375.804 532.031 403.32 534.549 442.482 536.25 c 24
 466.475 537.292 482.651 537.045 497.092 523.5 c 24
 512.511 509.037 516.3 493.6 511.664 468.75 c 16
 502.99 422.25 453.987 312 440.61 238.5 c 8
EndSplineSet
EndChar
StartChar: A
Encoding: 65 65 1
Width: 711
VWidth: 1080
Flags: HW
Fore
506 410 m 9
 514.161 382.929 543.845 377.401 572 380 c 24
 600.442 382.626 622.003 395.243 632 422 c 24
 642.13 449.113 634.467 473.533 614 494 c 24
 600.355 507.645 583.893 513.222 566 506 c 17
 550.565 469.404 507.643 440.952 506 410 c 9
32 12 m 24
 11.6113 38.0664 19.7192 73.5152 44 96 c 24
 70.3818 120.431 100.12 99.6602 136 102 c 17
 274 240 325.007 329.583 438 466 c 9
 501.18 541.66 531.313 589.302 600 660 c 17
 645.479 705.3 611.219 664.952 722 768 c 8
 760.131 798.75 840.457 737.375 822 692 c 16
 774 574 747.594 516.895 708 402 c 24
 675.918 308.904 650.188 257.441 636 160 c 24
 632.74 137.616 624.646 121.564 636 102 c 24
 645.469 85.6826 669.164 94.6688 678 78 c 24
 692.29 51.0439 674.34 30.4199 672 0 c 17
 604.526 16.6782 481.555 -21.3537 402 0 c 9
 402.78 32.7598 379.671 62.0469 404 84 c 24
 426.074 103.918 450.36 80.3398 480 78 c 17
 511.393 122.246 520.818 204.453 564 250 c 9
 524.22 262.48 503.211 275.687 462 282 c 24
 424.991 287.669 403.44 282 366 282 c 17
 339.982 218.906 290 170 276 102 c 9
 292.38 94.9805 309.45 99.6359 318 84 c 24
 331.657 59.0225 310.68 40.0801 306 12 c 17
 260.988 -9.44172 211.015 2.88504 150 0 c 9
 103.98 4.67969 60.499 -24.4356 32 12 c 24
EndSplineSet
KernsSLIF: 87 -238 0 0 86 -238 0 0
EndChar
StartChar: B
Encoding: 66 66 2
Width: 577
VWidth: 1080
Flags: HW
Fore
332 416 m 13
 305.315 438.802 325.188 471.568 332 506 c 28
 340.349 548.202 359.38 567.54 374 608 c 28
 387.33 644.891 370.798 683.112 404 704 c 28
 436.025 724.147 469.702 712.664 500 690 c 28
 534.375 664.286 542.5 632.786 546 590 c 28
 549.363 548.886 541.211 522.102 518 488 c 28
 498.251 458.983 478.328 447.67 446 434 c 21
 406.185 420.929 379.104 421.74 332 416 c 13
300 358 m 28
 319.615 375.312 341.105 378.04 366 370 c 28
 420.595 352.368 452.809 319.323 468 264 c 28
 481.576 214.558 466.491 178.628 438 136 c 28
 417.191 104.865 390.42 101.84 360 80 c 21
 322.521 98.5628 264.227 77.4446 240 82 c 5
 226 122 244.825 165.776 256 218 c 28
 267.977 273.966 257.088 320.13 300 358 c 28
18 0 m 5
 261.709 -13.1887 334 32 450 30 c 13
 492.12 41.7002 526.891 29.2879 558 60 c 28
 599.631 101.1 601.49 145.519 600 204 c 28
 598.549 260.964 588.559 298.292 552 342 c 28
 533.626 363.967 488.641 349.369 488 378 c 28
 486.746 434.043 575.556 409.773 610 454 c 28
 647.741 502.459 661.331 542.668 658 604 c 28
 655.084 657.695 645.25 698.044 602 730 c 28
 528.701 784.158 460.785 750.008 370 758 c 28
 327.978 761.699 304.014 767.792 262 764 c 28
 222.055 760.395 186.831 771.496 162 740 c 28
 151.376 726.524 150.178 708.439 162 696 c 28
 193.745 662.6 216 704 280 690 c 5
 265.01 639.117 202 518 178 378 c 13
 159.28 310.14 152.146 270.82 130 204 c 28
 115.782 161.102 122.605 125.067 88 96 c 28
 69.7275 80.6514 51.4004 88.6797 28 84 c 21
 20.1932 60.1339 13.4166 23.8945 18 0 c 5
EndSplineSet
EndChar
StartChar: C
Encoding: 67 67 3
Width: 641
VWidth: 1080
Flags: HW
Fore
634 248 m 12
 629.987 264.053 605.998 250.822 592 242 c 28
 549.174 215.01 558.346 167.047 520 134 c 28
 486.696 105.299 460.457 97.4161 418 86 c 28
 391.54 78.8848 374.273 72.2235 348 80 c 28
 296.834 95.1445 268.234 118.722 240 164 c 28
 214.705 204.564 219.173 236.378 215 284 c 28
 211.662 322.092 212.543 344.153 218 382 c 28
 225.479 433.869 228.566 465.126 252 512 c 28
 284.521 577.048 308.006 616.896 368 658 c 28
 409.111 686.167 440.168 696.493 490 696 c 28
 512.198 695.78 526.247 691.328 544 678 c 28
 585.7 646.694 591.752 611.829 620 568 c 28
 634.783 545.062 631.613 520.246 656 508 c 28
 677.016 497.447 692.6 511.66 716 514 c 21
 711.265 580.75 745.927 668.963 722 724 c 13
 693.92 724 677.068 716.532 650 724 c 28
 618.472 732.698 606.08 750.23 578 767 c 21
 478.383 767.81 454.402 767.973 386 743 c 5
 277.062 713.106 220.044 692.274 164 604 c 13
 74 352 l 21
 61.5072 246.807 47.6197 177.149 80 94 c 13
 108.86 63.5801 118.055 37.5921 154 16 c 28
 199.098 -11.0898 231.432 -17.946 284 -20 c 28
 369.752 -23.3506 414.273 18.0375 500 22 c 28
 523.491 23.0859 542.412 31.6103 560 16 c 28
 570.757 6.45312 555.013 -13.8188 568 -20 c 28
 583.748 -27.4961 597.391 -13.8437 608 0 c 28
 636.566 37.2744 626.937 71.3116 632 118 c 28
 637.467 168.41 641 220 634 248 c 12
EndSplineSet
EndChar
StartChar: D
Encoding: 68 68 4
Width: 732
VWidth: 1080
Flags: HW
Fore
244 90 m 13
 244.78 119.64 240.3 136.902 246 166 c 28
 255.775 215.901 274.839 240.134 292 288 c 28
 318.972 363.229 334.729 405.544 358 482 c 28
 376.346 542.276 360.134 589.209 400 638 c 28
 416.554 658.259 433.85 667.232 460 668 c 28
 513.439 669.57 550.012 653.536 586 614 c 28
 632.327 563.105 638.203 514.798 640 446 c 28
 641.433 391.152 627.767 359.452 604 310 c 28
 571.631 242.649 540.77 210.83 490 156 c 28
 458.442 121.919 435.1 108.42 400 78 c 21
 349.038 83.6641 296.239 78.7513 244 90 c 13
22 -8 m 21
 134.328 -24.151 243.184 0.665988 380 -10 c 13
 459.56 24.3203 512.853 28.5452 584 78 c 28
 645.154 120.509 669.425 157.883 716 216 c 28
 737.104 242.335 751.767 256.547 764 288 c 28
 790.752 356.782 794.996 401.226 793 475 c 28
 791.825 518.43 791.19 546.072 770 584 c 28
 738.516 640.354 707.399 668.467 650 698 c 28
 569.474 739.433 510.74 723.931 422 742 c 28
 389.17 748.685 370.76 752.98 338 760 c 21
 277.493 757.711 236.885 756.107 176 754 c 13
 168.98 723.58 143.614 703.707 158 676 c 28
 175.654 641.999 213.51 653.43 249 639 c 21
 221.446 531.946 198.41 451.55 174 350 c 13
 157.62 305.54 147.554 280.756 132 236 c 28
 117.991 195.692 123.253 166.399 98 132 c 28
 70.2051 94.1387 14.9094 106.54 0 62 c 28
 -9.08398 34.8633 13.4199 19.2998 22 -8 c 21
EndSplineSet
EndChar
StartChar: E
Encoding: 69 69 5
Width: 624
VWidth: 1080
Flags: HW
HStem: 642 103<74 102 235.88 269.978>
Fore
18 -10 m 13
 22.6797 6.37988 18.5243 19.4093 30 32 c 28
 60.4434 65.4004 95.8799 57.6201 138 74 c 21
 160.844 119.899 155.743 207.543 198 302 c 13
 264 484 l 21
 290.669 554.339 308 608 318 670 c 13
 264.18 669.22 236 638 180 668 c 12
 156.482 680.599 190.98 708.26 198 734 c 21
 258.649 739.475 320.815 736.842 398 746 c 13
 433.1 742.1 452.706 737.248 488 736 c 28
 527.007 734.621 548.977 739.22 588 740 c 28
 618.414 740.608 640.123 755.993 666 740 c 28
 701.607 717.993 695.28 681.44 714 644 c 21
 717.899 613.139 724.33 589.38 708 554 c 13
 684.6 554 659.609 533.684 648 554 c 20
 624 596 621.874 630.405 582 656 c 28
 550.159 676.438 523.812 671.334 486 670 c 28
 460.466 669.099 422 686 422 656 c 12
 422 618.261 399.489 600.989 392 564 c 21
 390.621 509.527 376.898 464.176 380 422 c 13
 402.402 395.895 438.373 398.52 468 416 c 28
 501.36 435.683 478.222 483.853 510 506 c 28
 533.117 522.11 553.92 509.66 582 512 c 21
 590.949 451.118 556.572 405.577 552 344 c 5
 535.786 305.385 542.315 273.482 522 236 c 13
 501.265 220.729 473.932 219.517 456 238 c 21
 432.674 297.536 457.879 318.147 456 362 c 5
 424.451 366.321 376.958 368.491 342 362 c 5
 278.992 298.865 294.503 203.266 282 122 c 13
 305.4 102.5 313.359 82.3693 342 72 c 28
 375.737 59.7852 399.05 63.8839 434 72 c 21
 480.552 62.667 496.953 78.3736 544 126 c 13
 566.387 129.996 588.068 137.973 602 120 c 28
 630.993 82.5977 591.02 46.7998 584 0 c 21
 529.889 -4.34777 422.581 10.0403 314 0 c 5
 207.184 -11.1587 18 -10 18 -10 c 13
EndSplineSet
EndChar
StartChar: F
Encoding: 70 70 6
Width: 582
VWidth: 1080
Flags: HW
HStem: 642 103<94 122 255.88 289.978>
Fore
314 0 m 16
 207.184 -11.1587 18 -10 18 -10 c 9
 22.6797 6.37988 18.5243 19.4093 30 32 c 24
 60.4434 65.4004 95.8799 57.6201 138 74 c 17
 160.844 119.899 155.743 207.543 198 302 c 9
 268 550 l 17
 294.669 620.339 307 615 317 677 c 9
 263.18 676.22 235 645 179 675 c 8
 157.691 686.415 190.59 710.99 198 734 c 17
 258.649 739.475 320.815 736.842 398 746 c 9
 433.1 742.1 452.706 737.248 488 736 c 24
 527.007 734.621 548.977 739.22 588 740 c 24
 618.414 740.608 635.58 740 666 740 c 17
 707.819 740.869 706.167 721.035 714 644 c 1
 717.899 613.139 724.33 589.38 708 554 c 9
 684.6 554 659.609 533.684 648 554 c 16
 624 596 633.051 639.547 592 666 c 24
 557.226 688.409 527.206 673.67 486 670 c 24
 460.551 667.733 422 686 422 656 c 8
 422 618.261 403.7 599.88 392 564 c 17
 371.595 509.527 350.547 482.177 354 440 c 9
 389.88 430.64 412.443 400.223 446 416 c 24
 481.053 432.48 456.337 483.689 488 506 c 24
 508.493 520.439 527.04 509.66 552 512 c 17
 560.949 451.118 526.571 405.577 522 344 c 1
 505.786 305.385 512.315 273.481 492 236 c 9
 448 238 l 17
 424.674 297.536 435.879 301.147 434 345 c 1
 402.451 349.321 362.958 351.491 328 345 c 1
 287.59 250.897 294.069 147.418 270 82 c 9
 298.08 71.8604 330.918 83.7216 342 56 c 24
 351.064 33.3271 338.286 2.53711 314 0 c 16
EndSplineSet
EndChar
StartChar: G
Encoding: 71 71 7
Width: 710
VWidth: 1080
Flags: HW
Fore
148 88 m 28
 113.898 122.04 103.448 150.36 88 196 c 28
 69.0439 252.005 60.3253 287.147 66 346 c 28
 74.8076 437.345 91.4779 492.748 144 568 c 28
 192.042 636.833 235.409 666.5 310 705 c 28
 365.988 733.898 403.435 739.561 466 747 c 28
 524.886 754.001 559.708 753.889 618 743 c 28
 652.195 736.612 671.945 730.516 702 713 c 28
 731.384 695.874 742.26 678.23 768 656 c 21
 770.314 598.962 753.782 534.038 710 494 c 13
 660 506 l 21
 642.215 551.524 658.737 590.263 626 628 c 13
 597.14 652.96 588.438 680.68 552 692 c 28
 511.528 704.572 483.516 695.314 444 680 c 28
 384.646 656.998 354.711 631.199 312 584 c 28
 272.595 540.454 253.163 510.164 236 454 c 28
 211.102 372.524 211.056 320.489 222 236 c 28
 228.653 184.631 232.217 150.901 264 110 c 28
 287.896 79.248 310.633 66.9748 348 56 c 28
 388.413 44.1309 418.179 37.4617 456 56 c 28
 491.444 73.373 506.723 98.1729 518 136 c 28
 529.178 173.494 531.881 203.566 510 236 c 28
 486.59 270.701 436.007 248.392 414 284 c 28
 408.669 292.626 414 299.86 414 310 c 21
 474.03 336.083 521.789 311.856 588 316 c 5
 648 316 669.295 315.438 744 316 c 13
 744 291.82 759.928 272.192 744 254 c 28
 720.674 227.357 689.1 246.68 654 242 c 21
 643.175 200.489 658.534 153.908 648 98 c 13
 643.32 69.9199 653.578 48.3926 636 26 c 28
 613.992 -2.03516 586.811 -2.34967 552 -10 c 28
 469.691 -28.0889 417.882 -35.9303 336 -16 c 28
 254.586 3.81641 207.303 28.8045 148 88 c 28
EndSplineSet
EndChar
StartChar: H
Encoding: 72 72 8
Width: 774
VWidth: 1080
Flags: HW
VStem: 606 105<119 370>
Fore
304 8 m 9
 308.68 31.4004 330.41 48.9783 316 68 c 24
 297.577 92.3193 268.42 71.6602 238 74 c 17
 239.402 184.229 232.487 280.896 298 344 c 1
 376.345 360.172 497.47 350.558 580 356 c 1
 608.682 287.865 568.208 164.532 532 74 c 9
 489.88 71.6602 455.553 96 424 68 c 24
 403.857 50.126 416.68 26.5195 412 0 c 17
 471.996 -7.30959 511.387 11.6765 562 0 c 1
 622.9 6.8714 673.663 17.8611 718 8 c 9
 720.34 29.0596 736.918 45.2041 724 62 c 24
 704.766 87.0078 675.2 69.3203 644 74 c 17
 661.021 171.563 718 264 742 386 c 1
 787.277 492.081 757.339 589.055 812 660 c 1
 842.42 678.536 869.612 666.523 890 666 c 9
 890 666 916 690 888 732 c 1
 851.915 746.965 821.985 729.076 782 732 c 1
 727.223 729.632 682.238 752.495 650 738 c 1
 639.578 725.884 626.411 705.086 626 684 c 9
 654.08 674.64 683.273 685.675 698 660 c 24
 720.606 620.589 687.809 589.285 674 546 c 24
 656.163 490.089 637.4 461.82 614 408 c 17
 537.888 407.618 415.278 402.159 326 426 c 9
 340.04 482.16 344.789 514.729 362 570 c 24
 373.889 608.178 366.31 641.615 398 666 c 24
 416.638 680.341 441.167 655.578 458 672 c 24
 471.504 685.175 461.66 701.28 464 720 c 17
 412.778 737.209 365.734 720.648 308 726 c 1
 246.801 708.091 186.857 723.888 152 708 c 9
 156.68 689.28 149.822 673.089 164 660 c 24
 195.375 631.035 250.71 679.015 272 642 c 1
 246 556 214.488 508.7 188 420 c 24
 173.596 371.766 170.045 343.326 160 294 c 24
 151.452 252.025 150.432 227.546 140 186 c 24
 130.628 148.677 122 116 110 92 c 8
 96.1787 64.3564 54.3847 99.3096 32 78 c 24
 9.3877 56.4746 21.0195 30.4199 14 0 c 17
 81.0407 -7.17567 110.402 11.3015 152 0 c 1
 212.737 5.8433 272.202 9.40828 304 8 c 9
EndSplineSet
EndChar
StartChar: I
Encoding: 73 73 9
Width: 491
VWidth: 1080
Flags: HW
Fore
202 94 m 21
 225.141 143.054 221.826 182.162 244 232 c 13
 256.48 262.42 263.788 279.472 276 310 c 28
 312.688 401.721 341.8 450.751 368 546 c 28
 375.55 573.448 378.858 589.556 380 618 c 28
 380.738 636.382 388.749 651.738 376 665 c 28
 354.209 687.668 316.809 651.428 296 675 c 28
 279.739 693.42 279.096 720.17 296 738 c 28
 336.307 780.514 387.5 742.88 446 746 c 21
 493.255 735.39 525.484 768.108 626 744 c 13
 624.44 715.53 640.612 692.6 622 671 c 28
 604.325 650.488 580.52 662.46 554 657 c 21
 504.748 588.941 492.245 533.894 472 452 c 13
 404 266 l 21
 388.836 202.818 368.588 165.838 350 90 c 13
 379.25 78.2998 407.338 86.0871 425 60 c 28
 440.742 36.748 425 16.0801 425 -12 c 21
 397.193 -11.277 286.677 5.73339 190 -1 c 13
 136.96 -1.78027 96.9003 -34.2003 54 -3 c 28
 41.1299 6.36035 35.4091 21.5157 42 36 c 28
 61.0908 77.9531 106.023 70.1981 150 84 c 28
 169.704 90.1836 181.72 90.0996 202 94 c 21
EndSplineSet
EndChar
StartChar: J
Encoding: 74 74 2
Width: 559
VWidth: 1000
Flags: HW
VStem: 193 99<-54 524>
Fore
16 -188 m 5
 7.54706 -155.739 10.591 -118.68 28 -92 c 13
 56.0801 -88.4902 72.6044 -75.9066 100 -83 c 28
 136.474 -92.4443 148.781 -116.214 178 -140 c 28
 195.131 -153.945 199.139 -185.264 220 -178 c 20
 254.902 -165.848 247.946 -145.991 254 -116 c 5
 278.934 -80.8117 302.372 -9.01162 312 66 c 13
 347.1 140.88 364.152 184.471 402 258 c 28
 421.659 296.194 453.978 311.091 456 354 c 28
 457.085 377.021 447.377 390.834 432 408 c 28
 410.31 432.214 361.296 417.518 360 450 c 28
 359.129 471.837 384.407 478.634 406 482 c 28
 437.447 486.902 454.565 445.892 484 458 c 28
 518.371 472.138 522.531 505.402 529 542 c 28
 531.88 558.294 532.212 570.255 523 584 c 28
 510.152 603.169 494.354 608.275 472 614 c 28
 447.054 620.389 429.938 602.507 406 612 c 28
 356.781 631.52 358.033 685.722 310 708 c 28
 284.438 719.855 266.08 711.66 238 714 c 21
 214.965 697.184 195.181 670.842 196 654 c 13
 225.64 639.96 249.091 641.469 272 618 c 28
 288.099 601.508 304.354 585.478 296 564 c 28
 276.881 514.841 221.581 492.002 172 510 c 28
 142.49 520.713 149.399 553.609 136 582 c 28
 126.164 602.842 121.36 614.94 112 636 c 21
 123.511 679.521 132.525 708.094 166 744 c 13
 205.78 749.46 227.9 760.074 268 758 c 28
 340.171 754.268 381.043 741.19 448 714 c 28
 490.761 696.636 503.848 654.084 550 654 c 28
 615.017 653.881 631.934 718.636 694 738 c 28
 723.125 747.087 746.206 760.295 772 744 c 28
 799.555 726.593 790.3 696.42 802 666 c 21
 769.239 640.651 725.874 645.197 682 624 c 5
 664.158 593.774 619.198 549.671 622 492 c 5
 645.018 482.29 662.131 486.315 691 480 c 13
 691 460.89 704.585 444.44 691 431 c 28
 665.214 405.49 634.27 431.61 598 432 c 21
 519.974 288.017 507.99 168 448 12 c 13
 391.84 -55.8604 370.043 -103.714 304 -162 c 21
 258.25 -216.975 223.48 -230.178 172 -246 c 5
 101.589 -267.065 66.782 -235.048 16 -188 c 5
EndSplineSet
EndChar
StartChar: K
Encoding: 75 75 3
Width: 725
VWidth: 1080
Flags: HW
VStem: 111 114<401 656.683> 111 122<657 666>
Fore
320 62 m 24
 330.702 43.7119 316.34 29.0596 314 8 c 17
 239.123 -18.2205 117.953 12.7098 14 0 c 9
 14 28.0801 -4.24134 50.6525 14 72 c 24
 43.2402 106.22 83.54 82.9805 128 90 c 17
 197.842 186.628 153.688 259.789 210 376 c 1
 243.842 492.652 288.521 575.232 336 664 c 9
 216 664 l 17
 219.362 691.603 229.195 727.847 242 748 c 1
 330.364 758.663 450.158 741.221 522 744 c 1
 524.702 724.472 526.455 697.722 514 678 c 9
 430 654 l 17
 393.829 606.094 395.555 536.363 370 450 c 9
 364 376 l 17
 371.091 375.282 502.623 515.883 666 645 c 13
 647.28 666.06 626.358 672.091 618 699 c 28
 612.404 717.017 621.66 728.28 624 747 c 21
 686.914 769.86 779.528 725.728 852 739 c 13
 852 722.62 859.169 711.728 852 697 c 20
 839.748 671.83 788.828 688.603 772 673 c 4
 722.699 627.291 693.015 575.488 630 523 c 5
 573.415 462.329 513.353 416.137 474 372 c 1
 476.019 255.505 568.55 196.771 636 82 c 9
 661.74 82 683.799 100.201 702 82 c 24
 724.613 59.3867 702 31.9805 702 0 c 17
 614.856 18.6965 464.133 2.04972 386 0 c 9
 390.68 23.4004 379.545 44.8707 398 60 c 24
 425.145 82.2529 463.181 35.1807 488 60 c 24
 506.201 78.2012 488 100.26 488 126 c 17
 428.167 203.025 406.752 277.861 356 312 c 9
 308 294 l 17
 281.306 185.665 237.075 131.946 254 90 c 9
 279.74 79.0801 305.878 86.132 320 62 c 24
EndSplineSet
EndChar
StartChar: L
Encoding: 76 76 4
Width: 604
VWidth: 1080
Flags: HW
VStem: 200 129<48 206 227 576.784>
Fore
34 0 m 13
 36.3398 26.5195 21.0181 49.3325 40 68 c 28
 63.417 91.0293 91.2402 71.6602 124 74 c 21
 150.648 211.883 147.323 279.61 196 398 c 13
 233.44 484.58 261.74 530.657 292 620 c 28
 298.19 638.276 299.32 649.28 304 668 c 21
 286.875 716.279 226.85 687.611 196 703 c 13
 214 756 l 21
 302.335 758.567 320.032 748.244 358 759 c 5
 417.056 743.437 468.106 774.896 516 730 c 13
 513.66 713.62 522.039 699.352 510 688 c 28
 489.499 668.67 466.08 684.34 438 682 c 21
 388.561 600.706 388.977 516.447 348 414 c 5
 306.466 298.834 340.824 407.335 234 120 c 13
 236.34 108.3 231.563 98.4365 240 90 c 28
 273.748 56.252 312.273 66 360 66 c 28
 395.795 66 414.9 76.9805 450 84 c 21
 511.514 112.698 499.794 159.818 578 232 c 13
 614 226 l 21
 616.495 155.125 595.685 71.1642 560 16 c 5
 479.455 -11.928 413.171 2.15185 319 -1 c 28
 207.911 -4.71777 140.642 -17.4599 34 0 c 13
EndSplineSet
EndChar
StartChar: M
Encoding: 77 77 5
Width: 921
VWidth: 1080
Flags: HW
VStem: 153 86<145 454.704>
Fore
44 0 m 24
 19.9668 25.6885 25.1844 65.0665 50 90 c 24
 73.1689 113.278 101.24 93.6602 134 96 c 17
 155.846 184.302 160.791 242.276 194 330 c 9
 233.78 419.7 256.783 470.053 296 560 c 24
 307.871 587.227 320.028 600.905 326 630 c 24
 328.353 641.461 333.666 651.161 326 660 c 24
 293.477 697.5 233.034 640.949 200 678 c 24
 181.047 699.258 198.78 722.53 198 751 c 17
 279.186 763.49 309.135 738.94 356 748 c 1
 410.816 733.74 461.82 775.653 516 742 c 1
 547.763 618.227 514.182 552.947 524 438 c 9
 524 438 482 266 518 228 c 1
 551.787 247.423 643.647 358.552 674 456 c 1
 766.416 561.094 783.491 652.074 838 745 c 5
 877.695 758.056 911.142 745.307 958 751 c 5
 992.437 742.178 1021.46 760.06 1072 745 c 13
 1069.66 714.19 1085.92 689.616 1066 666 c 24
 1047.34 643.877 1022.08 655.02 994 648 c 17
 1001.41 536.732 921 438 880 300 c 9
 863.23 236.82 842.548 203.132 837 138 c 24
 834.408 107.568 822.416 81.6092 844 60 c 24
 862.266 41.7139 893.653 74.0196 910 54 c 24
 923.401 37.5869 919.133 14.8331 904 0 c 24
 867.084 -36.1846 823.48 -7.32031 772 -12 c 17
 714.287 -4.91946 669.025 -18.5106 616 0 c 9
 615.22 21.8398 600.068 39.1621 614 56 c 24
 640.16 87.6182 677.44 65.7598 718 72 c 17
 741.811 164.705 768.235 282.963 812 418 c 1
 822.429 477.822 851.905 537.631 848 568 c 9
 818 562 l 17
 741.68 470.917 715.111 389.986 632 292 c 1
 546.649 197.59 543.402 99.0556 476 16 c 9
 428 16 l 17
 396.218 135.198 419.419 175.497 410 268 c 1
 397.232 357.288 429.567 441.517 404 490 c 9
 356 490 l 17
 321.621 382.53 309.927 314.067 274 208 c 9
 262.3 157.3 215.55 121.566 244 78 c 24
 260.06 53.4072 298.564 86.0217 318 64 c 24
 334.549 45.25 339.123 18.2266 322 0 c 24
 283.548 -40.9307 234.16 0 178 0 c 24
 125.74 0 79.7034 -38.1629 44 0 c 24
EndSplineSet
EndChar
StartChar: N
Encoding: 78 78 6
Width: 710
VWidth: 1080
Flags: HW
VStem: 134 65<114 657>
Fore
378 78 m 28
 390.04 47.7129 359.7 30.4199 348 0 c 21
 290.776 -1.20282 239.42 2.92188 170 0 c 5
 115.26 7.90014 66.4678 -22.8827 20 0 c 13
 29.3604 31.9805 19.4319 59.489 44 82 c 28
 79.1895 114.242 117.2 96.6396 164 106 c 21
 188.726 221.957 210 326 242 430 c 5
 261.724 497.86 260.598 532.354 311 604 c 13
 317 646 l 21
 293.085 683.906 266.371 643.143 214 664 c 13
 226 733 l 21
 291.765 754.243 376.324 745.824 448 737 c 5
 523.004 661.952 506.257 602.525 550 500 c 5
 586.845 411.123 598 296 638 258 c 5
 682.752 285.213 651.134 395.013 688 468 c 13
 708.28 521.82 722.989 551.06 740 606 c 28
 745.819 624.795 762.561 638.4 752 655 c 28
 732.786 685.201 685.925 646.375 662 673 c 28
 644.725 692.225 658.34 713.26 656 739 c 21
 709.896 755.591 753.302 743.252 814 747 c 5
 858.445 740.345 895.379 751.026 928 747 c 13
 930.34 716.58 954.73 691.386 934 669 c 28
 918.101 651.831 897.4 669 874 669 c 21
 781.758 607.207 808.298 535.184 760 410 c 5
 717.927 279.523 738.455 148.075 652 10 c 13
 630.94 10 615.707 -1.40167 598 10 c 28
 550.455 40.6143 558.67 89.3641 538 142 c 28
 502.839 231.54 490.42 284.74 460 376 c 21
 428.292 448.93 444.917 512.797 418 586 c 13
 375 568 l 21
 353.972 468.24 355.673 404.735 327 304 c 13
 309.45 247.84 290.877 218.165 282 160 c 28
 279.882 146.121 274.519 135.881 282 124 c 28
 304.122 88.8691 362.663 116.579 378 78 c 28
EndSplineSet
EndChar
StartChar: O
Encoding: 79 79 7
Width: 736
VWidth: 1080
Flags: HW
HStem: 743 0<392.127 431>
Fore
342 723 m 28
 348.671 725.929 352.98 726.05 360 728 c 21
 378.903 645.795 377.328 670.177 366 638 c 13
 326.22 593.54 295.902 574.412 264 524 c 28
 238.203 483.236 234.72 454.46 216 410 c 21
 198.813 309.3 186.003 240.736 228 148 c 13
 268.56 110.56 280.591 72.1001 332 52 c 28
 357.426 42.0586 375.904 43.9819 402 52 c 28
 477.688 75.2559 518.71 105.676 570 166 c 28
 616.792 221.034 630.921 263.811 648 334 c 28
 669.597 422.754 680.857 479.562 658 568 c 28
 645.648 615.792 631.781 646.774 592 676 c 28
 568.674 693.137 548.673 697.955 520 694 c 21
 470.403 688.287 453.261 654.81 436 646 c 13
 422.431 642.396 414.04 646 400 646 c 21
 374.935 670.971 392.76 710.27 388 742 c 13
 425.44 747.46 446.233 758.296 484 756 c 21
 546.001 765.834 571.721 744.812 616 720 c 5
 664.581 683.978 708.661 671.398 737 616 c 28
 787.27 517.734 780.704 442.604 761 334 c 28
 745.273 247.319 718.703 199.054 664 130 c 28
 626.784 83.0215 596.28 63.3052 544 34 c 28
 509.994 14.9385 488.398 6.73102 450 0 c 28
 387.769 -10.9092 349.193 -15.7179 288 0 c 28
 236.268 13.2881 214.8 40.2598 168 66 c 21
 103.958 125.14 97.9163 171.074 86 276 c 5
 81.833 347.531 79.9539 391.585 98 462 c 28
 114.46 526.225 125.994 566.41 170 616 c 28
 222.437 675.09 269.665 691.24 342 723 c 28
EndSplineSet
EndChar
StartChar: P
Encoding: 80 80 8
Width: 595
VWidth: 1080
Flags: HW
VStem: 118 118<94 333>
Fore
322 420 m 5
 352.796 392.546 409.239 417.537 460 408 c 13
 481.06 429.06 500.295 435.558 514 462 c 28
 539.314 510.842 553.251 548.144 538 601 c 28
 529.272 631.247 513.717 650.608 484 661 c 28
 457.129 670.397 434.871 665.95 412 649 c 28
 369.683 617.637 375.4 575.19 352 528 c 21
 343.47 486.917 312.372 455.917 322 420 c 5
190 -5 m 4
 128.04 7.78883 77.0693 -13.4219 31 9 c 13
 31 36.2998 14.5842 57.1864 31 79 c 28
 45.3984 98.1338 66.9902 89.3701 90 96 c 21
 150 204 156.956 303.753 203 424 c 5
 232.192 528.864 254.872 590.166 286 671 c 13
 278.98 680.36 279.532 693.025 268 695 c 28
 251.368 697.849 248.15 675.89 232 671 c 28
 211.844 664.897 192.892 656.108 178 671 c 28
 166.418 682.582 170.128 698.636 178 713 c 28
 188.451 732.069 206.67 731.3 225 743 c 21
 272.778 753.461 315.132 741.283 381 745 c 13
 447.3 741.1 488.914 758.584 551 735 c 28
 612.268 711.727 658.137 691.64 683 631 c 28
 703.132 581.901 684.826 545.614 666 496 c 28
 646.889 445.633 627.961 418.127 588 382 c 28
 566.25 362.337 547.74 360.04 522 346 c 21
 453.632 311.946 377.874 345.72 302 326 c 5
 289.085 257.372 293.008 251.346 274 192 c 13
 260.281 148.322 246 140 228 84 c 12
 224.364 72.6895 244.397 74.5501 256 72 c 28
 283.437 65.9707 309.293 90.956 328 70 c 28
 346.247 49.5596 324.34 27.2998 322 0 c 21
 262.265 1.66323 239.731 -3.80516 190 -5 c 4
EndSplineSet
EndChar
StartChar: Q
Encoding: 81 81 9
Width: 765
VWidth: 1080
Flags: HW
Fore
154 98 m 28
152 94 m 28
 127.791 95.0137 130 96 100 60 c 5
 120 44 130.37 29.8994 154 32 c 28
 173.114 33.6992 186 42 193 62 c 5
 178 78 172.266 93.1514 152 94 c 28
438 458 m 28
438 456 m 28
 421.846 475.043 421.853 502.846 440 520 c 28
 462.681 541.439 495.875 537.8 520 518 c 28
 544.721 497.712 540.608 469.873 538 438 c 28
 535.118 402.775 527.15 380.704 504 354 c 28
 471.489 316.498 443.219 296.399 394 290 c 28
 329.823 281.656 287.618 297.759 234 334 c 28
 196.646 359.247 171.564 381.554 164 426 c 28
 154.233 483.388 180.995 517.527 210 568 c 28
 239.726 619.726 263.524 647.226 312 682 c 28
 345.081 705.729 368.221 714.339 408 723 c 28
 529.219 749.395 609.299 773.09 726 731 c 28
 775.663 713.088 809.697 691.521 828 642 c 28
 861.614 551.051 832.153 484.257 792 396 c 28
 768.176 343.635 736.809 324.55 696 284 c 28
 639.466 227.825 604.007 199.485 540 152 c 28
 501.947 123.77 478.474 110.633 438 86 c 28
 421.885 76.1914 420 84 396 62 c 5
 406 40 444.19 41.2922 474 26 c 28
 545.793 -10.8281 583.016 -37.635 654 -76 c 28
 731.951 -118.131 769.484 -160.859 856 -180 c 28
 913.164 -192.647 947.5 -176.34 1006 -174 c 21
 1059.32 -163.824 1085.52 -129.136 1126 -110 c 13
 1140.04 -119.36 1160.78 -117.17 1162 -134 c 28
 1166.55 -196.798 1100.52 -218.776 1042 -242 c 28
 946.275 -279.986 879.599 -264.851 778 -248 c 28
 704.237 -235.766 663.876 -217.369 598 -182 c 28
 510.995 -135.286 471.748 -92.888 394 -32 c 28
 372.417 -15.0977 364.52 0.740234 340 13 c 20
 316 25 299.808 29.2939 274 25 c 28
 229.048 17.5205 216.456 -21.9882 172 -32 c 28
 137.682 -39.7285 111.546 -45.0928 82 -26 c 28
 48.5889 -4.40918 28.8057 24.5605 34 64 c 28
 39.3682 104.761 67.2286 127.324 106 141 c 28
 150.575 156.724 179.682 133.421 226 124 c 28
 261.598 116.76 279.69 98.8895 316 100 c 28
 330.793 100.452 338.657 105.596 352 112 c 28
 444.066 156.186 496.912 184.788 572 254 c 28
 634.174 311.309 676.817 345.932 704 426 c 28
 725.815 490.258 730.927 537.711 704 600 c 28
 686.155 641.28 661.468 661.597 620 679 c 28
 566.015 701.656 526.811 699.147 470 685 c 28
 433.197 675.836 416.494 658.551 386 636 c 28
 352.714 611.385 329.703 599.254 308 564 c 28
 287.161 530.151 281.701 505.713 280 466 c 28
 278.605 433.446 277.536 410.847 296 384 c 28
 308.51 365.811 322.601 359.421 344 354 c 28
 380.364 344.788 409.109 338.717 440 360 c 28
 463.283 376.042 465.079 398.157 470 426 c 28
 471.77 436.015 474.988 444.611 468 452 c 28
 459.89 460.576 445.636 446.999 438 456 c 28
EndSplineSet
EndChar
StartChar: R
Encoding: 82 82 10
Width: 645
VWidth: 1080
Flags: HW
Fore
334 404 m 12
 323.158 367.86 392.911 385.067 430 392 c 28
 475.282 400.465 506.473 411.063 534 448 c 28
 575.408 503.564 583.223 553.977 570 622 c 28
 564.097 652.367 552.426 671.917 526 688 c 28
 507.899 699.017 491.711 701.776 472 694 c 28
 431.863 678.166 421.259 647.547 400 610 c 28
 374.479 564.926 373.634 533.383 358 484 c 28
 348.169 452.945 346 444 334 404 c 12
318 78 m 28
 335.327 52.8877 314.34 30.4199 312 0 c 21
 275.738 -12.9242 218.772 16.6216 150 0 c 5
 103.2 7.461 63.0927 -4.29336 30 0 c 13
 30 26.5195 12.3134 48.2393 30 68 c 28
 53.5527 94.3145 84.9004 74.0996 120 78 c 21
 183.204 180.549 177.946 274.642 228 390 c 13
 244.38 457.86 247.875 497.79 270 564 c 28
 279.966 593.822 299.631 606.646 302 638 c 28
 303.154 653.281 303.569 665.95 292 676 c 28
 261.763 702.27 219.49 660.894 190 688 c 28
 175.641 701.198 183.9 717.89 180 737 c 21
 204.702 763.207 308.79 734.412 404 748 c 13
 472.64 740.2 514.713 750.581 580 728 c 28
 620.711 713.919 652.341 707.236 674 670 c 28
 706.964 613.328 704.004 563.01 680 502 c 28
 660.614 452.729 626.755 437.234 584 406 c 28
 562.028 389.948 544.494 389.312 522 374 c 28
 501.438 360.003 479.352 356.292 474 332 c 28
 465.735 294.489 496.934 276.411 514 242 c 28
 539.901 189.771 538.99 145.479 586 111 c 28
 605.242 96.8867 633.056 119.048 646 99 c 28
 662.934 72.7725 650.992 42.1188 628 21 c 28
 603.628 -1.38574 574.362 -4.16339 544 9 c 28
 491.587 31.7236 483.372 76.873 460 129 c 20
 431.484 192.6 408 228 388 314 c 12
 383.629 332.795 358.725 330.66 340 326 c 28
 309.45 318.397 303.4 293.06 280 272 c 21
 274.675 203.776 241.991 148.39 250 98 c 13
 276.52 90.2002 302.301 100.753 318 78 c 28
EndSplineSet
EndChar
StartChar: S
Encoding: 83 83 11
Width: 424
VWidth: 1080
Flags: HW
Fore
83.7012 325.55 m 9
 107.645 337.404 133.02 324.666 148.302 302.75 c 24
 179.244 258.375 127.841 214.865 146.401 164.05 c 24
 161.54 122.603 179.956 95.9619 220.501 78.5498 c 24
 242.993 68.8906 259.669 74.6611 283.201 81.4004 c 24
 302.817 87.0176 318.795 89.2676 328.802 107.05 c 24
 361.524 165.202 346.753 215.655 323.102 278.05 c 24
 293.44 356.298 226.694 351.896 186.302 443.35 c 9
 171.852 483.364 153.722 503.643 149.251 545.95 c 24
 145.519 581.279 145.138 604.72 161.602 636.2 c 24
 190.28 691.036 220.03 723.141 278.451 743.55 c 24
 332.802 762.538 374.035 758.498 425.701 733.1 c 24
 470.682 710.988 477.856 674.57 511.201 637.15 c 17
 508.929 581.72 495.903 526.764 477.001 494.65 c 9
 437.102 500.35 l 17
 428.563 562.691 450.615 577.682 431.401 620.05 c 9
 413.617 637.834 408.65 655.141 385.802 665.65 c 24
 359.469 677.762 338.479 682.441 311.701 671.35 c 24
 273.831 655.664 252.996 631.378 243.302 591.55 c 24
 234.119 553.828 248.96 529.484 266.102 494.65 c 24
 307.029 411.475 385.136 397.688 416.201 310.35 c 24
 438.552 247.517 436.317 202.934 416.201 139.35 c 24
 398.715 84.0762 382.15 44.4688 330.701 17.75 c 24
 278.75 -9.22949 234.607 -4.83594 180.602 17.75 c 24
 145.071 32.6084 146.16 71.7852 111.251 88.0498 c 24
 85.9834 99.8232 58.3926 72.8018 40.001 93.75 c 17
 34.8037 127.202 51.0811 163.962 45.7012 207.75 c 1
 57.5371 253.566 63.2002 292.063 83.7012 325.55 c 9
EndSplineSet
EndChar
StartChar: T
Encoding: 84 84 12
Width: 666
VWidth: 1080
Flags: HW
VStem: 333.418 140.6<113.9 603.559> 333.418 156.75<106.3 113.9>
Fore
471.168 66.0498 m 28
 485.667 47.6875 464.213 30.1211 459.768 7.15039 c 21
 422.043 5.16602 383.249 11.1377 334.367 7.15039 c 5
 295.029 14.0293 265.636 -1.38867 209.918 14.75 c 13
 207.323 43.6484 183.069 68.0205 203.268 88.8496 c 28
 229.622 116.027 262.376 85.373 300.168 83.1504 c 21
 325.913 188.067 359.067 299.75 408.468 436.55 c 13
 430.698 492.125 451.901 520.751 465.468 579.05 c 28
 472.037 607.28 468.944 624.251 471.168 653.15 c 21
 414.744 666.553 380.209 673.458 327.718 654.1 c 28
 286.809 639.014 270.818 614.665 243.168 580.95 c 28
 223.176 556.574 205.747 542.078 203.268 510.65 c 28
 201.774 491.716 205.184 476.459 220.367 465.05 c 28
 243.54 447.639 278.29 483.399 294.468 459.35 c 28
 310.752 435.142 294.186 406.651 271.668 388.1 c 28
 242.298 363.904 207.752 357.729 174.768 376.7 c 28
 140.103 396.638 138.934 431.075 133.918 470.75 c 28
 129.494 505.739 135.114 527.287 148.168 560.05 c 28
 167.11 607.593 185.338 632.92 222.268 668.35 c 28
 252.534 697.387 273.41 712.914 313.468 725.35 c 28
 378.636 745.582 420.048 731.468 488.268 732.95 c 28
 554.942 734.399 593.318 723.033 659.268 732.95 c 28
 689.168 737.445 704.994 766.197 733.367 755.75 c 28
 760.567 745.736 778.674 721.525 773.268 693.05 c 28
 767.628 663.345 739.322 656.801 710.567 647.45 c 28
 657.717 630.264 623.643 647.45 568.067 647.45 c 21
 536.529 585.466 543.438 512.108 512.968 428.95 c 13
 490.737 360.037 479.662 320.673 455.968 252.25 c 28
 435.023 191.769 404.195 162.142 398.968 98.3496 c 28
 398.012 86.6904 395.805 76.5361 404.668 68.9004 c 28
 424.333 51.9551 455.08 86.4229 471.168 66.0498 c 28
EndSplineSet
EndChar
StartChar: U
Encoding: 85 85 13
Width: 753
VWidth: 1080
Flags: HW
Fore
152.7 674.1 m 24
 138.245 693.823 135.272 719.647 152.7 736.8 c 17
 198.464 764.311 227.016 733.176 272.4 734.9 c 1
 332.069 733.703 287.124 751.323 443.4 746.3 c 9
 464.222 722.228 451.052 686.511 426.3 666.5 c 24
 412.471 655.32 395.763 675.954 380.7 666.5 c 17
 309.145 608.129 308.983 534.048 274.3 446.1 c 9
 249.339 377.154 236.004 336.661 228.7 263.7 c 24
 223.823 214.987 209.611 180.517 234.4 138.3 c 24
 262.201 90.9551 299.633 71.1084 354.1 64.2002 c 24
 401.066 58.2422 429.935 75.0781 470 100.3 c 24
 518.808 131.026 541.415 158.914 570.7 208.6 c 24
 613.059 280.467 610.062 333.017 637.2 411.9 c 17
 659.768 494.122 688.178 544.797 711.3 617.1 c 9
 708.691 636.044 698.574 646.19 682.8 657 c 24
 658.19 673.864 626.989 652.43 608.7 676 c 24
 594.163 694.733 591.251 720.744 608.7 736.8 c 17
 672.277 749.445 677.27 727.013 722.7 727.3 c 9
 760.746 727.946 782.117 745.26 819.6 738.7 c 24
 839.186 735.272 856.178 733.618 865.2 715.9 c 24
 877.472 691.801 871.679 667.791 853.8 647.5 c 24
 838.457 630.086 813.404 646.615 796.8 630.4 c 17
 751.547 542.418 753.595 467.112 711.3 368.2 c 9
 676.734 281.354 665.794 225.609 608.7 151.6 c 24
 567.902 98.7158 535.144 75.3115 477.6 41.4004 c 24
 436.578 17.2256 411.07 1.40723 363.6 -2.2998 c 24
 306.947 -6.72461 271.27 1.41406 221.1 28.0996 c 24
 169.281 55.6641 134.147 77.9258 112.8 132.6 c 24
 85.2617 203.127 110.873 251.869 124.2 326.4 c 24
 141.24 421.699 167.312 471.562 196.4 563.9 c 24
 207.172 598.097 241.292 619.414 224.9 651.3 c 24
 211.399 677.562 170.155 650.283 152.7 674.1 c 24
EndSplineSet
EndChar
StartChar: V
Encoding: 86 86 14
Width: 616
VWidth: 1080
Flags: HW
Fore
10 18 m 16
 40 140 63.8448 152.478 94 240 c 24
 124.338 328.052 132.012 380.906 165 468 c 24
 185.899 523.177 214.635 548.308 227 606 c 24
 232.885 633.456 246.069 657.388 227 678 c 24
 206.545 700.11 171.531 662.935 150 684 c 24
 133.19 700.445 146.34 720.6 144 744 c 17
 192.723 754.571 239.714 740.031 294 754 c 1
 360.205 747.981 410.579 763.497 470 744 c 9
 470 722.94 484.352 705.413 470 690 c 24
 447.619 665.963 418.76 686.34 386 684 c 17
 355.112 603.161 340.888 558.569 308 480 c 9
 272.12 401.22 245.424 359.412 216 278 c 24
 206.932 252.908 154 188 198 212 c 1
 279.313 298.58 299.731 357.471 378 428 c 9
 450.54 502.1 496 554 564 618 c 8
 581.636 634.598 592.297 657.137 580 678 c 24
 570.202 694.623 543.016 674.157 532 690 c 24
 519.903 707.397 535.66 722.94 538 744 c 17
 587.149 763.946 617.582 749.093 666 752 c 1
 706.406 745.986 736.833 761.616 780 750 c 9
 781.56 724.26 800.265 704.012 784 684 c 24
 763.615 658.919 733.98 676.68 702 672 c 17
 666.718 638.973 586.349 545.904 516 468 c 9
 424.74 372.06 367.945 322.729 282 222 c 24
 236.13 168.239 216.081 133.238 172 78 c 24
 147.301 47.0498 144.247 13.4398 107 0 c 24
 70.8086 -13.0586 0.8125 -19.3623 10 18 c 16
EndSplineSet
EndChar
StartChar: W
Encoding: 87 87 15
Width: 969
VWidth: 1080
Flags: HW
Fore
42 16 m 1
 41.7929 107.732 88.1572 161.232 112 254 c 9
 149.44 355.4 178.406 410.039 208 514 c 24
 219.769 555.343 239.801 580.147 230 622 c 24
 225.944 639.318 218.348 650.991 202 658 c 24
 180.386 667.267 160.114 637.002 142 652 c 24
 121.493 668.979 119.57 699.051 136 720 c 17
 184.835 755.609 234.987 737.719 292 744 c 1
 350.29 736.874 404.185 758.434 454 724 c 9
 467.65 706.792 462.639 684.376 448 668 c 24
 433.622 651.916 415.06 660.68 394 656 c 17
 328.249 664.642 314.279 460.972 286 420 c 9
 262.6 348.24 244.942 309.063 226 236 c 16
 212 182 333.754 344.276 400 416 c 24
 471.99 493.943 520.677 532.031 580 620 c 24
 594.627 641.69 622.629 657.088 610 680 c 24
 598.648 700.596 563.08 666.457 550 686 c 24
 536.411 706.303 560.98 722.6 568 746 c 17
 604.238 762.231 648.493 740.195 711 754 c 0
 762.316 751.763 772.299 752.812 854 758 c 9
 856.34 718.22 884.704 687.267 860 656 c 24
 834.957 624.305 790.21 662.377 758 638 c 17
 692.895 550.474 680.675 458.545 618 348 c 9
 590.547 289.753 516 168 549 198 c 8
 589.17 234.519 619.634 245.698 660 282 c 24
 750.678 363.548 795.565 416.617 874 510 c 24
 896.575 536.877 906.554 554.214 928 582 c 24
 948.691 608.809 974 622 982 650 c 1
 982 650 998.852 684.921 946 668 c 9
 941.32 651.62 945.781 638.305 934 626 c 24
 928.883 620.655 923.02 622.34 916 620 c 17
 893.263 647.361 903.783 689.54 910 734 c 1
 933.215 741.995 960.4 745.009 1012 746 c 1
 1049.38 740.55 1082.2 749.435 1108 746 c 1
 1157.07 703.49 1133.25 667.526 1102 637 c 9
 1030 631 l 17
 972.386 568.946 951.386 506.583 892 434 c 9
 836.62 376.28 806.467 342.657 750 286 c 24
 682.633 218.407 637.774 186.992 574 116 c 17
 535.062 66.4432 504.483 40.7453 490 8 c 9
 452.771 -11.9463 406.662 -34.287 382 0 c 17
 384.963 68.6797 446 122 466 200 c 9
 485.12 246.638 495.28 273.2 514 320 c 17
 536.832 383.573 553.698 400.329 574 476 c 1
 564.075 485.713 554.1 490.304 544 482 c 1
 509.982 439.062 472.348 395.397 430 338 c 9
 273 144 l 17
 224.993 101.769 213.891 86.8154 164 12 c 1
 117.459 -12.5111 72.9592 -28.0429 42 16 c 1
EndSplineSet
EndChar
StartChar: X
Encoding: 88 88 16
Width: 775
VWidth: 1080
Flags: HW
VStem: 506 280<23 31>
Fore
22 -26 m 9
 19.6602 4.41992 -3.2022 28.2901 16 52 c 24
 38.2861 79.5176 70.9004 59.3203 106 64 c 17
 152.634 124.398 207.876 166.958 282 228 c 1
 332.466 285.309 382.939 317.48 428 353 c 1
 441.887 371.236 434.622 384.854 434 418 c 1
 400.596 482.851 386.108 514.756 342 688 c 9
 306.9 688 275.262 661.716 252 688 c 24
 239.24 702.417 255.66 717.89 258 737 c 17
 302.161 770.035 353.128 741.579 414 743 c 1
 472.675 738.666 529.758 766.335 564 731 c 9
 559.32 718.91 562.186 708.02 552 700 c 24
 524.179 678.094 497.1 692.68 462 688 c 17
 485.117 623.55 487.564 500.573 528 472 c 1
 605.338 536.679 530.598 482.522 664 604 c 1
 750 702 l 9
 717.24 702 685.041 675.342 666 702 c 24
 657.612 713.742 673.32 723.35 678 737 c 17
 706 755 751.133 737.782 810 739 c 1
 866.204 727.617 915.091 740.45 954 733 c 9
 954 716.23 965.858 701.858 954 690 c 24
 932.49 668.49 906.42 690 876 690 c 17
 833.715 725.823 756.616 580.647 684 516 c 9
 634.86 471.54 587.865 461.157 558 402 c 24
 547.401 381.007 549.814 365.415 552 342 c 24
 560.613 249.722 588.586 201.547 619 114 c 24
 628.935 85.4043 622.912 58.9415 648 42 c 24
 659.636 34.1426 675.545 53.209 684 42 c 24
 694.259 28.3994 684.886 11.1434 672 0 c 24
 632.116 -34.4912 590.26 -10.9805 538 -18 c 17
 499.095 -14.8954 483.516 -28.7709 412 -18 c 9
 406 36 l 17
 461.294 60.9972 534.419 22.3096 551 26 c 9
 557 62 l 17
 502 172 513.789 180.919 472 242 c 1
 452.667 252.391 433.333 255.743 414 248 c 1
 371.299 195.575 291.256 132.064 230 60 c 9
 257.3 50.6396 285.888 61.1749 300 36 c 24
 310.549 17.1816 292.68 3.05957 288 -18 c 17
 253.319 -28.2076 218.445 -16.127 174 -18 c 1
 114.658 -13.8408 66.6006 -22.9066 22 -26 c 9
EndSplineSet
EndChar
StartChar: Y
Encoding: 89 89 17
Width: 806
VWidth: 1080
Flags: HW
Fore
138 520 m 24
 116.318 524.638 116.04 546.84 102 564 c 17
 183.212 684.891 173.428 644.218 198 678 c 9
 240 726 l 17
 251.159 731.569 361.658 758.958 420 706 c 1
 432 584 395.643 517.826 396 442 c 9
 420 430 l 17
 486.408 472.149 477.368 565.919 550 622 c 9
 670 732 l 17
 731.197 750.578 787.308 765.811 852 742 c 9
 862 634 l 17
 836.931 595.759 808.489 577.664 750 604 c 9
 726.6 618.04 717.143 642.825 690 640 c 24
 616.987 632.401 597.983 569.22 552 512 c 24
 490.24 435.148 473.92 379.02 424 294 c 17
 382.691 204.976 345.338 174.207 316 54 c 9
 339.4 46.9805 362.718 56.5039 376 36 c 24
 385.836 20.8154 372.34 7.94043 370 -10 c 17
 294.527 -20.5625 282.343 -20.8308 226 -22 c 24
 169.804 -23.166 143.155 -19.0957 82 -16 c 1
 75.6557 -2.53234 70.2957 11.358 76 30 c 1
 110.626 47.674 146.706 19.2357 172 48 c 1
 224.947 141.528 238.267 228.217 270 346 c 1
 287.039 433.44 296.453 500.367 300 574 c 9
 272.7 580.24 256.823 598.047 230 590 c 24
 206.222 582.866 205.977 558.738 186 544 c 24
 169.158 531.574 158.467 515.622 138 520 c 24
EndSplineSet
EndChar
StartChar: Z
Encoding: 90 90 18
Width: 768
VWidth: 1080
Flags: HW
HStem: 26 59<265 572> 691 34<105 532>
Fore
638 216 m 13
 668 210 l 21
 658 142 644.763 107.098 620 42 c 13
 598 -12 l 21
 515.352 -40.4688 439.826 -17.1773 336 -26 c 5
 241.027 -15.034 225.699 -28.6769 46 -30 c 13
 46 68 l 21
 132.954 167.368 188.969 216.715 254 324 c 5
 345.427 435.354 385.359 488.076 498 604 c 13
 502.68 627.4 518.168 641.578 510 664 c 28
 504.872 678.078 491.7 678.64 480 688 c 21
 414.424 679.556 378.872 688.623 330 682 c 5
 301.499 680.657 275.69 684.068 240 604 c 5
 220.872 578.102 242.488 595.535 210 520 c 13
 181.309 499.78 140.235 491.32 120 520 c 21
 128.096 587.407 145.425 594.381 162 638 c 13
 178.751 678.648 191.28 700.22 210 740 c 21
 281.179 767.306 342.975 746.858 428 754 c 5
 523.685 744.479 599.592 774.981 692 752 c 5
 699.678 697.46 697.359 683.096 680 646 c 5
 550.779 519.342 520.71 465.449 430 342 c 13
 369.16 250.74 307.721 212.368 274 108 c 28
 267.521 87.9463 272.78 75.0596 272 54 c 21
 342.666 39.0862 410 42 484 44 c 5
 566.494 78.79 554 170 638 216 c 13
EndSplineSet
EndChar
StartChar: bracketright
Encoding: 93 93 21
Width: 314
Flags: HW
Fore
277.755 300 m 0
 264.11 262.513 223.344 156 170.932 12 c 1
 106.36 -10.5459 168.563 0 95.4756 8 c 8
 67.7129 11.0391 36.9102 -16.0488 18.5645 0 c 24
 10.8438 6.75391 11.2832 18.9336 20.4834 30 c 24
 40.6162 54.2168 69.4424 35.6631 93.3105 57 c 24
 156.503 113.489 143.343 156 181.825 237 c 8
 204.512 284.754 213.581 312.021 233.593 360 c 24
 259.942 423.168 271.353 459.057 300.557 522 c 16
 356.232 642 343.82 653.615 302.979 699 c 24
 290.498 712.87 257.073 688.388 248.163 705 c 24
 245.365 710.217 248.109 717.795 254.715 723 c 24
 287.904 749.154 314.026 735.202 347.99 732 c 24
 380.434 728.941 471.817 759 422.255 708 c 1
 369.482 574 338.902 468 277.755 300 c 0
EndSplineSet
EndChar
StartChar: asciicircum
Encoding: 94 94 22
Width: 346
VWidth: 1080
Flags: HW
Fore
216.15 454.9 m 4
 220.9 486.25 227.55 522.35 243.701 567.95 c 5
 284.55 546.1 289.3 469.15 304.5 446.35 c 4
 314.435 431.446 412.949 433.946 407.957 452.05 c 4
 399.649 482.191 390.133 513.425 378.6 546.1 c 12
 356.936 607.484 357.701 635.4 314 700 c 5
 277.9 720.9 249.4 705.7 207.6 684.8 c 5
 146.777 566.879 128.53 529.599 101.73 457.75 c 4
 96.5801 443.942 213.275 435.921 216.15 454.9 c 4
EndSplineSet
EndChar
StartChar: grave
Encoding: 96 96 24
Width: 312
VWidth: 1080
Flags: HW
Fore
368 508 m 12
 372.711 505.002 376.54 506.17 382 505 c 21
 382.011 568.333 339.478 598.496 314 650 c 13
 280.85 683.54 271.927 716.477 229 736 c 28
 194.853 751.53 158.656 769.368 133 742 c 28
 120.362 728.519 130.043 711.163 139 695 c 28
 163.18 651.365 199.363 645.558 238 614 c 28
 288.665 572.617 302 550 368 508 c 12
EndSplineSet
EndChar
StartChar: a
Encoding: 97 97 3
Width: 457
VWidth: 1000
Flags: HW
Fore
160 98 m 28
 199.262 78.2158 227.977 118.155 262 146 c 28
 314.637 189.078 335.783 225.064 366 286 c 28
 379.708 313.645 394.024 331.737 388 362 c 28
 385.075 376.695 378.539 388.377 364 392 c 28
 327.727 401.039 305.563 376.882 276 354 c 28
 233.803 321.339 220.45 291.143 192 246 c 28
 171.542 213.538 153.093 196.031 148 158 c 28
 144.833 134.348 138.689 108.739 160 98 c 28
196 16 m 28
 167.829 4.2845 147.974 4.30715 118 10 c 28
 88.1826 15.6631 64.3504 18.4312 48 44 c 28
 26.1445 78.1768 36.7035 108.512 46 148 c 28
 63.749 223.391 91.1644 262.314 138 324 c 28
 180.045 379.377 208.055 410.773 268 446 c 28
 301.177 465.497 323.583 478.229 362 476 c 28
 397.896 473.918 410.259 434.077 446 438 c 28
 469.261 440.554 470.74 476.553 494 474 c 28
 515.445 471.646 527.093 453.377 530 432 c 21
 519.006 350.056 469.859 315.696 440 240 c 13
 422.676 200.622 393.761 180.811 398 138 c 28
 399.663 121.208 408.897 112.632 422 102 c 28
 431.785 94.0605 445.597 100.854 452 90 c 28
 461.586 73.751 455.048 58.5541 446 42 c 28
 437.234 25.9629 427.042 18.6017 410 12 c 28
 377.237 -0.691406 349.244 -11.4733 320 8 c 28
 299.255 21.8135 300.01 43.1574 298 68 c 28
 296.335 88.584 305.079 99.5556 308 120 c 20
 312 148 275.824 86.2668 254 66 c 28
 232.116 45.6777 223.575 27.4678 196 16 c 28
EndSplineSet
EndChar
StartChar: b
Encoding: 98 98 4
Width: 411
VWidth: 1000
Flags: HW
Fore
171.599 44.1504 m 28
 237.94 47.4844 260.887 100.533 304.599 150.55 c 21
 323.273 179.83 331.197 198.916 355.898 236.05 c 13
 366.479 270.081 384.477 299.926 361.599 327.25 c 28
 346.994 344.692 325.658 339.651 303.648 333.9 c 28
 255.894 321.42 235.859 294.793 201.049 259.8 c 28
 171.828 230.426 151.943 212.807 139.299 173.35 c 28
 126.408 133.128 119.114 102.152 139.299 65.0498 c 28
 146.469 51.8701 156.614 43.3965 171.599 44.1504 c 28
61.3984 6.15039 m 28
 37.7324 20.8379 40.5371 44.3965 27.1982 68.8496 c 21
 59.4531 193.195 74.7363 198.582 89.8984 262.65 c 13
 192.499 562.85 l 21
 208.466 611.272 213.971 635.582 255.198 682.55 c 13
 226.3 686.996 200.137 671.759 181.099 693.95 c 28
 170.966 705.76 171.04 721.977 181.099 733.85 c 28
 207.319 764.803 243.685 744.281 283.698 750.95 c 21
 310.238 747.18 324.584 757.352 380.599 743.35 c 5
 400.359 725.356 408.63 704.947 372.999 676.85 c 13
 359.66 670.922 345.56 674.585 338.799 661.65 c 20
 295.099 578.05 284.326 531.843 249.499 448.85 c 21
 242.397 417.592 242.535 434.083 203.898 346.25 c 13
 241.898 342.45 l 21
 285.618 370.994 286.15 385.522 329.299 391.85 c 5
 345.049 394.14 394.351 406.231 426.198 374.75 c 5
 459.087 337.969 436.667 298.257 428.099 249.35 c 5
 393.57 152.938 360.624 133.326 314.099 74.5498 c 13
 271.861 45.6514 254.979 14.6074 205.799 0.450195 c 28
 151.639 -15.1416 109.285 -23.5703 61.3984 6.15039 c 28
EndSplineSet
EndChar
StartChar: c
Encoding: 99 99 5
Width: 334
VWidth: 1000
Flags: HW
Fore
342 348 m 28
 378.762 357.734 393.436 399.16 384 436 c 28
 378.038 459.277 357.108 465.412 334 472 c 28
 295.654 482.934 267.61 482.939 232 465 c 28
 145.033 421.19 133.18 349.1 70 275 c 21
 44.2605 206.769 29.4811 152.762 53 69 c 13
 82.25 45.21 91.4023 17.0613 128 8 c 28
 174.328 -3.4707 209.637 3.60808 248 32 c 28
 275.771 52.5527 304.374 78.5822 290 110 c 28
 281.024 129.618 257.52 123.51 236 122 c 28
 216.056 120.601 207.115 98.141 188 104 c 21
 156.429 108.195 142.885 126.347 144 166 c 13
 136.792 197.632 147.055 217.459 158 248 c 21
 177.068 299.392 182.21 330.81 230 374 c 13
 251.744 387.973 271.013 386.609 296 380 c 28
 317.127 374.412 320.874 342.406 342 348 c 28
EndSplineSet
EndChar
StartChar: d
Encoding: 100 100 6
Width: 444
VWidth: 1000
Flags: HW
Fore
122 84 m 28
 166.335 54.9474 201.1 118.105 236 158 c 28
 268.391 195.027 282.807 223.333 290 272 c 28
 292.307 287.605 295.133 300.825 284 312 c 28
 262.277 333.804 233.339 338.137 206 324 c 21
 176.883 275.802 166.688 237.947 140 192 c 13
 126.795 151.393 86.2842 107.404 122 84 c 28
86 5 m 28
 51.9043 15.1836 30.2069 33.9111 20 68 c 28
 8.05957 107.877 28.4975 133.368 44 172 c 28
 69.0088 234.322 97.6797 262.28 132 320 c 21
 180.805 379.243 212.813 419.205 274 458 c 5
 340.348 476.147 366.832 455.622 386 428 c 5
 401.359 469.299 403.587 495.495 417 538 c 28
 429.435 577.404 409.752 555.567 452 638 c 13
 420.8 645.02 385.882 627.19 372 656 c 28
 359.583 681.771 391.52 696.26 404 722 c 21
 419.73 744.101 440.346 755.91 560 746 c 5
 602.01 709.913 565.349 663.04 550 610 c 5
 493.602 500.306 455.274 435.616 424 318 c 5
 408.28 268.435 383.149 245.886 364 192 c 5
 396.397 150.465 441.208 145.971 444 102 c 5
 408.053 63.4289 372.144 23.8142 328 0 c 13
 256 18 l 21
 242.374 50.1162 271.352 80.7403 262 120 c 5
 254 166 225.696 47.8581 184 23 c 28
 150.622 3.10156 123.234 -6.12129 86 5 c 28
EndSplineSet
EndChar
StartChar: e
Encoding: 101 101 7
Width: 310
VWidth: 1000
Flags: HW
Fore
214 284 m 28
 246.42 286.396 268.651 298.508 286 326 c 28
 301.037 349.829 309.754 376.119 292 398 c 28
 280.113 412.649 261.844 410.122 244 404 c 28
 218.959 395.408 208.492 379.341 196 356 c 21
 191.93 334.96 190.641 316.983 184 296 c 13
 190.002 284.92 201.433 283.071 214 284 c 28
274 150 m 28
 285.469 148.293 287.42 137.8 296 130 c 21
 299.871 101.18 238.052 59.2793 186 32 c 13
 151.68 25.7598 131.011 4.72752 98 16 c 28
 68.208 26.1738 53.1507 45.878 44 76 c 28
 28.8818 125.765 48.4944 158.053 63 208 c 28
 81.8408 272.875 94.8026 310.98 134 366 c 28
 165.696 410.492 185.399 441.413 236 462 c 28
 276.827 478.61 317.559 494.89 349 464 c 28
 380.715 432.842 364.567 391.646 349 350 c 28
 333.803 309.346 309.614 293.456 276 266 c 28
 228.12 226.892 169.155 241.397 138 188 c 28
 122.67 161.726 124.822 137.418 138 110 c 28
 144.49 96.4951 153.028 86.5991 168 86 c 28
 199.992 84.7197 208.191 116.131 236 132 c 28
 250.242 140.128 257.78 152.414 274 150 c 28
EndSplineSet
EndChar
StartChar: f
Encoding: 102 102 8
Width: 304
VWidth: 1000
Flags: HW
VStem: 70 93<94.5219 277.665>
Fore
-247 -221 m 9
 -244.66 -192.92 -260.791 -169.057 -241 -149 c 24
 -223.938 -131.708 -202.068 -135.385 -179 -143 c 24
 -158.547 -149.752 -159.428 -177.824 -138 -180 c 24
 -92.084 -184.663 -75.7803 -143.4 -36 -120 c 17
 18.1628 -24.9357 34.0066 67.3613 66 150 c 1
 103.603 240.476 126.522 283.202 164 380 c 9
 156.98 389.36 156.465 398.768 146 404 c 24
 127.163 413.418 113.06 404 92 404 c 17
 91.3137 443.886 119.236 468.454 134 482 c 9
 194 488 l 17
 216.334 534.907 212.934 579.64 242 626 c 9
 274.76 665.78 282.139 700.947 326 728 c 24
 363.444 751.096 392.013 753.776 436 753 c 24
 477.144 752.273 512.9 758.608 538 726 c 24
 551.084 709.002 548.878 689.487 538 671 c 24
 525.782 650.236 507.985 638.743 484 641 c 24
 465.805 642.712 462.156 659.441 448 671 c 24
 436.395 680.477 431.977 689.602 418 695 c 24
 400.503 701.758 388.72 696.83 370 698 c 17
 342.555 662.286 339.195 635.718 322 596 c 9
 310.3 560.9 304 544 292 506 c 8
 289.64 498.525 293.22 493.8 294 486 c 17
 310.776 467.905 363.057 510.576 388 470 c 9
 378.64 448.94 382.45 429.811 364 416 c 24
 335.651 394.78 308.93 409.815 274 404 c 24
 262.23 402.04 255.7 400.34 244 398 c 17
 220.406 314.632 196.399 238.561 154 140 c 9
 132.94 88.5195 123.33 58.4922 100 8 c 24
 67.9541 -61.3545 56.1759 -105.134 10 -166 c 24
 -18.3525 -203.373 -43.6797 -216.02 -78 -248 c 17
 -132.959 -259.715 -208.397 -257.407 -247 -221 c 9
EndSplineSet
KernsSLIF: 102 -75 0 0
EndChar
StartChar: g
Encoding: 103 103 9
Width: 360
VWidth: 1000
Flags: HW
HStem: 452 20G<-49 -14>
Fore
163 136 m 28
 200.514 145.127 205.7 178.7 233 206 c 21
 242.416 251.326 260.458 280.991 239 320 c 28
 232.099 332.546 221.083 335.412 207 338 c 28
 191.485 340.852 179.588 341.507 167 332 c 28
 130.092 304.124 127.47 269.272 118 224 c 28
 112.091 195.749 101.807 173.183 119 150 c 28
 129.728 135.536 145.503 131.743 163 136 c 28
1 -120 m 28
 -4.6582 -133.061 -1.45605 -144.551 7 -156 c 28
 25.6514 -181.253 48.6172 -184.095 79 -192 c 21
 116.135 -197.538 139.454 -212.96 211 -198 c 13
 235.539 -176.17 232.748 -142.821 217 -114 c 28
 202.941 -88.2705 179.112 -86.3301 151 -78 c 28
 121.747 -69.332 102.519 -64.2861 73 -72 c 28
 40.3486 -80.5332 14.416 -89.0332 1 -120 c 28
-81 -190 m 28
 -94.0479 -165.136 -94.25 -142.758 -81 -118 c 28
 -61.0947 -80.8066 -26.6465 -80.5586 9 -58 c 28
 24.373 -48.2715 36.1924 -46.9199 49 -34 c 28
 59.8311 -23.0742 69.3359 -15.3799 69 0 c 28
 68.248 34.3916 25 38 21 74 c 5
 67 92 72.6094 69.5332 87 92 c 28
 94.6777 103.985 87.5127 115.344 81 128 c 28
 71.9141 145.655 50.8682 145.031 45 164 c 28
 33.7422 200.391 49.4785 224.389 63 260 c 28
 82.373 311.023 90.1133 348.953 135 380 c 28
 178.033 409.765 217.814 421.849 267 404 c 28
 284.18 397.766 279.111 371.742 297 368 c 28
 317.486 363.715 324.416 388.212 345 392 c 28
 368.128 396.256 388.397 402.655 405 386 c 28
 422.15 368.795 424.579 344.144 411 324 c 28
 398.723 305.787 376.768 298.424 357 308 c 28
 345.659 313.494 357.034 334.263 345 338 c 28
 328.886 343.005 323.04 323.36 309 314 c 21
 306.083 297.403 316.374 235.272 285 170 c 5
 265.717 145.131 258.62 125.16 219 112 c 13
 201.909 102.61 187.033 109.1 171 98 c 28
 151.761 84.6807 144.206 71.5137 135 50 c 28
 129.4 36.9141 122.635 26.7314 129 14 c 28
 160.827 -49.6553 249.141 -12.4434 291 -70 c 28
 316.115 -104.534 322.031 -137.336 309 -178 c 28
 300.921 -203.211 283.957 -212.814 261 -226 c 28
 221.134 -248.897 192.74 -251.368 147 -256 c 28
 91.0391 -261.666 56.2139 -266.221 3 -248 c 28
 -34.6641 -235.104 -62.502 -225.252 -81 -190 c 28
EndSplineSet
EndChar
StartChar: h
Encoding: 104 104 10
Width: 418
VWidth: 1000
Flags: HW
VStem: 112.377 80.066<171.015 327.066 436.924 618.469>
Fore
74.1709 16.1846 m 13
 12.7256 38.5293 l 21
 28.4961 107.631 56.2842 130.561 73.2402 187.489 c 13
 122.62 313.844 147.604 386.282 199.855 511.478 c 28
 213.631 544.479 229.672 560.285 237.096 595.268 c 28
 242.071 618.709 250.53 636.869 237.096 656.713 c 28
 227.23 671.285 202.224 657.335 195.201 673.471 c 28
 185.568 695.605 199.619 715.026 217.546 731.192 c 28
 235.99 747.83 254.162 747.266 278.991 747.951 c 28
 310.172 748.812 336.538 754.563 357.195 731.192 c 28
 373.61 712.622 376.375 688.61 362.781 667.885 c 28
 355.224 656.364 339.368 666.082 329.266 656.713 c 21
 296.84 606.916 290.573 551.372 256.647 483.548 c 13
 232.798 424.972 223.469 419.942 197.063 332.725 c 13
 214.128 347.248 224.167 354.971 240.82 369.965 c 28
 248.645 377.011 250.729 384.352 260.371 388.585 c 28
 320.344 414.923 376.077 439.751 427.951 399.758 c 28
 461.337 374.018 452.678 335.564 448.434 293.623 c 28
 441.55 225.597 418.605 188.994 381.4 131.629 c 28
 350.376 83.792 327.796 57.8594 280.854 25.4951 c 28
 257.536 9.41992 242.098 -4.02441 213.821 -2.43457 c 28
 191.428 -1.17578 175.973 6.82227 163.547 25.4951 c 28
 152.618 41.9189 151.981 56.9697 157.961 75.7686 c 28
 165.914 100.768 176.669 122.415 202.649 126.043 c 28
 230.781 129.971 236 82.7598 264.096 86.9414 c 28
 303.828 92.8535 309.1 131.553 331.127 165.145 c 28
 346.621 188.774 355.47 203.021 362.781 230.315 c 28
 370.692 259.851 379.055 279.87 368.367 308.519 c 28
 361.906 325.839 353.258 340.325 334.851 342.035 c 28
 284.913 346.677 264.728 304.327 228.717 269.417 c 28
 195.137 236.863 185.556 210.354 157.961 172.593 c 21
 117.09 114.016 111.985 40.8926 74.1709 16.1846 c 13
EndSplineSet
EndChar
StartChar: i
Encoding: 105 105 11
Width: 244
VWidth: 1000
Flags: HW
VStem: 109.773 65.1605<99.5744 104.461> 109.773 69.233<104.461 169.171>
Fore
229.581 554.501 m 28
 249.769 548.699 264.668 541.621 283.339 551.244 c 28
 299.321 559.48 301.852 573.363 307.774 590.34 c 28
 318.936 622.335 325.525 643.743 317.548 676.677 c 28
 314.312 690.035 309.896 699.114 298 706 c 28
 273.201 720.354 251.516 720.965 224.693 710.887 c 28
 201.985 702.354 190.648 689.032 180.711 666.903 c 28
 167.415 637.295 160.084 612.208 175.824 583.824 c 28
 187.406 562.939 206.63 561.1 229.581 554.501 c 28
EndSplineSet
Ref: 305 305 S 1 0 0 1 0 0
EndChar
StartChar: j
Encoding: 106 106 12
Width: 286
VWidth: 1000
Flags: HW
VStem: 164 98<-96 374>
Fore
316 572 m 28
 302 573 292 574 282 584 c 28
 272 594 271 604 270 618 c 28
 270 634 272 645 282 658 c 28
 293 672 304 679 322 681 c 28
 345 683 363 681 378 663 c 28
 394 647 397 628 390 607 c 28
 384 591 372 587 358 580 c 28
 343 573 332 571 316 572 c 28
EndSplineSet
Ref: 63166 63166 S 1 0 0 1 0 0
EndChar
StartChar: k
Encoding: 107 107 13
Width: 399
VWidth: 1000
Flags: HW
VStem: 81 90<274 647.195> 81 104<57 197>
Fore
220 276 m 9
 236.38 274.44 245.843 268.886 262 272 c 24
 290.432 277.479 308.264 284.814 328 306 c 24
 344.196 323.386 363.399 341.152 352 362 c 24
 340.619 382.814 315.4 368.1 292 372 c 17
 255.974 350.812 215.743 317.547 220 276 c 9
103 0 m 17
 64.6719 -12.332 36.7619 4.42819 22 42 c 1
 45.0618 142.995 110.703 173.507 104 226 c 9
 206 486 l 17
 220.074 556.01 252.322 615.438 290 696 c 9
 254.9 700.68 214.807 675.834 200 708 c 24
 192.808 723.624 208.887 736.789 224 745 c 24
 254.842 761.757 278.937 746.591 314 745 c 24
 339.819 743.829 354.26 741.34 380 739 c 17
 396.541 704.566 396.501 673.458 380 658 c 1
 332.476 561.365 311.295 540.778 284 490 c 9
 281.66 462.7 240 388 278 420 c 8
 297.064 436.054 313.336 438.411 338 442 c 24
 375.122 447.402 409.083 464.043 434 436 c 24
 462.02 404.465 447.905 365.193 428 328 c 24
 409.598 293.614 378.472 292.34 348 268 c 24
 332.003 255.222 323.6 247.26 308 234 c 17
 307.969 154.941 311.07 186.55 320 100 c 9
 329.36 88.2998 330.989 77.4317 344 70 c 24
 358.367 61.793 376.072 77.2372 386 64 c 24
 395.928 50.7627 392.176 33.2037 380 22 c 24
 350.676 -4.98242 316.798 6.90778 278 16 c 24
 259.632 20.3047 252.38 30.6396 236 40 c 17
 228.085 130.223 245.782 134.318 230 196 c 9
 176 202 l 17
 157.407 146.056 160.184 106.861 131 58 c 9
 103 0 l 17
EndSplineSet
EndChar
StartChar: l
Encoding: 108 108 14
Width: 267
VWidth: 1000
Flags: HW
VStem: 105.217 109.25<98.9 694.55>
Fore
226.317 149.25 m 28
 242.541 151.329 258.772 153.788 267.167 139.75 c 28
 276.622 123.937 259.634 111.934 254.817 94.1504 c 21
 216.729 72.3711 189.04 63.1855 152.217 37.1504 c 13
 116.648 23.8115 98.9727 4.47754 61.0166 2.9502 c 28
 44.8467 2.29883 36.6777 9.9043 21.1172 14.3496 c 21
 19.4141 54.8105 32.3994 88.6592 43.917 134.05 c 13
 96.5273 254.093 124.877 322.399 178.817 441.85 c 28
 212.449 516.327 249.522 552.059 267.167 631.85 c 28
 269.406 641.979 272.726 649.691 267.167 658.45 c 28
 255.978 676.082 227.915 662.502 218.717 681.25 c 28
 209.689 699.649 214.824 718.905 230.117 732.55 c 28
 261.808 760.824 302.709 766.942 338.417 743.95 c 21
 401.789 729.617 381.006 687.982 372.617 641.35 c 5
 328.706 532.299 291.25 469.813 252.917 356.35 c 13
 221.795 285.214 201.618 246.176 173.117 173.95 c 28
 163.31 149.098 125.84 98.6416 150.317 109.35 c 20
 180.717 122.65 193.112 144.994 226.317 149.25 c 28
EndSplineSet
EndChar
StartChar: m
Encoding: 109 109 15
Width: 699
VWidth: 1000
Flags: HW
VStem: 49 106<119 331> 556 98<137 174.092 137 348> 557 97<123 137>
Fore
108 8 m 1
 68.1024 7.3448 44.1024 21.3448 36 50 c 1
 56.9661 118.24 68.5443 130.349 94 180 c 9
 122.08 229.14 148.103 252.308 166 306 c 24
 171.966 323.897 181.586 337.751 172 354 c 24
 165.598 364.854 154.581 365.28 142 366 c 24
 115.363 367.523 101.74 355.02 76 348 c 17
 62.4905 414.193 176.102 469.834 196 488 c 1
 228.664 511.473 257.475 525.09 294 482 c 1
 319.186 450.02 301.644 426.031 292 400 c 1
 302 386 349.95 445.14 387 474 c 17
 426.141 502.636 456 502 497 474 c 1
 524.153 453.178 480.493 411.082 498 398 c 9
 539.34 426.08 556.685 453.914 604 470 c 24
 641.729 482.826 675.457 501.594 706 476 c 24
 736.7 450.274 727.202 412.982 718 374 c 24
 704.281 315.888 665.998 296.412 634 246 c 17
 614.192 213.057 606.035 211.571 580 158 c 9
 578.931 145.444 587.32 139.7 592 128 c 17
 623.963 125.941 628 176 676 188 c 9
 692.38 180.98 725.646 186.098 718 170 c 16
 699 130 674.766 107.443 640 74 c 24
 614.703 49.667 596.08 41.0596 568 20 c 17
 541.342 11.0233 504.292 -0.0816997 472 26 c 1
 460.502 50 454.18 74 479 98 c 1
 515.459 173.912 552.576 204.098 581 272 c 1
 594.782 296 608.792 314.435 616 344 c 1
 609.271 367.978 586.72 370.909 568 368 c 1
 495.984 332.05 477.569 246.553 418 170 c 1
 370.436 121.468 345.969 51.7305 296 5 c 1
 269.893 -8.36228 243.904 -0.327651 218 23 c 1
 270.41 146.341 299.43 151.331 347 236 c 24
 368.958 275.084 406.836 293.694 400 338 c 24
 396.972 357.623 383.839 373.197 364 374 c 24
 302.628 376.484 282.315 320.007 244 272 c 24
 206.133 224.554 200.08 187.82 172 134 c 17
 141.364 93.3569 146.591 45.6401 108 8 c 1
EndSplineSet
EndChar
StartChar: n
Encoding: 110 110 16
Width: 474
VWidth: 1000
Flags: HW
VStem: 51 106<119 331>
Fore
141 1 m 5
 94.4527 -6.03116 53.9396 1.16157 39 69 c 5
 60.1943 152.886 92.7938 159.735 112 206 c 13
 128.77 243.44 152.963 261.026 155 302 c 28
 155.735 316.781 156.657 332.299 143 338 c 28
 113.706 350.229 99.0213 289.138 70 302 c 28
 54.4258 308.902 62.6797 327.62 58 344 c 21
 85.9979 394.126 128.566 414.583 166 452 c 5
 205.78 474.715 232.548 498.301 268 476 c 13
 274.24 455.72 283.093 445.199 284 424 c 28
 285.263 394.5 274.24 378.86 268 350 c 21
 282.287 377.589 315.051 400.583 364 445 c 13
 393.64 453.19 413.285 481.228 440 466 c 28
 489.151 437.983 483.609 382.297 478 326 c 28
 472.812 273.934 433.163 256.079 418 206 c 28
 412.533 187.943 394.825 150.193 412 158 c 20
 434 168 440.613 177.835 457 170 c 28
 477.792 160.059 485.483 138.606 481 116 c 28
 474.399 82.7178 444.658 76.9899 418 56 c 28
 395.392 38.1992 380.18 31.5996 356 16 c 21
 324.689 15.6553 297.589 5.94003 262 14 c 5
 253.626 26.5706 244.175 35.7728 244 74 c 5
 296.938 191.466 329.664 162.058 344 200 c 13
 351.41 239.78 355.01 262.332 363 302 c 28
 367.728 325.472 380.48 338.479 376 362 c 20
 368 404 314.412 320.745 286 284 c 28
 232.229 214.458 225 160.78 186 82 c 21
 156.531 48.5762 169.788 8.38281 141 1 c 5
EndSplineSet
EndChar
StartChar: o
Encoding: 111 111 17
Width: 328
VWidth: 1000
Flags: HW
Fore
132 80 m 28
 149.104 67.4932 167.601 75.4902 186 86 c 28
 221.558 106.311 229.356 134.069 249 170 c 28
 275.758 218.942 291.733 248.695 299 304 c 28
 301.654 324.2 308.299 341.487 294 356 c 28
 279.128 371.094 259.862 369.383 240 362 c 28
 198.096 346.424 184.287 316.754 162 278 c 28
 133.954 229.232 122.757 196.189 120 140 c 28
 118.831 116.165 112.737 94.085 132 80 c 28
72 46 m 28
 43.3047 75.0967 46.877 107.149 48 148 c 28
 49.5195 203.266 62.5322 234.929 88 284 c 28
 121.5 348.549 137.197 401.256 204 430 c 28
 253.624 451.353 301.586 453.849 342 418 c 28
 367.635 395.261 361.697 366.225 360 332 c 28
 355.503 241.329 335.839 188.359 290 110 c 28
 264.087 65.7021 249.23 28.4951 200 14 c 28
 150.639 -0.533203 108.132 9.36328 72 46 c 28
EndSplineSet
EndChar
StartChar: p
Encoding: 112 112 18
Width: 372
VWidth: 1000
Flags: HW
VStem: 71 97<124 339> 71 129<-178 -4>
Fore
278 408 m 21
 230.851 367.833 233.121 313.399 212 252 c 5
 202.363 208.33 192.458 195.914 187 139 c 13
 210.01 132.37 223.417 114.036 246 122 c 28
 288.244 136.898 286.26 179.34 312 216 c 21
 332.107 269.292 341.305 293.878 348 366 c 13
 340.98 384.72 347.06 403.574 330 414 c 28
 312.581 424.646 298.28 410.34 278 408 c 21
-66 -266 m 13
 -90 -194 l 21
 -71.2432 -177.106 -27.3807 -208.858 0 -182 c 5
 45.8066 -62.0059 63.275 5.26299 104 122 c 13
 134.42 232.37 164 347 182 405 c 12
 196.876 452.934 142 360 82 324 c 12
 61.8896 311.934 84.4404 360.6 86 384 c 21
 137.426 443.327 183.856 442.124 212 498 c 13
 221.36 533.1 206.687 566.544 236 588 c 28
 263.094 607.832 288.46 585.56 322 584 c 21
 328 540 312.704 515.434 302 478 c 13
 330.08 461.62 356.354 463.302 374 436 c 28
 422.535 360.908 420.544 294.522 398 208 c 28
 385.723 160.881 363.305 137.293 326 106 c 28
 292.317 77.7451 259.108 84.4632 224 58 c 28
 184.272 28.0547 172.76 -0.55957 140 -38 c 21
 115.676 -84.3525 89.0391 -128.317 84 -178 c 13
 105.84 -183.46 129.167 -172.266 140 -192 c 28
 150.683 -211.46 138.967 -231.685 122 -246 c 28
 90.6357 -272.464 58.5596 -255.76 18 -262 c 21
 -8.05356 -261.997 12.6107 -258.827 -66 -266 c 13
EndSplineSet
EndChar
StartChar: q
Encoding: 113 113 19
Width: 420
VWidth: 1000
Flags: HW
VStem: 299 94<131 458>
Fore
194 98 m 17
 260.897 109.89 275.682 178.979 325 236 c 9
 343.72 278.12 368.196 298.158 373 344 c 24
 376.324 375.723 384.887 410.475 356 424 c 24
 327.245 437.464 308.79 405.839 284 386 c 24
 251.171 359.728 235.083 340.381 214 304 c 24
 180.353 245.938 143.704 207.971 156 142 c 24
 160.154 119.71 179.18 115.16 194 98 c 17
92 -254 m 9
 87.3203 -230.6 66.4901 -213.671 80 -194 c 24
 95.6807 -171.168 128.243 -199.142 150 -182 c 24
 188.012 -152.051 179.89 -112.46 199 -68 c 17
 221.154 -13.5527 227.954 7.97592 272 58 c 9
 239.24 53.3203 220.884 49.7158 188 46 c 24
 160.001 42.8359 142.194 29.616 116 40 c 24
 86.7344 51.6016 73.6119 70.7381 62 100 c 24
 43.0068 147.862 44.769 182.512 59 232 c 24
 81.7188 311.006 119.551 347.308 175 408 c 24
 198.211 433.406 213.183 447.683 244 463 c 24
 280.762 481.272 305.003 486.87 346 489 c 24
 388.907 491.229 424.288 503.047 455 473 c 24
 473.378 455.021 448.29 426.638 466 408 c 24
 480.86 392.361 507.595 413.651 520 396 c 24
 530.625 380.881 527.205 361.927 514 349 c 24
 495.503 330.893 473.74 344.73 448 342 c 17
 410.142 295.623 419.103 231.067 388 162 c 9
 371.62 124.56 360.574 104.18 346 66 c 24
 318.774 -5.32129 304.547 -46.2031 285 -120 c 24
 279.497 -140.776 262.733 -155.697 274 -174 c 24
 287.986 -196.721 321.795 -172.496 340 -192 c 24
 356.283 -209.444 347.32 -228.6 352 -252 c 17
 330.209 -263.916 270.043 -246.199 214 -252 c 1
 166.415 -241.963 129.047 -263.382 92 -254 c 9
EndSplineSet
KernsSLIF: 117 27 0 0
EndChar
StartChar: r
Encoding: 114 114 20
Width: 340
VWidth: 1000
Flags: HW
Fore
76 20 m 24
 55.3408 16.6475 35.5952 24.4972 28 44 c 24
 13.3066 81.7285 47.3369 104.567 65 141 c 24
 94.5283 201.906 135.996 224.751 154 290 c 24
 163.336 323.836 185.569 364.657 154 380 c 24
 116.529 398.212 102.76 339.74 70 314 c 17
 56.1199 369.568 124 416 124 416 c 9
 141.16 427.7 147.846 440.985 168 446 c 24
 195.417 452.822 218.916 456.807 240 438 c 24
 260.898 419.359 249.76 395.3 256 368 c 17
 300.171 386.083 301.699 415.045 328 422 c 9
 347.5 430.58 356.722 442.943 378 444 c 24
 396.847 444.937 415.252 445.72 424 429 c 24
 439.102 400.139 417.595 376.412 400 349 c 24
 390.745 334.581 384.042 318.236 367 320 c 24
 349.543 321.808 357.531 355.194 340 356 c 24
 273.802 359.045 265.763 283.013 226 230 c 24
 183.135 172.853 174.279 130.06 130 74 c 24
 111.539 50.6279 105.398 24.7707 76 20 c 24
EndSplineSet
EndChar
StartChar: s
Encoding: 115 115 21
Width: 277
VWidth: 1080
Flags: HW
Fore
46 28 m 28
 18.1035 53.0811 19.1143 92.8389 40 124 c 28
 52.1543 142.133 71.7402 146.955 93 142 c 28
 105.892 138.995 104.771 123.065 117 118 c 28
 134.295 110.836 152.356 104.195 165 118 c 28
 222.117 180.361 134.938 251.641 146 334 c 12
 149.492 360.001 146.782 376.784 159 400 c 28
 170.688 422.209 181.131 435.664 204 446 c 28
 244.57 464.336 284.586 481.422 318 452 c 28
 345.591 427.706 348.638 386.154 325 358 c 28
 309.879 339.989 287.435 344.95 265 352 c 28
 251.279 356.312 251.156 378.54 237 376 c 28
 213.287 371.745 203.802 345.879 207 322 c 28
 210.038 299.312 239.368 301.2 248 280 c 28
 271.826 221.484 268.43 177.785 248 118 c 28
 234.605 78.8027 219.78 53.0547 183 34 c 28
 135.513 9.39844 85.7705 -7.75684 46 28 c 28
EndSplineSet
EndChar
StartChar: t
Encoding: 116 116 22
Width: 292
VWidth: 1080
Flags: HW
VStem: 64 88<157 355>
Fore
246 172 m 28
 263.914 166.084 272.787 148.658 270 130 c 28
 261.93 75.9717 214.899 62.0123 168 34 c 28
 142.589 18.8223 124.807 3.19965 96 10 c 28
 69.1602 16.3359 52.8974 33.2988 46 60 c 28
 28.3408 128.362 71.8542 167.651 96 234 c 28
 111.763 277.313 131.53 297.626 144 342 c 28
 148.895 359.417 161.937 374.405 150 388 c 28
 134.561 405.584 104.528 369.656 90 388 c 28
 73.085 409.357 85.7351 437.79 106 456 c 28
 129.388 477.016 154.8 462.1 186 466 c 21
 206.061 491.102 201.427 493.008 216 568 c 13
 236.28 580.48 244.2 600.77 268 600 c 28
 290.929 599.259 297.28 579.26 316 566 c 21
 336.704 525.598 292.717 497.982 300 450 c 13
 321.06 449.22 340.756 464.393 354 448 c 28
 370.924 427.053 362.142 397.874 342 380 c 28
 320.965 361.333 298.08 377.56 270 376 c 21
 233.648 319.451 184.669 258.869 162 172 c 13
 162.78 157.96 152.018 143.36 164 136 c 28
 193.761 117.721 212.836 182.953 246 172 c 28
EndSplineSet
EndChar
StartChar: u
Encoding: 117 117 23
Width: 438
VWidth: 1080
Flags: HW
VStem: 47 93<142 375> 291 86<127 394>
Fore
88 343 m 28
 71.0244 351.231 75.6932 373.22 82 391 c 28
 95.3701 428.694 118.893 447.077 156 462 c 28
 199.421 479.461 229.2 462 276 462 c 21
 288.255 418.701 243.568 384.869 228 336 c 5
 206.591 270.413 181.913 255.139 156 162 c 5
 152.095 119.321 184.724 131.1 210 144 c 5
 284.71 193.092 332.881 261.959 366 342 c 5
 391.921 385.724 390.06 441.585 438 474 c 5
 456 481.785 474 492.932 492 462 c 5
 503.477 382.704 436.608 335.022 405 252 c 13
 389.01 209.88 362.162 189.016 364 144 c 28
 364.74 125.873 366.186 105.435 384 102 c 28
 424.65 94.1621 420.772 177.76 462 174 c 28
 473.651 172.938 472.98 159.36 480 150 c 21
 457.284 90.1843 425.344 64.8381 384 30 c 13
 351.24 18.2998 334.453 -4.80647 300 0 c 28
 280.063 2.78125 265.203 11.2031 258 30 c 28
 247.707 56.8604 267.76 73.9199 274 102 c 21
 275.748 127.737 259.163 126.514 238 114 c 5
 220.966 93.7657 195.659 44.974 138 24 c 13
 116.94 19.3203 103.667 3.13149 84 12 c 28
 53.1289 25.9209 44.3364 54.2158 42 88 c 28
 37.2725 156.354 75.7442 190.043 105 252 c 28
 122.227 288.481 157.461 301.683 156 342 c 28
 155.49 356.053 149.724 368.936 136 372 c 28
 114.654 376.766 107.68 333.458 88 343 c 28
EndSplineSet
EndChar
StartChar: v
Encoding: 118 118 24
Width: 638
VWidth: 1080
Flags: HW
Fore
204 287 m 24
 218.109 257.455 212.147 224.705 186 205 c 24
 156.353 182.657 118.771 186.363 91 211 c 24
 52.4326 245.215 55.6751 290.702 67 341 c 24
 76.5107 383.239 99.0097 402.959 132 431 c 24
 163.895 458.109 190.56 460.28 228 479 c 17
 287.886 484.573 325.602 483.618 386 481 c 9
 482 439 l 17
 450.433 342.681 420.803 331.229 398 265 c 9
 383.96 225.22 347.712 202.691 362 163 c 24
 371.243 137.324 396.615 137.014 422 127 c 24
 442.777 118.804 456.16 119.68 478 115 c 17
 535.65 160.528 576.271 243.1 616 333 c 9
 601.96 344.7 587.169 346.189 580 363 c 24
 564.664 398.962 558.406 436.338 587 463 c 24
 615.523 489.597 658.301 489.407 687 463 c 24
 711.191 440.741 699.106 411.475 694 379 c 24
 677.001 270.889 646.673 211.081 586 120 c 24
 556.492 75.7041 539.12 43.4954 490 23 c 24
 433.852 -0.427734 390.93 1.53995 334 23 c 24
 301.936 35.0869 282.126 49.7804 268 81 c 24
 246.777 127.902 253.885 163.493 268 213 c 24
 282.6 264.205 325.401 277.795 340 329 c 24
 346.202 350.753 351.892 367.758 340 387 c 24
 323.495 413.706 299.159 419.164 268 423 c 24
 246.588 425.636 233.745 419.692 214 411 c 24
 187.857 399.491 165.912 394.961 154 369 c 24
 144.192 347.626 146.655 328.364 160 309 c 24
 170.887 293.202 195.732 304.312 204 287 c 24
EndSplineSet
EndChar
StartChar: w
Encoding: 119 119 25
Width: 917
VWidth: 1080
Flags: HW
Fore
228 258 m 24
 239.2 231.391 244.22 206.395 226 184 c 24
 207.791 161.619 182.014 160.097 154 167 c 24
 115.884 176.393 92.7758 196.63 78 233 c 24
 62.2383 271.798 68.6845 302.341 87 340 c 24
 113.793 395.091 145.157 424.158 202 447 c 24
 250.858 466.634 284.412 451.682 337 449 c 24
 393.863 446.101 447.794 477.516 482 432 c 24
 501.953 405.45 480.484 378.776 468 348 c 24
 449.457 302.286 413.864 289.983 396 244 c 24
 383.457 211.713 380.314 190.441 384 156 c 24
 386.915 128.767 383.054 101.307 408 90 c 24
 449.162 71.3428 480.353 104.221 516 132 c 24
 544.681 154.35 548.94 178.36 570 208 c 17
 608.012 285.593 571.336 357.249 600 426 c 1
 650.666 468.551 683.982 458.395 715 426 c 24
 752.256 387.089 721.173 340.478 709 288 c 24
 701.305 254.825 676.487 241.965 674 208 c 24
 671.402 172.521 671.607 143.851 698 120 c 24
 719.121 100.913 743.287 98.1619 770 108 c 24
 824.543 128.088 828.56 177.54 866 222 c 17
 881.882 255.292 907.41 279.185 896 324 c 9
 877.28 324 862.372 312.005 848 324 c 24
 827.914 340.764 831.738 364.187 836 390 c 24
 839.925 413.77 845.236 431.783 866 444 c 24
 892.218 459.427 921.445 464.412 944 444 c 24
 978.873 412.44 962.583 370.57 956 324 c 24
 948.945 274.091 929.252 249.706 908 204 c 24
 874.456 131.857 866 72 812 24 c 8
 773.242 -10.4521 729.147 -8.54342 680 8 c 24
 646.019 19.4385 630.452 40.1427 614 72 c 24
 599.877 99.3467 622 122 602 150 c 1
 562 120 554.477 87.8282 518 54 c 24
 492.264 30.1328 479.74 9.67659 446 0 c 24
 410.633 -10.1426 383.859 -10.4027 352 8 c 24
 310.03 32.2432 290.931 62.5596 281 110 c 24
 273.181 147.356 286.428 170.328 300 206 c 24
 316.412 249.136 347.874 263.47 360 308 c 24
 364.919 326.062 372.959 342.49 360 356 c 24
 321.091 396.564 266.996 385.639 216 362 c 24
 191.794 350.779 171.831 334.592 174 308 c 24
 176.334 279.394 216.865 284.453 228 258 c 24
EndSplineSet
EndChar
StartChar: x
Encoding: 120 120 26
Width: 506
VWidth: 1080
Flags: HW
HStem: 471 20G<117.5 159.5>
Fore
120 158 m 28
 98.5449 170.856 73.3606 164.919 57 146 c 28
 21.7627 105.252 13.744 46.911 51 8 c 28
 63.1377 -4.67676 78.4502 8 96 8 c 21
 142.323 28.6338 166.737 51.5059 219 93 c 5
 248.666 128.279 269.88 185.01 306 176 c 5
 332.681 133.387 307.21 102.359 324 62 c 13
 335.7 43.2803 334.692 24.7016 354 14 c 28
 378.56 0.387695 400.625 1.97537 426 14 c 28
 456.054 28.2422 462.442 51.7547 480 80 c 28
 494.928 104.013 522.622 120.699 510 146 c 28
 500.369 165.305 476.178 165.633 456 158 c 28
 426.231 146.738 439.732 89.5367 408 92 c 28
 373.916 94.6455 373.256 136.22 368 170 c 28
 364.353 193.44 368.423 208.296 378 230 c 28
 394.819 268.116 410.257 289.562 444 314 c 28
 466.183 330.065 484.837 348.816 510 338 c 28
 527.973 330.275 506 366 530 292 c 12
 545.604 243.887 593.831 357.758 588 408 c 28
 585.542 429.18 573.454 443.98 553 450 c 28
 520.459 459.578 502.37 434.14 470 424 c 21
 376.881 325.807 415.667 335.024 361 316 c 5
 320.608 334.378 359.393 408.099 319 430 c 13
 295.21 432.34 281.111 442.106 258 436 c 28
 210.923 423.562 181.329 405.586 156 364 c 28
 141.253 339.788 121.112 305.575 146 292 c 20
 168 280 178.599 287.104 194 298 c 28
 215.357 313.11 200.826 345.858 224 358 c 28
 238.656 365.68 255.569 364.844 266 352 c 28
 292.608 319.235 271.541 284.303 259 244 c 28
 247.931 208.428 233.113 191.218 210 162 c 28
 186.387 132.149 176.892 84.6388 140 94 c 28
 114.653 100.432 142.432 144.559 120 158 c 28
EndSplineSet
EndChar
StartChar: y
Encoding: 121 121 27
Width: 371
VWidth: 1080
Flags: HW
Fore
114 290 m 9
 103.47 290 94.7489 282.87 87 290 c 24
 66.2646 309.079 71.0149 335.651 81 362 c 24
 94.1963 396.822 116.104 412.581 150 428 c 24
 173.526 438.702 190.26 431.66 216 434 c 17
 264.016 385.382 227.849 217.923 258 122 c 9
 282 124 l 17
 308.414 191.315 312.611 238.163 348 320 c 9
 347.22 334.04 352.507 343.535 346 356 c 24
 335.458 376.194 304.387 369.645 300 392 c 24
 296.366 410.513 307.683 424.531 324 434 c 24
 348.287 448.094 373.472 450.762 396 434 c 24
 415.601 419.417 413.21 398.418 414 374 c 24
 415.009 342.797 406.148 325.524 396 296 c 24
 359.928 191.056 324.219 137.948 276 38 c 24
 264.632 14.4365 260.247 -0.0578612 246 -22 c 24
 196.507 -98.2236 153.304 -129.882 98 -202 c 24
 85.751 -217.974 79.7002 -227.62 68 -244 c 17
 14.9742 -260.946 5.257 -227.332 8 -190 c 1
 52.0229 -111.902 106 -90 156 -24 c 1
 156 -24 175.729 64.1181 162 198 c 1
 157.95 260.445 168.109 292.693 162 366 c 1
 140.93 339.294 135.232 318.744 114 290 c 9
EndSplineSet
EndChar
StartChar: z
Encoding: 122 122 28
Width: 550
VWidth: 1080
Flags: HW
HStem: 470 21G<102.5 175.5>
Fore
149 262 m 9
 128.33 254.98 115.093 233.417 96 244 c 24
 60.2578 263.812 63.2822 306.074 72 346 c 24
 79.5889 380.755 97.756 399.271 128 418 c 24
 164.87 440.832 194.231 447.178 237 440 c 24
 282.516 432.361 297.091 399.331 339 380 c 24
 359.607 370.495 371.334 359.883 394 361 c 24
 415.438 362.057 429.382 368.283 444 384 c 24
 462.155 403.52 445.272 434.068 468 448 c 24
 491.757 462.562 521.134 461.384 539 440 c 24
 561.555 413.004 550.551 380.487 533 350 c 24
 510.011 310.064 472.667 310.543 435 284 c 24
 389.856 252.188 361.514 237.53 321 200 c 24
 299.091 179.704 267.516 171.661 271 142 c 24
 275.041 107.599 310.82 102.816 343 90 c 24
 364.932 81.2656 379.493 79.8228 403 82 c 24
 430.386 84.5361 447.652 87.9687 470 104 c 24
 489.014 117.64 482.659 150.341 506 152 c 24
 525.806 153.407 535.06 134.603 542 116 c 24
 553.479 85.2275 555.843 58.1715 536 32 c 24
 516.473 6.24512 489.526 11.1214 458 4 c 24
 412.122 -6.36328 384.465 -15.2935 338 -8 c 24
 305.217 -2.85449 289.499 10.8018 260 26 c 24
 223.612 44.7471 210.505 85.909 170 80 c 24
 133.397 74.6602 137.524 29.3515 106 10 c 24
 93.5811 2.37695 83.5188 -5.43796 70 0 c 24
 47.2881 9.13574 33.5327 29.9308 38 54 c 24
 49.248 114.604 111.499 116.657 162 152 c 24
 216.802 190.353 255.867 200.091 308 242 c 24
 321.112 252.541 329.272 258.616 338 273 c 24
 344.397 283.544 358.781 297.011 348 303 c 16
 312 323 287.183 342.493 244 358 c 24
 218.517 367.15 198.889 386.463 176 372 c 24
 138.657 348.404 179.607 297.181 149 262 c 9
EndSplineSet
EndChar
StartChar: bar
Encoding: 124 124 30
Width: 263
VWidth: 1080
Flags: HW
VStem: 71 112<402 534.248>
Fore
255 39 m 20
 229 148 242 260.339 242 402 c 20
 242 514 246 687 192 714 c 12
 169.479 725.26 116 722 130 696 c 5
 130 293 139 308 138 49 c 5
 127 23 265.626 -5.54688 255 39 c 20
EndSplineSet
EndChar
StartChar: braceright
Encoding: 125 125 31
Width: 256
Flags: HW
Fore
289.725 357 m 5
 257.827 393 226.021 412.275 237.125 468 c 28
 244.529 505.16 273.607 525.818 304.882 558 c 20
 354.444 609 385.797 689.137 348.213 732 c 28
 328.804 754.135 288.127 749.155 254.938 723 c 28
 248.332 717.795 245.588 710.217 248.386 705 c 28
 257.296 688.388 296.119 716.775 303.202 699 c 28
 332.885 624.509 233.617 582 177.941 462 c 12
 155.901 414.496 172.46 381 213.908 363 c 5
 129.897 330 108.003 289.511 105.048 237 c 20
 100.658 159 148.732 123.396 93.5332 57 c 28
 73.4014 32.7832 40.8389 54.2168 20.7061 30 c 28
 11.5059 18.9336 9.76855 5.36816 18.7871 0 c 28
 47.502 -17.0918 88.9609 6.30957 124.89 36 c 20
 184.172 84.9893 191.286 143.722 183.853 198 c 4
 179.451 230.143 152.522 254.88 175.702 291 c 4
 210.356 345 213.081 336 289.725 357 c 5
EndSplineSet
EndChar
StartChar: asciitilde
Encoding: 126 126 32
Width: 346
VWidth: 1000
Flags: HW
Fore
177.696 404.411 m 28
 204.212 402.803 215.552 387.25 240.181 377.295 c 28
 258.392 369.935 267.865 357.041 287.339 359.61 c 28
 313.967 363.126 316.481 399.994 343.339 399.694 c 28
 364.028 399.464 384.314 388.502 385.78 367.863 c 28
 386.796 353.594 371.138 350.706 359.844 341.926 c 28
 330.707 319.277 315.357 295.376 278.496 293.589 c 28
 232.066 291.341 217.068 346.186 170.622 344.284 c 28
 142.018 343.113 135.223 303.173 106.959 307.737 c 28
 86.8672 310.981 71.7754 326.294 72.1807 346.642 c 28
 72.5811 366.798 90.8975 373.329 108.139 383.779 c 28
 132.336 398.446 149.452 406.123 177.696 404.411 c 28
EndSplineSet
EndChar
StartChar: uni007F
Encoding: 127 127 33
Width: 1597
VWidth: 1000
Flags: W
Fore
1371.96 532 m 8
 1380.35 515.228 1391.96 514 1405.96 498 c 8
 1418.83 483.29 1444.23 503.312 1449.96 522 c 24
 1460.47 556.264 1401.42 568.394 1407.82 603.657 c 24
 1410.29 617.322 1429.95 614.338 1434.21 627.557 c 24
 1437.59 638.057 1437.72 649.521 1428.27 655.21 c 24
 1411.89 665.073 1398.66 649.408 1381.08 641.886 c 24
 1369.86 637.083 1365.86 629.344 1354.13 625.967 c 24
 1328 618.448 1311.56 622.073 1284.45 624.086 c 24
 1249.17 626.704 1221.04 615.811 1195.13 639.894 c 24
 1182.27 651.839 1188.83 666.617 1184.07 683.507 c 24
 1180.37 696.618 1187.21 715.041 1173.72 716.866 c 24
 1158.17 718.969 1158.39 697.328 1152.02 682.991 c 24
 1145.3 667.889 1150.17 655.754 1140.84 642.112 c 24
 1114.65 603.82 1078.42 603.741 1045.27 571.282 c 24
 1010.99 537.713 980.257 520.862 969.962 474 c 16
 954.754 404.771 959.342 390.006 955.726 336.035 c 24
 953.036 295.893 954.748 287.21 952.529 232.924 c 8
 951.358 204.268 984.951 201.705 1008.03 184.678 c 24
 1035.9 164.114 1055.17 157.783 1083.48 137.826 c 16
 1095.68 129.227 1107.54 121.431 1117.96 113.729 c 0
 1128.87 105.673 1138.2 97.7197 1144.73 89.0605 c 8
 1155.14 75.249 1166.52 105.118 1179.96 116 c 24
 1188.9 123.231 1192.16 129.855 1202.35 135.168 c 24
 1221.35 145.067 1236.17 139.729 1255.52 148.91 c 24
 1271.36 156.424 1307.94 168.776 1291.76 175.503 c 16
 1266.98 185.8 1258.71 174.989 1237.61 175.727 c 24
 1220.3 176.331 1194.51 161.366 1193.3 178.643 c 16
 1189.95 226.525 1189.98 304.464 1195.91 384.559 c 24
 1200.2 442.432 1207.2 485.275 1215.96 532 c 0
 1224.11 575.479 1291.96 574 1339.96 566 c 0
 1357.75 563.036 1365.96 544 1371.96 532 c 8
771.962 516 m 0
 763.962 538 755.45 587.645 735.962 630 c 24
 710.042 686.333 702.837 729.547 651.962 765 c 24
 607.533 795.961 570.094 791.506 515.962 793 c 24
 478.912 794.022 457.465 789.644 421.962 779 c 24
 364.3 761.714 333.05 745.84 281.962 714 c 24
 213.006 671.024 173.902 643.764 119.962 583 c 24
 87.8516 546.828 73.9629 522.039 53.9619 478 c 24
 42.1758 452.049 37.2686 436.175 32.9619 408 c 24
 23.0615 343.228 19.5137 304.517 30.9619 240 c 24
 41.8965 178.381 44.8613 135.373 87.9619 90 c 24
 131.979 43.6611 175.92 39.3506 237.962 24 c 24
 313.108 5.40723 358.562 8.62988 435.962 10 c 24
 472.823 10.6523 496.064 5.50391 529.962 20 c 24
 578.813 40.8916 597.962 62 633.962 108 c 8
 671.171 155.545 680.223 171.326 727.962 231 c 0
 735.962 241 754.592 296.152 759.962 292 c 0
 778.04 278.02 790.669 149.135 817.962 123 c 8
 862.034 80.7979 892.234 58.7715 949.962 39 c 24
 1041.12 7.77734 1099.73 10.9834 1195.96 16 c 24
 1259.51 19.3135 1298.81 20.0215 1355.96 48 c 24
 1390.23 64.7764 1405.36 82.833 1429.96 112 c 24
 1483.44 175.396 1522.4 212.943 1539.96 294 c 16
 1565.96 414 1590.7 466.553 1565.96 582 c 0
 1553.96 638 1541.44 666.726 1505.96 708 c 24
 1476.49 742.289 1452.57 757.866 1409.96 773 c 24
 1338.39 798.421 1291.65 796.265 1215.96 790 c 24
 1166.19 785.881 1138.51 776.104 1091.96 758 c 24
 1028.55 733.336 992.215 717.067 937.962 676 c 16
 877.045 629.889 803.962 510 783.962 474 c 0
 780.927 468.536 776.581 503.298 771.962 516 c 0
811.962 376 m 24
 821.594 466.938 866.146 511.15 923.962 582 c 24
 960.711 627.033 988.398 647.637 1037.96 678 c 24
 1093.55 712.055 1127.84 731.223 1191.96 743 c 24
 1266.42 756.678 1314.98 762.345 1385.96 736 c 24
 1423.42 722.097 1445.86 706.53 1465.96 672 c 24
 1513.25 590.767 1510.25 527.785 1503.96 434 c 24
 1496.72 325.912 1478.92 261.353 1423.96 168 c 24
 1402.97 132.351 1385.74 112.768 1349.96 92 c 24
 1309.55 68.543 1280.53 65.8818 1233.96 62 c 24
 1198.07 59.0078 1177.35 63.29 1141.96 70 c 24
 1077.22 82.2764 1036.34 83.8848 979.962 118 c 24
 916.724 156.268 885.245 190.178 847.962 254 c 24
 822.938 296.835 806.736 326.668 811.962 376 c 24
345.962 64 m 24
 296.333 65.9043 268.032 74.4502 221.962 93 c 24
 181.57 109.263 152.416 115.415 125.962 150 c 24
 81.6973 207.87 79.4336 257.225 75.9619 330 c 24
 73.6211 379.06 77.1035 409.534 97.9619 454 c 24
 128.754 519.644 162.766 548.983 217.962 596 c 24
 285.885 653.857 327.817 690.761 413.962 714 c 24
 464.424 727.613 499.385 731.287 547.962 712 c 24
 594.143 693.664 614.677 667.526 641.962 626 c 24
 678.67 570.132 681.644 528.826 697.962 464 c 24
 711.077 411.896 727.485 381.2 719.962 328 c 24
 712.291 273.761 693.19 244.551 659.962 201 c 24
 620.703 149.546 592.769 120.029 533.962 93 c 24
 466.555 62.0166 420.095 61.1562 345.962 64 c 24
339.962 606 m 16
 388.274 608.426 391.193 606.348 423.933 605.534 c 24
 452.688 604.819 468.883 600.958 497.617 602.28 c 24
 517.891 603.213 529.927 602.905 549.175 609.341 c 24
 567.188 615.364 571.421 621.387 591.697 633.085 c 8
 598.195 636.834 599.409 624.186 603.513 617.906 c 24
 608.235 610.68 616.27 606.784 614.053 598.44 c 24
 611.896 590.321 600.206 594.208 595.746 587.09 c 24
 592.73 582.277 592.117 577.875 594.238 572.607 c 24
 601.064 555.654 627.202 560.419 630.033 542.364 c 24
 631.658 531.997 623.363 526.796 615.78 519.542 c 24
 605.618 509.822 598.281 503.938 584.38 501.82 c 24
 557.747 497.762 543.746 514.988 516.838 516.312 c 24
 466.104 518.807 411.986 512.04 387.424 501.616 c 0
 370.752 494.541 387.782 475.727 388.808 459.212 c 24
 389.972 440.463 391.353 433.26 393.204 411.247 c 8
 396.169 375.995 448.613 409.478 483.688 404.862 c 24
 522.608 399.741 572.003 423.557 582.511 385.732 c 24
 586.45 371.553 564.56 371.192 554.47 360.479 c 24
 542.345 347.606 542.614 331.6 526.195 325.031 c 24
 504.896 316.511 490.738 330.664 467.921 333.033 c 24
 448.728 335.025 434.029 348.059 418.566 336.516 c 24
 398.949 321.871 407.338 299.598 405.002 275.229 c 24
 401.465 238.334 395.03 216.607 407.538 180.227 c 8
 412.054 167.094 394.255 162.82 383.783 153.698 c 24
 372.198 143.606 366.468 131.318 351.108 131.69 c 24
 332.904 132.131 328.321 148.777 313.69 159.617 c 24
 294.629 173.739 288.112 191.903 264.688 195.655 c 24
 248.351 198.272 238.976 190.225 224.368 182.453 c 24
 211.122 175.406 203.73 170.251 194.011 158.822 c 24
 187.539 151.213 191.63 137.654 181.727 136.348 c 24
 173.361 135.244 173.391 146.744 166.783 151.991 c 24
 161.152 156.463 149.049 154.432 150.912 161.377 c 16
 159.49 193.353 172.578 208.039 198.654 224.629 c 24
 236.847 248.928 273.499 237.826 312.197 248.711 c 8
 331.72 254.202 322.689 279.193 323.559 299.455 c 24
 324.395 318.952 326.559 332.115 316.846 349.042 c 24
 311.623 358.145 305.637 362.404 295.646 365.613 c 24
 284.407 369.223 277.186 365.108 265.407 364.343 c 24
 247.438 363.175 229.912 345.664 219.411 360.294 c 24
 212.852 369.433 225.202 377.068 231.001 386.708 c 24
 240.684 402.805 245.146 414.237 260.896 424.473 c 24
 269.424 430.014 276.039 429.905 286.154 430.957 c 24
 293.308 431.7 299.077 425.509 304.576 430.144 c 24
 331.587 452.908 308.976 485.374 315.962 520 c 24
 322.849 554.134 305.185 604.254 339.962 606 c 16
1125.51 201.97 m 8
 1121.72 180.574 1091.35 207.956 1072.24 218.294 c 24
 1049.43 230.63 1017.85 235.116 1021.15 260.834 c 16
 1028.93 321.524 1025.97 350.614 1030.91 407.873 c 24
 1035.13 456.807 1037.3 488.516 1044.21 533.105 c 8
 1046.93 550.699 1066.8 549.588 1082.58 557.843 c 24
 1095.69 564.704 1103.13 575.196 1117.65 572.324 c 24
 1129.85 569.91 1139.07 562.227 1140.28 549.848 c 16
 1143.96 512 1141.21 518.246 1140.9 498.044 c 24
 1140.06 442.32 1137.72 410.931 1134.84 355.274 c 24
 1131.75 295.454 1135.57 258.811 1125.51 201.97 c 8
EndSplineSet
EndChar
StartChar: cent
Encoding: 162 162 35
Width: 313
Flags: HW
VStem: 131.896 81.107<557 629.31>
Fore
213.891 265.429 m 1
 221.293 265.482 228.894 267.015 238.477 271.856 c 8
 258.948 281.119 267.891 293.943 281.047 312.469 c 16
 296.664 333.844 323.152 322.443 314.985 303.919 c 0
 298.065 263.307 301.759 267.581 282.71 250.481 c 24
 264.633 234.094 249.798 230.531 228.228 224.119 c 16
 213.451 220.496 203.804 220.632 192.53 220.979 c 1
 154.229 140.222 l 1
 137.21 122.644 117.368 108.137 108.751 120.984 c 1
 122.557 172.349 131.279 200.039 138.987 221.806 c 1
 137.108 222.231 135.189 222.759 133.205 223.406 c 8
 113.192 229.106 102.701 235.519 91.3066 251.193 c 24
 75.6387 274.706 68.1318 293.231 72.417 324.581 c 0
 77.2236 365.193 87.3379 392.981 114.232 433.594 c 24
 140.674 474.919 160.956 501.281 203.779 526.932 c 16
 220.832 537.318 235.96 544.668 250.639 549.641 c 1
 260.483 576.979 271.617 606.571 284.977 640.396 c 1
 322.531 680.965 354.21 684.771 368.279 650.016 c 1
 355.566 613.537 344.943 583.6 335.277 557.146 c 1
 352.646 555.413 363.89 550.773 376.336 531.206 c 8
 386.306 515.531 389.862 499.856 377.808 478.481 c 24
 371.067 467.794 361.543 459.244 349.884 458.531 c 24
 332.978 457.106 335.64 474.206 326.444 484.182 c 16
 320.688 489.426 317.923 495.354 313.867 500.159 c 1
 296.154 454.434 278.749 413.125 252.625 351.834 c 0
 234.362 308.991 226.402 291.575 213.891 265.429 c 1
230.838 492.828 m 1
 217.685 484.105 209.647 473.822 199.094 459.244 c 8
 169.868 420.057 155.544 394.406 146.915 353.081 c 24
 140.299 323.156 139.709 303.919 153.822 283.969 c 16
 155.63 281.356 157.59 279.246 159.713 277.52 c 1
 162.483 285.185 165.493 293.756 168.856 303.74 c 0
 194.339 379.375 210.931 433.854 230.838 492.828 c 1
EndSplineSet
EndChar
StartChar: sterling
Encoding: 163 163 36
Width: 708
VWidth: 1080
Flags: HW
HStem: 324.417 135.333<327 371>
VStem: 201.119 124.881<447 586> 201.119 126.789<447.436 459.75>
Fore
282.917 320.772 m 5
 230.854 321.191 187.695 328.554 164.994 360 c 12
 152.857 376.812 171.702 407.974 196.925 423 c 20
 241.795 449.732 283.776 446.911 332.938 447.436 c 5
 346.681 484.114 375.459 528.486 378.976 577 c 28
 381.536 612.322 340.625 620.443 358.094 657 c 28
 376.947 696.456 414.304 719.673 456.3 729 c 28
 580.208 756.52 662.632 724.43 708.814 637 c 28
 722.139 611.774 725.05 544.398 694.877 552 c 20
 587.704 579 631.847 646.709 555.902 629 c 28
 533.767 623.838 520.167 605 508.252 586 c 4
 490.57 534.616 476.269 493.711 464.209 459.75 c 5
 477.589 460.556 491.404 460.509 507.027 459 c 12
 545.521 455.281 580.983 462.234 596.2 432 c 28
 606.96 410.622 606.376 379.868 578.994 360 c 20
 530.697 324.956 476.609 325.174 414.664 324.417 c 5
 390.837 261.093 324.675 219 271.542 95 c 5
 387.896 63 441.26 64 567.729 112 c 5
 592.66 175 577.939 195 609.686 252 c 12
 631.74 291.598 675.68 262.37 717.873 269 c 21
 698.289 152 698.289 152 637.7 24 c 13
 637.7 24 605.704 35 582.796 38 c 5
 327.7 24 300.604 10 23.7959 38 c 5
 9.89551 63 12.167 61 57.6377 109 c 5
 124.729 112 111.684 100.226 144.006 121 c 28
 226.086 173.754 254.765 252.061 282.917 320.772 c 5
EndSplineSet
EndChar
StartChar: currency
Encoding: 164 164 37
Width: 340
VWidth: 1000
Flags: HW
Fore
316.61 440.568 m 1
 322.257 445.625 329.135 451.413 338.254 458.543 c 1
 339.183 465.926 323.003 459.844 323.171 467.332 c 24
 323.278 472.263 328.032 476.824 333.498 479.285 c 1
 382.717 479.285 361.37 486.316 397.033 472.254 c 1
 399.204 466.629 394.746 458.921 387.694 454.324 c 24
 380.594 449.692 377.244 457.488 369.413 454.324 c 1
 350.44 439.736 337.649 429.351 327.791 420.888 c 1
 329.173 417.101 330.11 412.906 330.575 407.602 c 8
 332.181 391.148 328.61 380.18 322.851 362.039 c 24
 316.479 342.211 312.179 330.398 299.785 311.414 c 16
 292.343 300.486 286.555 292.252 279.055 284.479 c 1
 282.721 276.224 287.852 266.119 295.837 252.176 c 1
 301.365 249.012 310.39 256.808 314.118 252.176 c 24
 317.824 247.579 316.672 239.871 310.405 234.246 c 1
 264.506 220.184 290.971 227.215 241.752 227.215 c 1
 238.078 229.676 236.644 234.237 240.126 239.168 c 24
 245.409 246.656 257.161 240.574 261.606 247.957 c 1
 258.1 254.322 255.599 259.619 253.705 264.279 c 1
 246.648 260.181 240.156 257.946 231.269 255.305 c 8
 219.226 252.352 212.936 253.617 201.967 253.617 c 16
 196.427 253.407 191.914 252.987 187.709 252.984 c 0
 183.474 252.981 179.548 253.401 175.006 254.883 c 0
 165.832 257.495 160.037 260.361 154.758 265.829 c 1
 151.619 261.729 144.323 257.375 145.145 252.527 c 8
 146.165 246.542 160.424 254.663 160.484 248.309 c 24
 160.576 238.904 146.792 235.441 138.041 227.215 c 17
 101.83 227.215 96.1719 222.293 62.8066 227.215 c 9
 59.6445 234.343 50.8818 236.347 54.6953 245.496 c 24
 58.085 253.626 66.1758 257.142 74.835 260.262 c 24
 86.0625 264.305 92.208 252.141 101.905 260.262 c 16
 139.929 292.215 l 1
 138.183 298.771 137.8 305.912 139.013 314.789 c 0
 141.859 338.836 147.848 355.289 163.771 379.336 c 16
 171.487 391.396 178.318 401.304 186.298 410.069 c 1
 169.595 446.238 l 8
 165.81 454.359 150.809 442.195 142.524 446.238 c 24
 136.137 449.358 130.604 452.874 133.134 461.004 c 24
 135.979 470.153 146.201 472.157 154.553 479.285 c 17
 191.5 484.207 193.576 479.285 229.787 479.285 c 9
 232.55 471.059 243.813 467.596 236.875 458.191 c 24
 232.189 451.837 223.843 459.958 218.465 453.973 c 24
 213.97 448.963 218.525 444.48 218.396 440.262 c 1
 219.653 436.314 l 1
 243.127 450.107 260.648 453.975 283.878 453.164 c 0
 299.477 452.389 307.865 452.326 316.61 440.568 c 1
182.285 327.679 m 24
 181.562 312.342 186.396 291.897 187.214 290.742 c 8
 192.54 283.213 199.822 282.435 210.261 281.039 c 24
 219.955 279.743 226.55 278.689 237.338 283.57 c 16
 240.784 285.13 258.627 301.452 267.973 315.196 c 24
 281.556 335.173 286.524 347.928 291.136 368.789 c 0
 292.866 376.872 295.046 382.196 293.763 389.504 c 24
 290.936 405.611 281.562 421.842 273.973 423.633 c 8
 262.094 426.438 252.211 424.812 238.495 417.727 c 16
 234.528 415.677 212.898 394.411 201.761 377.042 c 24
 190.812 359.97 186.845 349.486 183.123 331.664 c 0
 182.822 330.299 182.354 329.178 182.285 327.679 c 24
EndSplineSet
EndChar
StartChar: yen
Encoding: 165 165 38
Width: 735
VWidth: 1080
Flags: HW
HStem: 92.0908 101.034<409 453> 236.101 101.356<410 454>
Fore
442.033 337.457 m 1
 443.427 337.359 444.837 337.249 446.266 337.125 c 8
 479.636 334.234 506.953 333.688 521.396 316.875 c 24
 536.02 299.828 535.345 280.375 509.241 262.875 c 16
 468.24 235.375 420.782 236.828 366.148 236.101 c 1
 358.108 218.957 351.721 205.714 346.023 192.783 c 1
 361.05 194.165 376.006 194.668 393.854 193.125 c 8
 427.225 190.234 454.541 189.688 468.984 172.875 c 24
 483.607 155.828 482.933 136.375 456.829 118.875 c 16
 415.634 91.2451 367.92 92.8428 312.959 92.0908 c 1
 311.019 84.6562 308.978 76.6553 306.812 68 c 8
 299.894 38 366.181 80 380.9 60 c 24
 389.533 48 388.981 30 374.25 17 c 1
 194.062 0 237.062 0 66.1582 14 c 1
 57.9814 30 72.9893 52 92.7207 65 c 24
 128.82 90 155.169 47 189.996 74 c 1
 197.204 89.7617 l 1
 160.107 91.2031 129.514 97.8916 111.829 118.875 c 8
 99.1953 133.875 111.132 152.203 136.527 166.125 c 16
 169.745 184.336 201.721 184.258 237.981 184.384 c 1
 244.558 200.792 250.626 216.642 256.925 233.544 c 1
 216.547 234.393 183.073 240.528 164.241 262.875 c 8
 151.606 277.875 163.544 296.203 188.938 310.125 c 16
 215.964 324.941 242.164 327.651 270.521 328.215 c 1
 251.638 435.914 215.59 489.865 187.54 614 c 1
 170.908 626 139.081 599 127.54 614 c 24
 112.819 634 119.194 668 147.566 691 c 1
 360.754 708 209.566 691 434.842 700 c 1
 447.475 688 450.831 667 433.279 649 c 24
 405.36 619 368.646 661 341.728 631 c 1
 342.925 489.176 362.595 450.673 358.313 332.089 c 1
 366.953 333.135 l 1
 642.54 614 l 9
 614.636 628 569.904 615 570.279 649 c 24
 569.559 669 590.475 688 613.842 700 c 1
 779.846 711 651.846 711 844.842 700 c 1
 855.11 687 852.103 665 834.279 649 c 24
 796.177 613 762.827 656 716.728 631 c 1
 611.677 516.859 540.648 431.442 442.033 337.457 c 1
EndSplineSet
EndChar
StartChar: brokenbar
Encoding: 166 166 39
Width: 243
VWidth: 1080
Flags: HW
Fore
271.965 442.166 m 1
 256.531 440.235 241.153 436.146 221.564 433 c 0
 197.518 429.144 177.055 431.05 157.288 429.833 c 1
 179.503 493.852 208.82 576.571 252.288 696 c 1
 247.752 722 302.425 725.266 320.84 714 c 16
 360.003 690.062 311.809 551.369 271.965 442.166 c 1
221.345 307.284 m 1
 182.761 208.09 148.643 122.563 138.16 39 c 8
 132.571 -5.54688 4.33691 23 24.7998 49 c 1
 69.8271 171.414 90.3438 232.62 114.946 305.68 c 1
 142.184 301.235 176.729 305.693 211.704 307 c 0
 214.952 307.122 218.164 307.211 221.345 307.284 c 1
EndSplineSet
EndChar
StartChar: section
Encoding: 167 167 40
Width: 423
Flags: HW
Fore
263.688 351 m 1
 270.758 288 278.931 261 325.827 225 c 1
 350.012 182.524 347.254 180 343.14 111 c 8
 341.398 81.8027 288.939 107.152 271.794 126 c 24
 262.385 136.345 273.346 151.707 267.989 165 c 24
 256.302 194.005 221.283 191.898 217.827 225 c 24
 213.183 269.501 240.381 384.846 263.688 351 c 1
382.96 621 m 24
 413.03 632.106 403.71 582.323 432.856 585 c 24
 466.188 588.062 505.364 606.68 515.511 639 c 24
 530.27 686.004 486.997 703.857 441.625 708 c 24
 393.175 712.424 348.237 695.665 304.971 654 c 24
 242.447 593.789 281.047 534.818 228.272 468 c 24
 186.172 414.696 115.855 417.38 86.9629 360 c 24
 54.082 294.696 65.6221 243.346 110.368 210 c 16
 178.806 159 174.843 117.906 191.312 45 c 24
 202.984 -6.66016 208.112 -39.373 192.901 -99 c 24
 186.607 -123.674 187.344 -152.236 160.971 -162 c 24
 128.889 -173.878 141.177 -123.995 114.35 -117 c 24
 87.0049 -109.869 62.1875 -108.106 31.9814 -129 c 24
 11.9297 -142.871 -1.14746 -161.759 1.41895 -180 c 24
 8.13672 -227.729 53.0205 -237.92 107.765 -234 c 24
 162.629 -230.072 209.939 -210.145 250.971 -162 c 24
 299.654 -104.878 302.279 -54 291.934 0 c 1
 349.496 51 401.088 92.9414 422.897 162 c 24
 452.15 254.626 405.59 292.38 381.239 369 c 24
 362.239 428.788 306.639 442.362 316.65 513 c 24
 322.659 555.383 336.826 603.96 382.96 621 c 24
EndSplineSet
EndChar
StartChar: dieresis
Encoding: 168 168 41
Width: 418
VWidth: 1080
Flags: HW
Fore
331.351 331 m 28
 370.031 320.728 406.059 326.195 430.351 358 c 28
 453.786 388.684 448.019 422.669 430.351 457 c 28
 416.534 483.848 397.545 502 367.351 502 c 28
 337.156 502 318.167 483.848 304.351 457 c 28
 286.684 422.669 289.575 393.671 304.351 358 c 28
 310.05 344.242 316.958 334.822 331.351 331 c 28
131.351 331 m 28
 170.031 320.728 206.059 326.195 230.351 358 c 28
 253.786 388.684 248.019 422.669 230.351 457 c 28
 216.534 483.848 197.545 502 167.351 502 c 28
 137.156 502 118.167 483.848 104.351 457 c 28
 86.6836 422.669 89.5752 393.671 104.351 358 c 28
 110.05 344.242 116.958 334.822 131.351 331 c 28
EndSplineSet
EndChar
StartChar: copyright
Encoding: 169 169 42
Width: 450
VWidth: 1000
Flags: HW
Fore
273.598 394 m 24
 246.502 380 233.679 364 215.579 339 c 24
 174.561 284 154.458 248 142.348 190 c 24
 133.061 148 132.233 121 152.042 93 c 24
 164.491 75 182.127 74 206.671 70 c 24
 229.579 67 245.123 63 270.854 76 c 24
 299.587 89 312.138 107 330.602 133 c 24
 369.892 186 385.994 222 398.377 278 c 24
 406.936 318 407.671 342 394.318 374 c 24
 385.869 392 378.873 403 357.693 408 c 24
 330.241 415 305.785 411 273.598 394 c 24
187.013 5 m 24
 160.649 4 144.558 1 123.104 8 c 24
 95.0166 16 80.292 25 64.2998 47 c 24
 42.3105 80 31.7734 106 37.7881 150 c 0
 44.5352 207 58.7295 246 96.4756 303 c 24
 133.586 361 162.053 398 222.156 434 c 24
 281.259 470 323.898 480 381.171 478 c 24
 421.443 476 441.443 476 464.34 440 c 8
 479.604 416 489.146 401 491.862 370 c 24
 495.667 331 487.204 305 473.554 262 c 24
 458.447 215 448.256 187 418.877 142 c 24
 390.954 101 372.854 76 332.936 46 c 24
 305.292 25 286.745 18 256.469 9 c 24
 227.921 2 213.013 5 187.013 5 c 24
355.812 286.75 m 24
 343.947 285.75 345.815 297.75 339.363 304.75 c 24
 332.229 311.25 331.641 319.25 321.051 321.75 c 24
 307.324 325.25 295.097 323.25 279.003 314.75 c 24
 265.455 307.75 259.043 299.75 249.993 287.25 c 24
 229.484 259.75 219.433 241.75 213.378 212.75 c 24
 208.734 191.75 208.321 178.25 218.226 164.25 c 24
 224.449 155.25 233.268 154.75 245.54 152.75 c 24
 256.994 151.25 264.766 149.25 277.632 155.75 c 24
 291.997 162.25 298.273 171.25 307.505 184.25 c 16
 318.464 199.25 337.053 191.25 331.321 178.25 c 0
 319.447 149.75 322.04 152.75 308.672 140.75 c 24
 295.986 129.25 285.576 126.75 270.438 122.25 c 24
 256.165 118.75 248.711 120.25 235.711 120.25 c 24
 222.528 119.75 214.482 118.25 203.757 121.75 c 24
 189.713 125.75 182.351 130.25 174.354 141.25 c 24
 163.359 157.75 158.091 170.75 161.099 192.75 c 0
 164.472 221.25 171.569 240.75 190.442 269.25 c 24
 208.997 298.25 223.23 316.75 253.282 334.75 c 24
 282.834 352.75 304.153 357.75 332.79 356.75 c 24
 352.926 355.75 362.926 355.75 374.374 337.75 c 8
 381.37 326.75 383.867 315.75 375.407 300.75 c 24
 370.678 293.25 363.994 287.25 355.812 286.75 c 24
EndSplineSet
EndChar
StartChar: ordfeminine
Encoding: 170 170 43
Width: 280
Flags: HW
Fore
165 374 m 24
 184.631 364.107 198.988 384.077 216 398 c 24
 242.318 419.539 252.892 437.532 268 468 c 24
 274.854 481.822 282.012 490.868 279 506 c 24
 277.537 513.348 274.27 519.188 267 521 c 24
 248.863 525.52 237.781 513.441 223 502 c 24
 201.901 485.67 195.225 470.571 181 448 c 24
 170.771 431.769 161.547 423.016 159 404 c 24
 157.416 392.174 154.345 379.369 165 374 c 24
183 333 m 24
 168.914 327.143 158.987 327.153 144 330 c 24
 129.091 332.832 117.175 334.216 109 347 c 24
 98.0723 364.089 103.352 379.256 108 399 c 24
 116.874 436.695 130.582 456.157 154 487 c 24
 175.022 514.688 189.027 530.387 219 548 c 24
 235.589 557.748 246.791 564.114 266 563 c 24
 283.948 561.959 290.13 542.038 308 544 c 24
 319.631 545.277 320.37 563.276 332 562 c 24
 342.723 560.823 348.547 551.688 350 541 c 17
 344.503 500.028 319.93 482.848 305 445 c 9
 296.338 425.311 281.881 415.405 284 394 c 24
 284.831 385.604 289.448 381.316 296 376 c 24
 300.893 372.03 307.799 375.427 311 370 c 24
 315.793 361.876 312.524 354.277 308 346 c 24
 303.617 337.981 298.521 334.301 290 331 c 24
 273.618 324.654 259.622 319.264 245 329 c 24
 234.628 335.907 235.005 346.579 234 359 c 24
 233.168 369.292 237.539 374.777 239 385 c 16
 241 399 222.912 368.134 212 358 c 24
 201.058 347.839 196.787 338.734 183 333 c 24
52.3809 229.627 m 24
 46.9834 244.621 56.8125 262.954 74.0781 276.877 c 24
 106.839 303.294 132.429 291.229 169.198 297.127 c 24
 194.155 301.131 209.997 307.176 232.405 303.877 c 24
 252.012 300.99 268.32 300.446 274.535 283.627 c 24
 280.83 266.586 277.59 247.134 259.38 229.627 c 24
 228.527 199.966 198.077 203.984 161.803 202.627 c 24
 113.495 200.819 66.2832 191.001 52.3809 229.627 c 24
EndSplineSet
EndChar
StartChar: logicalnot
Encoding: 172 172 45
Width: 346
Flags: HW
Fore
60.0957 226 m 28
 52.8994 245.992 66.0039 270.436 89.0254 289 c 28
 132.706 324.223 166.826 308.136 215.853 316 c 28
 249.129 321.338 270.25 329.398 300.129 325 c 28
 326.271 321.151 348.354 320.619 356.302 298 c 28
 376.956 239.214 331.629 189 299.967 113 c 4
 287.407 82.8535 210.28 76.9131 202.871 99 c 4
 188.003 143.322 223.774 190.665 205.992 190 c 12
 141.581 187.59 78.6328 174.499 60.0957 226 c 28
EndSplineSet
EndChar
StartChar: registered
Encoding: 174 174 47
Width: 444
VWidth: 1000
Flags: HW
VStem: 181 53.5<166.555 275.438>
Fore
168.184 111.5 m 1
 163.912 113.5 163.868 117.5 163.869 123 c 1
 163.825 127 164.6 130.5 168.056 134.5 c 1
 177.559 145.5 188.649 143 198.152 154 c 1
 217.213 199.5 220.4 216.5 243.375 275.5 c 1
 242.152 290 219.606 288.5 225.248 304 c 1
 252.258 331.5 256.305 338.5 280.217 346.5 c 1
 290.991 350 297.945 348.5 305.307 344 c 1
 315.029 329.5 309.987 339 322.894 330.5 c 1
 340.987 339 349.9 352.5 369.537 351.5 c 1
 388.491 350 391.985 333.5 390.07 314.5 c 1
 389.066 303.5 384.154 295.5 374.196 286 c 1
 365.103 277.5 355.873 270 345.919 271.5 c 1
 334.329 274 346.608 294 335.383 297.5 c 1
 308.604 283 314.196 286 296.875 275.5 c 1
 265.711 194 279.177 225.5 256.702 166.5 c 1
 256.79 158.5 265.519 160.5 265.606 152.5 c 1
 266.149 143 262.873 134 253.644 126.5 c 1
 230.46 120.5 199.05 118 168.184 111.5 c 1
276.506 394 m 24
 308.693 411 333.148 415 360.601 408 c 24
 381.781 403 388.777 392 397.226 374 c 24
 410.579 342 409.844 318 401.285 278 c 24
 388.902 222 372.8 186 333.509 133 c 24
 315.046 107 302.494 89 273.763 76 c 24
 248.031 63 232.487 67 209.579 70 c 24
 185.035 74 167.399 75 154.95 93 c 24
 135.142 121 135.969 148 145.256 190 c 24
 157.366 248 177.469 284 218.487 339 c 24
 236.586 364 249.41 380 276.506 394 c 24
189.921 5 m 24
 215.921 5 230.829 2 259.377 9 c 24
 289.652 18 308.2 25 335.844 46 c 24
 375.763 76 393.862 101 421.785 142 c 24
 451.164 187 461.354 215 476.461 262 c 24
 490.112 305 498.575 331 494.771 370 c 24
 492.054 401 482.513 416 467.248 440 c 16
 444.351 476 424.351 476 384.079 478 c 24
 326.807 480 284.167 470 225.064 434 c 24
 164.961 398 136.494 361 99.3838 303 c 24
 61.6377 246 47.4434 207 40.6963 150 c 0
 34.6816 106 45.2188 80 67.208 47 c 24
 83.2002 25 97.9248 16 126.013 8 c 24
 147.465 1 163.557 4 189.921 5 c 24
EndSplineSet
EndChar
StartChar: degree
Encoding: 176 176 49
Width: 264
VWidth: 1000
Flags: HW
Fore
201.799 517.75 m 28
 217.893 526.25 230.12 528.25 243.847 524.75 c 28
 254.437 522.25 257.935 516.75 262.159 507.75 c 28
 268.835 491.75 268.468 479.75 264.188 459.75 c 28
 257.997 431.75 249.945 413.75 230.301 387.25 c 28
 221.069 374.25 214.793 365.25 200.428 358.75 c 28
 187.562 352.25 179.789 354.25 168.336 355.75 c 28
 156.063 357.75 147.245 358.25 141.021 367.25 c 28
 131.117 381.25 131.53 394.75 136.174 415.75 c 28
 142.229 444.75 152.28 462.75 172.789 490.25 c 28
 181.839 502.75 188.251 510.75 201.799 517.75 c 28
158.507 323.25 m 28
 171.507 323.25 178.961 321.75 193.234 325.25 c 28
 208.372 329.75 217.646 333.25 231.468 343.75 c 28
 251.428 358.75 260.477 371.25 274.438 391.75 c 28
 289.128 414.25 294.224 428.25 301.776 451.75 c 28
 308.602 473.25 312.834 486.25 310.931 505.75 c 28
 309.572 521.25 304.803 528.75 297.17 540.75 c 20
 285.722 558.75 275.722 558.75 255.585 559.75 c 28
 226.949 560.75 205.63 555.75 176.078 537.75 c 28
 146.026 519.75 131.793 501.25 113.238 472.25 c 28
 94.3652 443.75 87.2676 424.25 83.8945 395.75 c 4
 80.8867 373.75 86.1553 360.75 97.1494 344.25 c 28
 105.146 333.25 112.508 328.75 126.553 324.75 c 28
 137.278 321.25 145.324 322.75 158.507 323.25 c 28
EndSplineSet
EndChar
StartChar: acute
Encoding: 180 180 53
Width: 264
VWidth: 1080
Flags: HW
Fore
140.943 508 m 8
 136.232 505.002 132.403 506.17 126.943 505 c 17
 126.933 568.333 169.466 598.496 194.943 650 c 9
 228.094 683.54 237.017 716.478 279.943 736 c 24
 314.091 751.53 350.287 769.368 375.943 742 c 24
 388.581 728.519 378.9 711.163 369.943 695 c 24
 345.764 651.365 309.58 645.558 270.943 614 c 24
 220.278 572.617 206.943 550 140.943 508 c 8
EndSplineSet
EndChar
StartChar: mu
Encoding: 181 181 54
Width: 498
VWidth: 1080
Flags: HW
VStem: 47 93<142 375> 291 86<127 394>
Fore
451.805 76 m 1
 426.996 104 435.989 82 418.367 127 c 1
 480.606 298 451.489 218 521.371 410 c 1
 531.831 425 553.461 428.183 556.746 444 c 24
 559.596 457.721 547.807 460.89 536.754 466 c 24
 508.398 479.109 485.562 478.16 448.665 474 c 24
 424.396 471.264 406.355 472.938 384.75 455 c 24
 370.205 442.925 360.601 428.326 364.191 415 c 24
 370.958 389.88 420.191 415 429.184 393 c 1
 324.725 106 390.147 283 345.015 159 c 1
 320.367 127 295.443 102.309 259.448 97 c 24
 218.838 91.0098 193.908 112 186.827 142 c 1
 261.441 347 221.948 233 298.566 449 c 1
 296.662 463 286.535 467.309 272.938 472 c 24
 265.317 474.628 259.435 474.205 249.938 472 c 24
 210.951 462.947 180.91 458.639 150.559 427 c 24
 143.165 419.293 140.713 411.854 142.188 404 c 24
 145.673 385.431 174.184 393 177.632 375 c 1
 37.8682 -9 154.61 309 76.7207 95 c 1
 72.8018 65 -118.968 -338.799 10.335 -244 c 16
 92.1729 -184 48.8711 -72.1055 139.144 0 c 24
 176.003 29.4424 204.655 18.4092 246.335 28 c 24
 258.156 30.7207 266.61 37 276.519 34 c 1
 290.056 8 282.231 -8 306.868 -9 c 1
 382.875 13 393.242 25 451.805 76 c 1
EndSplineSet
EndChar
StartChar: paragraph
Encoding: 182 182 55
Width: 595
VWidth: 1080
Flags: HW
VStem: 361 118<94 333> 529.75 77.896<241 655>
Fore
395.391 420 m 1
 431.172 455.922 422.641 486.922 444.016 528 c 9
 454.969 575.188 491.578 617.641 472.094 649 c 24
 461.562 665.953 442.547 670.391 408.828 661 c 24
 371.547 650.609 341.906 631.25 311.156 601 c 24
 257.422 548.141 244.203 510.844 233.969 462 c 24
 228.422 435.562 242.938 429.062 248.656 408 c 17
 306.359 417.531 344.609 392.547 395.391 420 c 1
731.877 738.883 m 0
 733.895 738.038 735.801 737.077 737.562 736 c 4
 738.879 735.195 740.097 734.224 741.219 733.093 c 0
 748.589 728.886 754.777 724.639 752.688 713 c 0
 752.313 710.929 751.828 708.823 751.21 706.699 c 0
 759.39 637.828 707.727 474.662 674 382 c 8
 623.047 241.984 568.547 128 554.875 19 c 8
 549.359 -25.0312 421.062 3 441.516 29 c 1
 534.679 282.285 522.913 313.696 659.524 691.866 c 1
 658.062 694.427 655.285 695.868 649.578 695 c 8
 636.609 693.031 627.938 680.359 614.109 671 c 17
 586.391 590.172 564.453 528.859 517.312 424 c 1
 475.812 303.75 410.156 204 391.547 96 c 9
 409.734 89.375 437.703 98.1406 438.172 79 c 24
 438.703 57.1875 407.094 36.2969 387.219 9 c 17
 324.828 -13.4219 289.297 7.78125 218.016 -5 c 0
 169.156 -3.8125 150.609 1.65625 89.6562 0 c 9
 107.188 27.2969 101.484 49.5625 134.625 70 c 24
 168.578 90.9531 176.25 65.9688 208.078 72 c 24
 221.531 74.5469 240.219 72.6875 244.812 84 c 16
 267.578 140 259.344 148.328 277.422 192 c 17
 301.625 251.344 309.922 257.375 346.969 326 c 1
 285.453 345.719 185.109 311.953 141.531 346 c 9
 126.016 360.047 109.172 362.344 101.734 382 c 24
 88.0781 418.125 89.1719 445.625 106.719 496 c 24
 124.016 545.609 132.125 581.906 188 631 c 24
 257 691.641 317.484 711.719 395.703 735 c 24
 474.953 758.578 503.844 741.094 572.984 745 c 17
 636.141 741.281 687.359 753.469 727.516 743 c 1
 728.833 741.429 730.312 740.082 731.877 738.883 c 0
EndSplineSet
EndChar
StartChar: ordmasculine
Encoding: 186 186 59
Width: 280
VWidth: 1000
Flags: HWO
Fore
174 373.2 m 24
 184.263 365.696 195.36 370.494 206.4 376.801 c 24
 227.735 388.987 232.414 405.642 244.2 427.2 c 24
 260.255 456.565 269.84 474.417 274.2 507.601 c 24
 275.793 519.721 279.779 530.093 271.2 538.801 c 24
 262.277 547.856 250.718 546.83 238.8 542.4 c 24
 213.658 533.055 205.372 515.253 192 492 c 24
 175.173 462.739 168.454 442.914 166.8 409.2 c 24
 166.099 394.899 162.442 381.651 174 373.2 c 24
138 352.801 m 24
 120.783 370.259 122.927 389.49 123.601 414 c 24
 124.512 447.16 132.319 466.158 147.601 495.601 c 24
 167.7 534.33 177.118 565.954 217.2 583.2 c 24
 246.975 596.012 275.752 597.51 300 576 c 24
 315.381 562.357 311.818 544.936 310.8 524.4 c 24
 308.102 469.998 296.304 438.216 268.8 391.2 c 24
 253.252 364.622 244.338 342.298 214.8 333.601 c 24
 185.184 324.881 159.68 330.818 138 352.801 c 24
56.2285 246.627 m 24
 50.8311 261.621 60.6602 279.954 77.9258 293.877 c 24
 110.687 320.294 136.276 308.229 173.047 314.127 c 24
 198.004 318.131 213.846 324.176 236.253 320.877 c 24
 255.86 317.99 272.17 317.446 278.383 300.627 c 24
 284.679 283.586 281.438 264.134 263.229 246.627 c 24
 232.376 216.966 201.926 220.984 165.651 219.627 c 24
 117.343 217.819 70.1318 208.001 56.2285 246.627 c 24
EndSplineSet
EndChar
StartChar: onequarter
Encoding: 188 188 61
Width: 560
Flags: HW
VStem: 177.596 0<379 493> 344.59 48<8 116>
Fore
129.87 338.893 m 12
 115.782 338.758 130.471 363.65 142.974 374.893 c 28
 152.205 383.192 161.647 369.59 171.203 382.393 c 5
 237.942 553.393 159.468 358.393 227.845 533.893 c 5
 226.107 547.438 210.32 533.651 208.074 541.393 c 28
 203.368 557.615 213.541 581.157 230.591 590.893 c 5
 455.046 589.393 174.137 592.393 329.592 590.893 c 5
 340.079 578.32 335.533 559.064 320.575 541.393 c 28
 315.852 535.812 311.531 546.128 303.845 533.893 c 5
 217.854 289.393 356.073 671.893 249.611 379.393 c 5
 249.481 373.405 258.301 378.812 259.974 374.893 c 28
 264.646 363.945 265.604 339.663 251.553 339.393 c 20
 95.9609 336.393 286.417 340.393 129.87 338.893 c 12
334.221 367.444 m 4
 399.965 418.944 391.648 424.944 451.756 471.944 c 5
 453.077 482.444 430.07 473.799 430.305 484.444 c 28
 430.459 491.458 437.219 497.944 444.992 501.444 c 5
 514.992 501.444 484.632 511.444 535.353 491.444 c 5
 538.441 483.444 532.104 472.488 522.071 465.944 c 28
 511.968 459.354 507.21 470.444 496.071 465.944 c 5
 403.729 394.944 414.366 393.944 342.664 332.944 c 4
 292.103 287.444 261.096 265.444 191.21 198.444 c 5
 187.025 192.444 175.899 186.071 177.112 178.944 c 28
 178.562 170.435 198.842 181.982 198.929 172.944 c 28
 199.058 159.566 179.458 154.645 167.01 142.944 c 21
 115.51 142.944 107.462 135.944 60.0088 142.944 c 13
 55.5107 153.085 43.0449 155.929 48.4727 168.944 c 28
 53.2959 180.511 64.8027 185.512 77.1152 189.944 c 28
 93.0791 195.69 101.823 178.389 115.616 189.944 c 20
 224.237 280.944 250.473 304.944 334.221 367.444 c 4
339.466 167.453 m 5
 358.028 218.453 331.822 146.453 364.034 234.953 c 5
 362.853 245.081 359.849 254.84 348.085 252.953 c 5
 299.114 204.953 312.482 216.953 276.88 180.953 c 5
 272.487 174.205 266.946 167.749 270.328 162.953 c 5
 361.42 165.953 242.782 161.453 339.466 167.453 c 5
331.732 12.9531 m 5
 312.053 -2.98438 292.726 -5.22461 281.595 8.45312 c 5
 304.662 75.9531 309.301 80.4531 322.679 125.453 c 5
 264.317 129.953 269.22 110.453 213.179 125.453 c 5
 203.19 127.982 211.786 142.032 218.506 152.453 c 5
 364.056 300.953 310.177 255.953 444.124 368.453 c 5
 453.641 371.818 461.978 370.965 464.986 363.953 c 5
 445.188 288.953 444.372 294.953 388.966 167.453 c 5
 437.374 164.453 417.197 180.453 496.56 175.953 c 5
 501.977 156.796 478.176 135.108 454.587 122.453 c 5
 420.109 103.956 426.179 125.453 371.087 122.453 c 5
 341.06 39.9531 354.387 66.9531 331.732 12.9531 c 5
EndSplineSet
LCarets: 0 255 '    ' 2 0 0 
Ligature: 0 1 'frac' one slash four
Ligature: 0 1 'frac' one fraction four
EndChar
StartChar: onehalf
Encoding: 189 189 62
Width: 560
Flags: HW
VStem: 125.136 78<379 451.368 483.934 493.236 458.698 533.576> 203.136 0<379 493>
Fore
138.15 338.893 m 12
 124.062 338.758 138.75 363.65 151.254 374.893 c 28
 160.484 383.192 169.928 369.59 179.483 382.393 c 5
 246.223 553.393 167.748 358.393 236.125 533.893 c 5
 234.387 547.438 218.599 533.65 216.354 541.393 c 28
 211.648 557.615 221.82 581.157 238.871 590.893 c 5
 463.325 589.393 182.417 592.393 337.871 590.893 c 5
 348.359 578.32 343.812 559.064 328.854 541.393 c 28
 324.131 535.812 319.811 546.127 312.125 533.893 c 5
 226.135 289.393 364.354 671.893 257.892 379.393 c 5
 257.761 373.405 266.58 378.812 268.254 374.893 c 28
 272.925 363.945 273.884 339.663 259.833 339.393 c 20
 104.24 336.393 294.697 340.393 138.15 338.893 c 12
342.501 367.444 m 4
 408.245 418.944 399.929 424.944 460.035 471.944 c 5
 461.357 482.444 438.351 473.799 438.585 484.444 c 28
 438.739 491.458 445.499 497.944 453.272 501.444 c 5
 523.272 501.444 492.912 511.444 543.633 491.444 c 5
 546.721 483.444 540.383 472.488 530.352 465.944 c 28
 520.247 459.354 515.489 470.444 504.352 465.944 c 5
 412.01 394.944 422.646 393.944 350.943 332.944 c 4
 300.383 287.444 269.376 265.444 199.489 198.444 c 5
 195.306 192.444 184.18 186.071 185.393 178.944 c 28
 186.84 170.435 207.121 181.982 207.208 172.944 c 28
 207.337 159.566 187.737 154.645 175.289 142.944 c 21
 123.789 142.944 115.741 135.944 68.2891 142.944 c 13
 63.79 153.085 51.3252 155.929 56.752 168.944 c 28
 61.5752 180.511 73.0811 185.512 85.3955 189.944 c 28
 101.359 195.69 110.103 178.389 123.896 189.944 c 20
 232.518 280.944 258.753 304.944 342.501 367.444 c 4
390.619 111.326 m 5
 416.509 120.638 425.509 120.638 438.055 109.774 c 5
 404.222 53.9092 422.446 79.2559 376.262 38.9082 c 5
 242.002 32.7012 328.632 35.8037 218.196 37.3564 c 12
 210.243 37.4678 219.06 51.6064 225.916 58.5645 c 20
 290.138 123.741 321.638 123.741 375.166 184.263 c 12
 390.719 201.848 401.368 220.664 393.805 235.472 c 28
 386.895 249.002 369.33 245.852 350.499 240.128 c 28
 322.644 231.661 319.527 216.851 284.055 193.573 c 5
 279.027 216.851 283.591 217.927 295.546 229.266 c 20
 329.907 261.854 338.242 266.87 367.99 275.82 c 28
 405.505 287.107 439.735 296.054 456.296 271.164 c 28
 470.997 249.065 455.402 219.898 435.36 188.917 c 28
 412.12 152.995 381.153 145.574 349.749 114.43 c 5
 333.212 89.6006 350.685 112.878 330.582 86.4971 c 5
 408.212 89.6006 292.518 84.9453 378.582 86.4971 c 5
 384.222 90.082 381.142 104.983 390.619 111.326 c 5
EndSplineSet
LCarets: 0 255 '    ' 2 0 0 
Ligature: 0 1 'frac' one slash two
Ligature: 0 1 'frac' one fraction two
EndChar
StartChar: threequarters
Encoding: 190 190 63
Width: 560
Flags: HW
VStem: 346.589 48<8 116>
Fore
334.334 367.444 m 4
 400.079 418.944 391.763 424.944 451.869 471.944 c 5
 453.191 482.444 430.185 473.799 430.419 484.444 c 28
 430.573 491.458 437.333 497.944 445.106 501.444 c 5
 515.106 501.444 484.746 511.444 535.467 491.444 c 5
 538.555 483.444 532.217 472.488 522.186 465.944 c 28
 512.081 459.354 507.323 470.444 496.186 465.944 c 5
 403.844 394.944 414.479 393.944 342.777 332.944 c 4
 292.217 287.444 261.21 265.444 191.323 198.444 c 5
 187.14 192.444 176.013 186.071 177.226 178.944 c 28
 178.674 170.435 198.955 181.982 199.042 172.944 c 28
 199.171 159.566 179.571 154.645 167.123 142.944 c 21
 115.623 142.944 107.575 135.944 60.123 142.944 c 13
 55.623 153.085 43.1582 155.929 48.5859 168.944 c 28
 53.4092 180.511 64.915 185.512 77.2295 189.944 c 28
 93.1934 195.69 101.937 178.389 115.729 189.944 c 20
 224.351 280.944 250.586 304.944 334.334 367.444 c 4
339.579 167.453 m 5
 358.142 218.453 331.936 146.453 364.146 234.953 c 5
 362.965 245.081 359.963 254.84 348.198 252.953 c 5
 299.228 204.953 312.596 216.953 276.992 180.953 c 5
 272.602 174.205 267.061 167.749 270.44 162.953 c 5
 361.533 165.953 242.895 161.453 339.579 167.453 c 5
331.846 12.9531 m 5
 312.167 -2.98438 292.839 -5.22461 281.707 8.45312 c 5
 304.775 75.9531 309.413 80.4531 322.792 125.453 c 5
 264.43 129.953 269.332 110.453 213.292 125.453 c 5
 203.304 127.982 211.899 142.032 218.619 152.453 c 5
 364.169 300.953 310.29 255.953 444.236 368.453 c 5
 453.754 371.818 462.091 370.965 465.099 363.953 c 5
 445.301 288.953 444.484 294.953 389.079 167.453 c 5
 437.486 164.453 417.311 180.453 496.673 175.953 c 5
 502.09 156.796 478.289 135.108 454.7 122.453 c 5
 420.224 103.956 426.292 125.453 371.2 122.453 c 5
 341.173 39.9531 354.5 66.9531 331.846 12.9531 c 5
146.409 410.722 m 5
 135.7 420.79 150.171 439.508 162.788 455.722 c 5
 219.667 500.722 222.529 496.222 273.27 536.722 c 12
 285.233 546.271 282.307 559.823 275.734 568.222 c 28
 269.351 576.378 259.062 576.364 245.872 572.722 c 28
 218.144 565.062 211.997 538.722 179.994 527.722 c 12
 168.638 523.818 179.144 544.317 185.321 554.722 c 28
 204.826 587.573 231.87 608.86 260.981 625.222 c 4
 298.869 639.999 284.696 636.804 305.759 639.722 c 4
 314.24 640.896 336.302 635.303 351.027 626.722 c 4
 363.371 608.482 349.81 583.377 334.367 556.222 c 28
 316.983 525.652 288.534 512.722 268.753 487.222 c 5
 270.407 474.232 293.729 487.484 301.478 478.222 c 28
 312.83 464.648 310.073 449.637 305.961 428.722 c 28
 298.782 392.208 288.952 368.535 262.565 334.222 c 28
 241.206 306.446 224.335 288.118 192.728 274.222 c 28
 147.578 254.371 101.149 237.506 80.498 266.722 c 28
 68.6436 283.491 79.7314 312.348 103.428 329.722 c 5
 137.52 332.722 117.882 328.222 148.428 329.722 c 5
 154.819 323.63 140.723 309.268 148.146 304.222 c 28
 157.037 298.18 169.665 303.784 182.376 311.722 c 28
 211.086 329.647 224.257 349.396 237.898 377.722 c 28
 245.91 394.358 251.83 407.957 244.186 419.722 c 28
 236.019 432.29 220.8 430.075 202.461 428.722 c 5
 181.413 427.168 179.001 413.722 146.409 410.722 c 5
EndSplineSet
LCarets: 0 255 '    ' 2 0 0 
Ligature: 0 1 'frac' three slash four
Ligature: 0 1 'frac' three fraction four
EndChar
StartChar: AE
Encoding: 198 198 71
Width: 1066
VWidth: 1080
Flags: HW
Fore
596.453 393.803 m 24
 603.495 385.935 613.815 389.66 623.528 393.803 c 24
 667.493 412.552 682.766 441.884 708.363 482.247 c 24
 727.337 512.168 756.688 535.389 740.854 567.082 c 24
 733.981 580.836 717.731 573.689 702.948 577.912 c 17
 672.909 542.771 640.122 516.892 605.479 475.027 c 9
 592.061 446.117 575.197 417.552 596.453 393.803 c 24
33.293 16.5576 m 1
 19.4756 42.9561 12.8887 64.4551 33.293 84.2451 c 9
 192.134 104.1 l 17
 258.918 161.859 341.948 272.868 428.588 386.582 c 9
 489.128 449.234 523.753 484.12 583.818 547.228 c 17
 608.122 580.777 646.935 589.704 665.043 633.868 c 9
 649.44 683.233 567.746 620.773 535.084 660.943 c 24
 517.985 681.971 516.046 711.146 535.084 730.435 c 24
 572.667 768.517 618.761 731.729 672.263 732.24 c 24
 731.394 732.805 764.765 731.83 823.884 733.143 c 24
 878.818 734.362 909.77 740.782 964.673 738.557 c 24
 1017.8 736.404 1055.35 751.109 1100.05 722.312 c 24
 1129.13 703.582 1141.63 680.805 1146.08 646.503 c 24
 1153.71 587.524 1150.41 535.878 1102.76 500.297 c 24
 1098.53 497.139 1091.74 495.658 1089.22 500.297 c 16
 1066.66 541.812 1072.83 581.043 1040.48 619.428 c 24
 1027.64 634.662 1016.19 640.595 997.163 646.503 c 24
 950.73 660.918 921.19 649.806 872.618 651.918 c 17
 848.27 597.942 790.823 483.023 791.394 401.022 c 9
 837.854 401.727 870.205 379.729 910.522 402.828 c 24
 942.315 421.043 926.85 466.057 959.259 483.15 c 24
 982.019 495.155 999.447 480.947 1025.14 479.54 c 17
 1002.11 396.624 986.806 304.208 949.331 258.428 c 9
 925.749 257.724 907.43 242.065 888.863 256.622 c 24
 865.067 275.279 895.596 312.778 872.618 332.432 c 17
 834.042 351.858 793.343 333.01 742.658 339.652 c 1
 715.553 293.093 728.409 212.982 693.923 117.638 c 1
 674.326 78.3193 711.225 84.4951 715.584 74.3184 c 1
 806.755 102.242 839.587 80.2939 894.278 85.1475 c 1
 952.6 99.3486 973.825 143.95 991.748 166.372 c 9
 1051.31 155.543 l 17
 1065.84 105.783 1010.98 52.6475 997.163 20.168 c 1
 886.492 -0.573242 818.577 28.3916 715.584 12.9473 c 1
 632.354 32.3975 561.756 -13.5283 468.298 12.9473 c 9
 471.114 41.1055 453.114 67.8584 475.519 85.1475 c 24
 496.957 101.693 517.358 78.541 544.108 74.3184 c 17
 575.473 158.477 598.526 224.485 630.748 305.357 c 9
 601.183 311.692 584.943 325.34 554.938 321.603 c 24
 488.708 313.354 461.35 275.357 401.513 245.793 c 17
 355.454 210.019 371.994 204.806 278.772 132.078 c 9
 280.886 115.183 273.674 102.15 284.188 88.7568 c 24
 293.957 76.3145 312.499 86.8955 322.094 74.3184 c 24
 335.39 56.8857 325.396 40.1846 327.509 18.3623 c 17
 300.311 8.7002 237.401 14.958 175.888 7.53223 c 1
 120.165 20.1592 71.4307 -1.99609 33.293 16.5576 c 1
EndSplineSet
EndChar
StartChar: Ccedilla
Encoding: 199 199 71
Width: 641
Flags: H
Fore
440.095 12.7749 m 1
 444.343 -10.2213 438.529 -35.7537 430 -62 c 12
 415.578 -106.391 387.125 -122.719 350 -151 c 28
 333.359 -163.688 322.719 -172 302 -175 c 28
 264.375 -180.469 184.406 -189.297 206 -158 c 20
 246 -100 278.109 -108.312 315 -67 c 28
 328.688 -51.6719 350.75 -42.4062 344 -23 c 20
 342.993 -20.1069 341.684 -17.7178 340.119 -15.7466 c 1
 323.045 -19.0038 304.726 -20.8082 284 -20 c 12
 231.438 -17.9531 199.094 -11.0938 154 16 c 28
 118.062 37.5938 108.859 63.5781 80 94 c 21
 47.625 177.156 61.5 246.812 74 352 c 13
 164 604 l 21
 220.047 692.281 277.062 713.109 386 743 c 5
 454.406 767.969 478.375 767.812 578 767 c 13
 606.078 750.234 618.469 732.703 650 724 c 28
 677.062 716.531 693.922 724 722 724 c 21
 745.922 668.969 711.266 580.75 716 514 c 13
 692.594 511.656 677.016 497.453 656 508 c 28
 631.609 520.25 634.781 545.062 620 568 c 28
 591.75 611.828 585.703 646.688 544 678 c 28
 526.25 691.328 512.203 695.781 490 696 c 28
 440.172 696.5 409.109 686.172 368 658 c 28
 308 616.891 284.516 577.047 252 512 c 28
 228.562 465.125 225.484 433.875 218 382 c 28
 212.547 344.156 211.656 322.094 215 284 c 28
 219.172 236.375 214.703 204.562 240 164 c 28
 268.234 118.719 296.828 95.1406 348 80 c 28
 374.281 72.2188 391.547 78.8906 418 86 c 28
 460.453 97.4219 486.703 105.297 520 134 c 28
 558.344 167.047 549.172 215.016 592 242 c 28
 606 250.828 629.984 264.047 634 248 c 20
 641 220 637.469 168.406 632 118 c 28
 626.938 71.3125 636.562 37.2812 608 0 c 28
 597.391 -13.8438 583.75 -27.5 568 -20 c 28
 555.016 -13.8125 570.75 6.45312 560 16 c 28
 542.406 31.6094 523.484 23.0938 500 22 c 20
 477.734 20.9691 458.247 17.4143 440.095 12.7749 c 1
EndSplineSet
EndChar
StartChar: Eth
Encoding: 208 208 80
Width: 732
VWidth: 1080
Flags: HW
VStem: 138.246 108.904<200.747 326.875>
Fore
341.844 430.566 m 1
 352.976 427.11 362.695 421.318 371 410 c 12
 387.656 387.281 392.781 361.344 377 338 c 20
 357.484 309.147 329.559 304.198 297.357 302.927 c 1
 292 288 l 8
 274.844 240.141 255.781 215.906 246 166 c 24
 240.297 136.906 244.781 119.641 244 90 c 17
 296.234 78.75 349.031 83.6719 400 78 c 9
 435.094 108.422 458.438 121.922 490 156 c 24
 540.766 210.828 571.625 242.656 604 310 c 24
 627.766 359.453 641.438 391.156 640 446 c 24
 638.203 514.797 632.328 563.109 586 614 c 24
 550.016 653.531 513.438 669.562 460 668 c 24
 433.844 667.234 416.547 658.266 400 638 c 24
 360.141 589.203 376.344 542.281 358 482 c 16
 341.844 430.566 l 1
192.786 425.453 m 1
 249 639 l 9
 213.516 653.438 175.656 642 158 676 c 24
 143.609 703.703 168.984 723.578 176 754 c 17
 236.891 756.109 277.5 757.719 338 760 c 9
 370.766 752.984 389.172 748.688 422 742 c 24
 510.734 723.938 569.469 739.438 650 698 c 24
 707.406 668.469 738.516 640.359 770 584 c 24
 791.188 546.078 791.828 518.438 793 475 c 24
 795 401.219 790.75 356.781 764 288 c 24
 751.766 256.547 737.109 242.328 716 216 c 24
 669.422 157.891 645.156 120.516 584 78 c 24
 512.859 28.5469 459.562 24.3125 380 -10 c 17
 243.188 0.671875 134.328 -24.1562 22 -8 c 9
 13.4219 19.2969 -9.07812 34.8594 0 62 c 24
 14.9062 106.547 70.2031 94.1406 98 132 c 24
 123.25 166.406 117.984 195.688 132 236 c 16
 156.069 302.097 l 1
 134.933 306.711 116.224 316.97 101 338 c 12
 86.5312 358 90.7344 382.438 107 401 c 20
 130.671 428.015 159.71 424.848 192.786 425.453 c 1
EndSplineSet
EndChar
StartChar: multiply
Encoding: 215 215 86
Width: 430
VWidth: 1080
Flags: W
Fore
386.968 439.5 m 5
 374.218 460.5 351.718 451.5 327.718 453.75 c 5
 332.218 447 287.968 390.75 285.718 382.5 c 5
 259.468 350.25 267.718 349.5 245.968 341.25 c 5
 233.968 336.75 223.468 336 212.218 342.75 c 5
 193.468 354.75 153.718 426.75 140.968 453.75 c 5
 101.218 453.75 139 457.75 88 445 c 5
 127.75 391 162.718 312 185.218 264 c 5
 160.468 220.5 155.218 216 104.218 165 c 5
 110.218 150 59.2178 97.5 74.2178 92.25 c 5
 104.218 85.5 100.25 84 134 87 c 5
 129.5 104.25 160.468 153 162.718 161.25 c 5
 176.968 186.75 180.718 178.5 196.468 194.25 c 5
 216.718 195 216.718 195 227.968 194.25 c 5
 245.218 186.75 253.468 183.75 257.968 165 c 5
 260.218 155.25 313.468 101.25 308.968 92.25 c 5
 335.218 95.25 344.218 92.25 372.718 105.75 c 5
 381.718 118.5 374.218 130.5 368.968 145.5 c 5
 323.218 204.75 281.968 225 257.968 285.75 c 5
 299.218 340.5 358.468 408.75 386.968 439.5 c 5
EndSplineSet
EndChar
StartChar: Oslash
Encoding: 216 216 87
Width: 736
VWidth: 1080
Flags: HW
Fore
700.306 662.695 m 1
 719.844 681 l 5
 718.562 702 675.781 684.703 672.266 706 c 20
 672.047 707.266 671.953 708.516 671.953 709.75 c 4
 671.953 722.312 682.297 733.625 695.25 740 c 5
 765.25 740 784.141 745 799.141 745 c 4
 814.141 745 825.25 740 879.734 720 c 5
 882.281 715.562 883.453 710.656 883.453 705.625 c 4
 883.453 692.516 875.453 678.453 862.734 669 c 4
 858.469 665.828 854.422 664.703 850.469 664.703 c 4
 840.938 664.703 831.875 671.219 821.141 671.219 c 4
 817.859 671.219 814.406 670.609 810.734 669 c 5
 742.172 605.555 l 1
 786.78 512.324 779.999 438.729 761 334 c 8
 745.266 247.312 718.703 199.047 664 130 c 24
 626.781 83.0156 596.281 63.3125 544 34 c 24
 510 14.9375 488.391 6.73438 450 0 c 24
 387.766 -10.9062 349.188 -15.7188 288 0 c 16
 266.72 5.463 250.561 13.2445 235.653 22.3038 c 1
 192.631 20.6805 167.848 16.7812 135.766 16.7812 c 4
 115.516 16.7812 92.3438 18.3281 59.8281 23 c 5
 48.3125 41.2344 26.125 47.6719 26.125 67.7344 c 4
 26.125 69.9688 26.3906 72.375 27 75 c 12
 32.2969 98.125 53.4375 108.141 76.4062 117 c 20
 80.875 118.719 85.2031 119.406 89.4219 119.406 c 4
 103.943 119.406 117.119 111.299 129.644 109.301 c 1
 100.544 152.004 94.921 197.488 86 276 c 1
 81.8281 347.531 79.9531 391.578 98 462 c 24
 114.453 526.219 126 566.406 170 616 c 24
 222.438 675.094 269.672 691.234 342 723 c 24
 348.672 725.922 352.984 726.047 360 728 c 17
 378.906 645.797 377.328 670.172 366 638 c 9
 326.219 593.547 295.906 574.406 264 524 c 24
 238.203 483.234 234.719 454.453 216 410 c 17
 200.783 320.843 188.996 256.88 215.639 179.03 c 1
 348.849 312.114 397.848 362.529 524 472 c 4
 597.209 539.233 614.589 567.692 646.357 605.494 c 1
 635.5 633.508 620.317 655.202 592 676 c 8
 568.672 693.141 548.672 697.953 520 694 c 17
 470.406 688.281 453.266 654.812 436 646 c 9
 422.438 642.391 414.047 646 400 646 c 17
 374.938 670.969 392.766 710.266 388 742 c 9
 425.438 747.453 446.234 758.297 484 756 c 17
 546 765.828 571.719 744.812 616 720 c 1
 646.883 697.104 675.947 683.673 700.306 662.695 c 1
666.612 526.673 m 1
 637.893 493.862 612.989 462.89 553.828 403 c 4
 469.781 312 416.031 268 301.406 134 c 5
 295.969 123.344 279.688 112.094 279.688 99.7344 c 4
 279.688 98.1719 279.953 96.5938 280.531 95 c 4
 282.406 89.75 287.156 88.3125 292.938 88.3125 c 4
 299.844 88.3125 308.234 90.375 314.922 90.375 c 4
 320.734 90.375 325.266 88.8125 326.406 83 c 4
 326.75 81.2656 326.906 79.5938 326.906 78 c 4
 326.906 70.4117 323.245 64.2337 317.649 58.5825 c 1
 322.082 56.2164 326.843 54.0158 332 52 c 8
 357.422 42.0625 375.906 43.9844 402 52 c 24
 477.688 75.25 518.703 105.672 570 166 c 24
 616.797 221.031 630.922 263.812 648 334 c 16
 666.045 408.163 676.877 460.024 666.612 526.673 c 1
EndSplineSet
EndChar
StartChar: Thorn
Encoding: 222 222 93
Width: 613
VWidth: 1080
Flags: HW
VStem: 139 118<-136 13>
Fore
307 270 m 1
 337.797 242.547 394.234 267.531 445 258 c 9
 466.062 279.062 485.297 285.562 499 312 c 24
 524.312 360.844 538.25 398.141 523 451 c 24
 514.266 481.25 498.719 500.609 469 511 c 24
 442.125 520.391 419.875 515.953 397 499 c 24
 354.688 467.641 360.406 425.188 337 378 c 17
 328.469 336.922 297.375 305.922 307 270 c 1
384.18 652.42 m 1
 383.931 623.052 383.704 594.406 387 594.406 c 1
 441.688 594.438 480.734 606 536 585 c 8
 597.266 561.734 643.141 541.641 668 481 c 24
 688.125 431.906 669.828 395.609 651 346 c 24
 631.891 295.625 612.969 268.125 573 232 c 24
 551.25 212.344 532.734 210.047 507 196 c 17
 438.625 161.953 363.203 216.188 287 176 c 24
 263.719 163.719 263 183.344 244 124 c 8
 238.875 108 246 140 228 84 c 8
 224.359 72.6875 244.391 74.5469 256 72 c 24
 283.438 65.9688 309.297 90.9531 328 70 c 24
 346.25 49.5625 324.344 27.2969 322 0 c 17
 262.266 1.65625 239.734 -3.8125 190 -5 c 0
 128.047 7.78125 77.0625 -13.4219 31 9 c 9
 31 36.2969 14.5781 57.1875 31 79 c 24
 45.4062 98.1406 66.9844 89.375 90 96 c 17
 150 204 156.953 303.75 203 424 c 1
 229.722 520 250.995 579.501 278.283 650.893 c 1
 255.992 652.51 233.814 653.965 199 653 c 9
 196.656 680.297 174.75 702.562 193 723 c 24
 211.703 743.953 237.016 722.594 265 725 c 24
 330.172 730.594 365.734 753.469 431 749 c 24
 454.891 747.359 475.594 751.141 490 732 c 24
 506.422 710.188 490 689.297 490 662 c 17
 457.817 646.334 423.232 651.964 384.18 652.42 c 1
EndSplineSet
EndChar
StartChar: adieresis
Encoding: 228 228 34
Width: 457
Flags: HW
Fore
447.75 525.75 m 28
 476.761 518.046 503.781 522.146 522 546 c 28
 539.577 569.013 535.251 594.502 522 620.25 c 28
 511.638 640.386 497.396 654 474.75 654 c 28
 452.104 654 437.862 640.386 427.5 620.25 c 28
 414.25 594.502 416.419 572.753 427.5 546 c 28
 431.774 535.682 436.956 528.617 447.75 525.75 c 28
297.75 525.75 m 28
 326.761 518.046 353.781 522.146 372 546 c 28
 389.577 569.013 385.251 594.502 372 620.25 c 28
 361.638 640.386 347.396 654 324.75 654 c 28
 302.104 654 287.862 640.386 277.5 620.25 c 28
 264.25 594.502 266.419 572.753 277.5 546 c 28
 281.774 535.682 286.956 528.617 297.75 525.75 c 28
EndSplineSet
Ref: 97 97 N 1 0 0 1 0 0
EndChar
StartChar: ae
Encoding: 230 230 36
Width: 652
VWidth: 1000
Flags: HW
Fore
506 317 m 24
 540.989 279.134 590.31 326.668 632 357 c 24
 648.277 368.843 668.274 379.873 662 399 c 24
 654.58 421.617 627.685 420.372 604 418 c 24
 570.98 414.692 551.893 400.938 530 376 c 24
 513.612 357.332 489.142 335.244 506 317 c 24
169 93 m 24
 209.572 69.0938 242.242 115.226 277 147 c 24
 311.51 178.547 322.859 205.499 340 249 c 24
 348.748 271.202 374.344 317.379 352 309 c 16
 320 297 280.425 278.495 242 248 c 24
 207.395 220.536 181.008 205.552 166 164 c 24
 156.585 137.934 145.122 107.069 169 93 c 24
48 27 m 24
 16.3018 60.6885 40.6797 98.9805 36 145 c 17
 110.685 249.527 142.901 261.456 226 317 c 24
 322.884 381.758 380.284 415.45 496 445 c 0
 559.703 461.268 619.674 488.218 674 445 c 24
 706.575 419.086 712.085 380.171 698 341 c 24
 682.375 297.546 645.059 290.134 604 269 c 24
 568.461 250.707 540.884 258.514 506 239 c 24
 459.7 213.101 426.624 196.985 404 149 c 24
 394.016 127.822 385.723 105.829 402 89 c 24
 412.304 78.3477 425.18 89 440 89 c 17
 482.054 104.219 497.297 136.472 530 149 c 1
 582.387 174.036 595.289 158.842 584 119 c 1
 552.758 69.708 515.047 57.5068 476 23 c 9
 452.6 8.95996 443.003 -9.05762 416 -13 c 24
 381.743 -18.002 354.48 -15.4805 330 9 c 16
 306 33 294.735 50.8047 260 59 c 9
 220.22 39.5 201.826 15.4795 158 9 c 24
 114.997 2.6416 77.7891 -4.65918 48 27 c 24
EndSplineSet
EndChar
StartChar: ccedilla
Encoding: 231 231 36
Width: 334
Flags: H
Fore
251.884 34.9095 m 1
 253.825 16.2598 248.683 -4.1211 241.75 -25 c 12
 230.719 -58.2188 209.594 -70.5312 181.75 -91.75 c 28
 169.266 -101.266 161.281 -107.5 145.75 -109.75 c 28
 117.531 -113.844 57.5625 -120.469 73.75 -97 c 20
 103.75 -53.5 127.844 -59.7344 155.5 -28.75 c 20
 165.509 -17.5372 181.49 -10.6618 177.589 3.1731 c 1
 162.164 1.90548 145.904 3.56766 128 8 c 12
 91.4062 17.0625 82.25 45.2031 53 69 c 21
 29.4844 152.766 44.2656 206.766 70 275 c 13
 133.188 349.094 145.031 421.188 232 465 c 28
 267.609 482.938 295.656 482.938 334 472 c 28
 357.109 465.406 378.031 459.281 384 436 c 28
 393.438 399.156 378.766 357.734 342 348 c 28
 320.875 342.406 317.125 374.406 296 380 c 28
 271.016 386.609 251.75 387.969 230 374 c 21
 182.203 330.812 177.062 299.391 158 248 c 13
 147.062 217.453 136.797 197.625 144 166 c 21
 142.891 126.344 156.438 108.188 188 104 c 13
 207.109 98.1406 216.062 120.594 236 122 c 28
 257.516 123.516 281.031 129.625 290 110 c 20
 303.705 80.0431 278.34 54.9858 251.884 34.9095 c 1
EndSplineSet
EndChar
StartChar: edieresis
Encoding: 235 235 40
Width: 310
Flags: HW
Fore
331.75 505.75 m 28
 360.761 498.046 387.781 502.147 406 526 c 28
 423.577 549.013 419.251 574.502 406 600.25 c 28
 395.638 620.386 381.395 634 358.75 634 c 28
 336.104 634 321.862 620.386 311.5 600.25 c 28
 298.25 574.502 300.419 552.753 311.5 526 c 28
 315.774 515.682 320.956 508.617 331.75 505.75 c 28
181.75 505.75 m 28
 210.761 498.046 237.781 502.147 256 526 c 28
 273.577 549.013 269.251 574.502 256 600.25 c 28
 245.638 620.386 231.396 634 208.75 634 c 28
 186.104 634 171.862 620.386 161.5 600.25 c 28
 148.25 574.502 150.419 552.753 161.5 526 c 28
 165.774 515.682 170.956 508.617 181.75 505.75 c 28
EndSplineSet
Ref: 101 101 N 1 0 0 1 0 0
EndChar
StartChar: idieresis
Encoding: 239 239 44
Width: 244
Flags: HW
VStem: 97 80<66 72> 97 85<72 151.447>
Fore
268.312 482.812 m 28
 290.07 477.035 310.336 480.11 324 498 c 28
 337.182 515.26 333.938 534.376 324 553.688 c 28
 316.228 568.789 305.547 579 288.562 579 c 28
 271.578 579 260.896 568.789 253.125 553.688 c 28
 243.187 534.376 244.814 518.065 253.125 498 c 28
 256.331 490.261 260.217 484.963 268.312 482.812 c 28
155.812 482.812 m 28
 177.57 477.035 197.836 480.11 211.5 498 c 28
 224.682 515.26 221.438 534.376 211.5 553.688 c 28
 203.729 568.789 193.047 579 176.062 579 c 28
 159.078 579 148.396 568.789 140.625 553.688 c 28
 130.688 534.376 132.314 518.065 140.625 498 c 28
 143.831 490.261 147.717 484.963 155.812 482.812 c 28
EndSplineSet
Ref: 305 305 N 1 0 0 1 0 0
EndChar
StartChar: eth
Encoding: 240 240 45
Width: 444
VWidth: 1000
Flags: HW
Fore
122 84 m 24
 166.328 54.9531 201.094 118.109 236 158 c 24
 268.391 195.031 282.812 223.328 290 272 c 24
 292.312 287.609 295.141 300.828 284 312 c 24
 262.281 333.797 233.344 338.141 206 324 c 17
 176.875 275.797 166.688 237.953 140 192 c 9
 126.797 151.391 86.2812 107.406 122 84 c 24
460.694 636.114 m 1
 465.925 636.342 471.487 636.125 477.75 635.25 c 12
 498.406 632.359 514.906 631.812 527.25 615 c 28
 539.75 597.953 543.594 578.5 531.75 561 c 20
 518.208 540.982 499.27 536.306 477.386 534.963 c 1
 473.098 464.572 443.304 390.578 424 318 c 1
 408.281 268.438 383.156 245.891 364 192 c 1
 396.391 150.469 441.203 145.969 444 102 c 1
 408.047 63.4219 372.141 23.8125 328 0 c 9
 256 18 l 17
 242.375 50.1094 271.359 80.7344 262 120 c 1
 254 166 225.703 47.8594 184 23 c 24
 150.625 3.09375 123.234 -6.125 86 5 c 24
 51.9062 15.1875 30.2031 33.9062 20 68 c 24
 8.0625 107.875 28.5 133.375 44 172 c 24
 69.0156 234.328 97.6875 262.281 132 320 c 17
 180.797 379.25 212.812 419.203 274 458 c 1
 340.344 476.141 366.828 455.625 386 428 c 1
 401.359 469.297 414.172 467.312 414 496 c 16
 413.868 518.337 417.148 520.602 411.116 532.124 c 1
 376.643 530.253 346.124 531.482 324.75 561 c 12
 313.891 576 317.047 594.328 329.25 608.25 c 20
 332.773 612.272 336.454 615.402 340.286 617.839 c 1
 323.548 630.534 308.638 642.715 298 666 c 0
 286.719 690.672 304.266 729.547 334.531 737.281 c 24
 386.062 750.438 409.062 700.438 447.312 660.625 c 1
 452.509 652.558 456.946 644.384 460.694 636.114 c 1
EndSplineSet
EndChar
StartChar: ocircumflex
Encoding: 244 244 48
Width: 328
Flags: HW
Fore
261.737 474.412 m 4
 265.3 497.926 270.287 525 282.4 559.2 c 5
 313.037 542.812 316.6 485.1 328 468 c 4
 335.451 456.822 409.336 458.697 405.593 472.275 c 4
 399.361 494.88 392.225 518.306 383.575 542.812 c 12
 367.327 588.85 367.9 609.787 335.125 658.238 c 5
 308.05 673.912 286.675 662.513 255.325 646.837 c 5
 209.708 558.398 196.023 530.438 175.922 476.551 c 4
 172.061 466.195 259.581 460.178 261.737 474.412 c 4
EndSplineSet
Ref: 111 111 N 1 0 0 1 0 0
EndChar
StartChar: odieresis
Encoding: 246 246 50
Width: 328
Flags: HW
Fore
319.75 475.75 m 28
 348.76 468.046 375.781 472.147 394 496 c 28
 411.577 519.013 407.251 544.502 394 570.25 c 28
 383.637 590.386 369.396 604 346.75 604 c 28
 324.104 604 309.862 590.386 299.5 570.25 c 28
 286.25 544.502 288.419 522.753 299.5 496 c 28
 303.774 485.682 308.956 478.617 319.75 475.75 c 28
169.75 475.75 m 28
 198.76 468.046 225.781 472.147 244 496 c 28
 261.577 519.013 257.251 544.502 244 570.25 c 28
 233.637 590.386 219.396 604 196.75 604 c 28
 174.104 604 159.862 590.386 149.5 570.25 c 28
 136.25 544.502 138.419 522.753 149.5 496 c 28
 153.774 485.682 158.956 478.617 169.75 475.75 c 28
EndSplineSet
Ref: 111 111 N 1 0 0 1 0 0
EndChar
StartChar: divide
Encoding: 247 247 51
Width: 346
Flags: W
Fore
154.312 322.812 m 28
 176.07 317.034 196.336 320.109 210 338 c 28
 223.182 355.26 219.938 374.377 210 393.688 c 28
 202.229 408.789 191.547 419 174.562 419 c 28
 157.578 419 146.896 408.789 139.125 393.688 c 28
 129.188 374.377 130.813 358.065 139.125 338 c 28
 142.331 330.262 146.217 324.963 154.312 322.812 c 28
154.312 49.8125 m 28
 176.07 44.0342 196.336 47.1094 210 65 c 28
 223.182 82.2598 219.938 101.377 210 120.688 c 28
 202.229 135.789 191.547 146 174.562 146 c 28
 157.578 146 146.896 135.789 139.125 120.688 c 28
 129.188 101.377 130.813 85.0654 139.125 65 c 28
 142.331 57.2617 146.217 51.9629 154.312 49.8125 c 28
33 202 m 28
 18.5273 221.992 22.7354 246.436 39 265 c 28
 69.8604 300.223 109.836 284.136 156 292 c 28
 187.333 297.338 205.521 305.398 237 301 c 28
 264.543 297.151 286.553 296.426 303 274 c 28
 319.664 251.278 324.784 225.342 309 202 c 28
 282.258 162.452 239.707 167.81 192 166 c 28
 128.466 163.59 70.2822 150.499 33 202 c 28
EndSplineSet
EndChar
StartChar: oslash
Encoding: 248 248 52
Width: 352
VWidth: 1000
Flags: HW
Fore
307.233 418.779 m 1
 319.672 437.75 l 9
 349.787 453.356 363.184 481.545 396.891 477.766 c 24
 418.08 475.39 432.556 462.916 438.656 442.484 c 24
 453.127 394.019 425.41 273.5 401.688 318.172 c 16
 386.168 347.396 382.288 358.516 381.488 361.989 c 0
 380.406 366.682 384.945 357.423 374 360 c 0
 367.072 361.633 360.982 361.314 355.415 359.62 c 1
 356.614 345.691 354.818 330.443 354 314 c 8
 349.487 223.33 329.839 170.359 284 92 c 24
 258.087 47.7021 243.231 10.4932 194 -4 c 16
 151.709 -16.4502 114.442 -10.9727 81.915 13.8975 c 1
 63.9443 -5.46387 34.5195 -34.875 16.7812 -46.8438 c 9
 3.82031 -49.1289 -5.83887 -60.4844 -16.4531 -52.7031 c 24
 -49.0371 -28.8174 -50.7168 15.3145 -30 50 c 24
 -20.3789 66.1074 -2.54688 73.7783 14.9766 67.0742 c 16
 32.1074 60.5205 28.2725 63.4805 47.4697 56.3896 c 1
 39.3047 78.0391 41.2275 101.949 42 130 c 8
 43.5215 185.266 56.5322 216.929 82 266 c 24
 115.5 330.549 131.2 383.248 198 412 c 16
 236.303 428.486 273.62 433.728 307.233 418.779 c 1
264.475 349.303 m 1
 254.858 350.223 244.512 347.904 234 344 c 8
 192.094 328.422 178.281 298.75 156 260 c 16
 131.924 218.138 120.26 187.858 115.7 144.58 c 1
 161.969 214.969 l 8
 188.25 253.469 197.656 279.969 231.078 312.469 c 16
 253.906 334.652 257.493 337.857 264.475 349.303 c 1
296.122 305.674 m 1
 281.137 285.231 274.475 264.654 257.078 239.875 c 8
 236.156 210.062 245.844 211.484 201.234 165.031 c 0
 175.438 138.188 153.047 108.094 129.969 68.1875 c 1
 125.1 62.6777 l 1
 126 62 l 8
 143.109 49.5 161.594 57.4844 180 68 c 24
 215.562 88.3125 223.359 116.062 243 152 c 24
 269.75 200.938 285.734 230.688 293 286 c 16
 293.906 292.896 295.277 299.452 296.122 305.674 c 1
EndSplineSet
EndChar
StartChar: udieresis
Encoding: 252 252 56
Width: 438
Flags: H
VStem: 47 93<142 375> 291 86<127 394>
Fore
363.75 499.75 m 28
 392.761 492.046 419.781 496.147 438 520 c 28
 455.577 543.013 451.251 568.502 438 594.25 c 28
 427.638 614.386 413.397 628 390.75 628 c 28
 368.105 628 353.862 614.386 343.5 594.25 c 28
 330.25 568.502 332.419 546.753 343.5 520 c 28
 347.774 509.682 352.956 502.617 363.75 499.75 c 28
213.75 499.75 m 28
 242.761 492.046 269.781 496.147 288 520 c 28
 305.577 543.013 301.251 568.502 288 594.25 c 28
 277.638 614.386 263.397 628 240.75 628 c 28
 218.105 628 203.862 614.386 193.5 594.25 c 28
 180.25 568.502 182.419 546.753 193.5 520 c 28
 197.774 509.682 202.956 502.617 213.75 499.75 c 28
EndSplineSet
Ref: 117 117 N 1 0 0 1 0 0
EndChar
StartChar: thorn
Encoding: 254 254 58
Width: 372
VWidth: 1000
Flags: HW
VStem: 290 118<-160 3>
Fore
278 408 m 17
 230.844 367.828 233.125 313.406 212 252 c 1
 202.359 208.328 192.453 195.906 187 139 c 9
 210.016 132.375 223.422 114.031 246 122 c 24
 288.25 136.906 286.266 179.344 312 216 c 17
 332.109 269.297 341.297 293.875 348 366 c 9
 340.984 384.719 347.062 403.578 330 414 c 24
 312.578 424.641 298.281 410.344 278 408 c 17
217.106 553.955 m 1
 207.19 555.873 197.562 559.929 188 568 c 8
 171.031 582.312 157.672 603.547 170 622 c 24
 200.406 667.516 255.281 633.672 310 632 c 24
 345.391 630.922 381.25 636.891 400 620 c 9
 376 548 l 17
 347.564 550.594 332.117 551.835 322.751 552.362 c 1
 320.176 525.999 309.852 505.464 302 478 c 9
 330.078 461.625 356.359 463.297 374 436 c 24
 422.531 360.906 420.547 294.516 398 208 c 24
 385.719 160.875 363.312 137.297 326 106 c 24
 292.312 77.75 259.109 84.4688 224 58 c 24
 184.266 28.0625 172.766 -0.5625 140 -38 c 17
 115.672 -84.3594 89.0312 -128.312 84 -178 c 9
 105.844 -183.453 129.172 -172.266 140 -192 c 24
 150.688 -211.453 138.969 -231.688 122 -246 c 24
 90.6406 -272.469 58.5625 -255.766 18 -262 c 17
 -8.04688 -262 12.6094 -258.828 -66 -266 c 9
 -90 -194 l 17
 -71.25 -177.109 -27.375 -208.859 0 -182 c 1
 45.8125 -62 63.2812 5.26562 104 122 c 9
 104 122 164 347 182 405 c 0
 198 474 183.859 442.125 212 498 c 1
 217.279 517.793 214.913 537.065 217.106 553.955 c 1
EndSplineSet
EndChar
StartChar: ydieresis
Encoding: 255 255 58
Width: 371
Flags: HW
Fore
334.25 479.75 m 28
 363.26 472.046 390.281 476.146 408.5 500 c 28
 426.077 523.012 421.751 548.502 408.5 574.25 c 28
 398.137 594.386 383.896 608 361.25 608 c 28
 338.604 608 324.362 594.386 314 574.25 c 28
 300.75 548.502 302.918 526.753 314 500 c 28
 318.274 489.681 323.456 482.617 334.25 479.75 c 28
184.25 479.75 m 28
 213.26 472.046 240.281 476.146 258.5 500 c 28
 276.077 523.012 271.751 548.502 258.5 574.25 c 28
 248.137 594.386 233.896 608 211.25 608 c 28
 188.604 608 174.362 594.386 164 574.25 c 28
 150.75 548.502 152.918 526.753 164 500 c 28
 168.274 489.681 173.456 482.617 184.25 479.75 c 28
EndSplineSet
Ref: 121 121 N 1 0 0 1 0 0
EndChar
StartChar: Dcroat
Encoding: 272 272 73
Width: 732
VWidth: 1080
Flags: HW
VStem: 138.262 108.902<200.747 329.746>
Fore
342.934 433.926 m 1
 356.14 430.668 367.496 424.952 377 412 c 12
 393.656 389.281 398.781 363.344 383 340 c 20
 362.411 309.562 332.465 305.726 298.012 304.747 c 1
 292 288 l 8
 274.844 240.141 255.781 215.906 246 166 c 24
 240.297 136.906 244.781 119.641 244 90 c 17
 296.234 78.75 349.031 83.6719 400 78 c 9
 435.094 108.422 458.438 121.922 490 156 c 24
 540.766 210.828 571.625 242.656 604 310 c 24
 627.766 359.453 641.438 391.156 640 446 c 24
 638.203 514.797 632.328 563.109 586 614 c 24
 550.016 653.531 513.438 669.562 460 668 c 24
 433.844 667.234 416.547 658.266 400 638 c 24
 360.141 589.203 376.344 542.281 358 482 c 16
 342.934 433.926 l 1
193.281 427.381 m 1
 249 639 l 9
 213.516 653.438 175.656 642 158 676 c 24
 143.609 703.703 168.984 723.578 176 754 c 17
 236.891 756.109 277.5 757.719 338 760 c 9
 370.766 752.984 389.172 748.688 422 742 c 24
 510.734 723.938 569.469 739.438 650 698 c 24
 707.406 668.469 738.516 640.359 770 584 c 24
 791.188 546.078 791.828 518.438 793 475 c 24
 795 401.219 790.75 356.781 764 288 c 24
 751.766 256.547 737.109 242.328 716 216 c 24
 669.422 157.891 645.156 120.516 584 78 c 24
 512.859 28.5469 459.562 24.3125 380 -10 c 17
 243.188 0.671875 134.328 -24.1562 22 -8 c 9
 13.4219 19.2969 -9.07812 34.8594 0 62 c 24
 14.9062 106.547 70.2031 94.1406 98 132 c 24
 123.25 166.406 117.984 195.688 132 236 c 16
 157.261 305.258 l 1
 138.091 310.344 121.059 320.579 107 340 c 12
 92.5312 360 96.7344 384.438 113 403 c 20
 135.348 428.506 162.483 427.107 193.281 427.381 c 1
EndSplineSet
EndChar
StartChar: dcroat
Encoding: 273 273 74
Width: 508
Flags: HW
HStem: 538 92<318 319> 538 95.296<294 318>
VStem: 318 70<517 542 638.816 644 644.031 690.991>
Fore
122 84 m 24
 166.328 54.9531 201.094 118.109 236 158 c 24
 268.391 195.031 282.812 223.328 290 272 c 24
 292.312 287.609 295.141 300.828 284 312 c 24
 262.281 333.797 233.344 338.141 206 324 c 17
 176.875 275.797 166.688 237.953 140 192 c 9
 126.797 151.391 86.2812 107.406 122 84 c 24
399.571 471.869 m 1
 366.653 472.884 337.764 480.935 316 511 c 8
 301.531 531 305.734 555.438 322 574 c 16
 351.634 607.82 389.682 594.337 433.53 600.172 c 1
 437.764 609.581 443.682 621.77 452 638 c 9
 420.797 645.016 385.875 627.188 372 656 c 24
 359.578 681.766 391.516 696.266 404 722 c 17
 419.734 744.094 440.344 755.906 560 746 c 1
 602.016 709.906 565.344 663.047 550 610 c 1
 547.862 605.846 l 1
 562.82 602.752 575.532 597.265 586 583 c 8
 602.656 560.281 607.781 534.344 592 511 c 16
 566.456 473.236 526.506 476.421 481.418 475.206 c 1
 459.195 427.951 440.605 380.429 424 318 c 1
 408.281 268.438 383.156 245.891 364 192 c 1
 396.391 150.469 441.203 145.969 444 102 c 1
 408.047 63.4219 372.141 23.8125 328 0 c 9
 256 18 l 17
 242.375 50.1094 271.359 80.7344 262 120 c 1
 254 166 225.703 47.8594 184 23 c 24
 150.625 3.09375 123.234 -6.125 86 5 c 24
 51.9062 15.1875 30.2031 33.9062 20 68 c 24
 8.0625 107.875 28.5 133.375 44 172 c 24
 69.0156 234.328 97.6875 262.281 132 320 c 17
 180.797 379.25 212.812 419.203 274 458 c 1
 340.344 476.141 366.828 455.625 386 428 c 1
 392.076 444.337 396.098 458.313 399.571 471.869 c 1
EndSplineSet
EndChar
StartChar: ebreve
Encoding: 277 277 78
Width: 310
Flags: HW
Fore
408.25 625.25 m 28
 377.82 616.447 381.832 579.421 353.5 565.25 c 28
 337.205 557.1 325.073 558.446 307 560.75 c 28
 287.54 563.23 274.194 564.726 259.75 578 c 28
 236.721 599.164 255.282 639.758 226 650.75 c 28
 199.03 660.874 148 663.5 158.5 620.75 c 4
 166 587.75 180.613 567.749 206.5 543.5 c 28
 224.168 526.95 237.908 520.67 261.25 514.25 c 28
 279.602 509.203 290.967 511.88 310 512 c 28
 329.924 512.126 341.936 509.209 361 515 c 28
 381.447 521.211 393.465 527.319 408.25 542.75 c 28
 430.248 565.709 459.095 585.555 446.5 614.75 c 28
 440.373 628.954 423.11 629.549 408.25 625.25 c 28
EndSplineSet
Ref: 101 101 N 1 0 0 1 0 0
EndChar
StartChar: Hbar
Encoding: 294 294 93
Width: 810
VWidth: 1080
Flags: HW
Fore
778.054 571.89 m 1
 811.636 572.549 844.543 574.209 877.406 577.406 c 12
 927.609 582.297 885.078 506.797 857.125 513.375 c 5
 825.09 514.053 796.817 514.594 771.243 515.03 c 1
 766.903 474.531 761.246 431.087 742 386 c 1
 718 264 661.016 171.562 644 74 c 9
 675.203 69.3125 704.766 87 724 62 c 24
 736.922 45.2031 720.344 29.0625 718 8 c 17
 673.656 17.8594 622.906 6.875 562 0 c 1
 511.391 11.6719 472 -7.3125 412 0 c 9
 416.688 26.5156 403.859 50.125 424 68 c 24
 455.547 96 489.875 71.6562 532 74 c 17
 568.203 164.531 608.688 287.859 580 356 c 1
 497.469 350.562 376.344 360.172 298 344 c 1
 232.484 280.891 239.406 184.234 238 74 c 9
 268.422 71.6562 297.578 92.3125 316 68 c 24
 330.406 48.9844 308.688 31.4062 304 8 c 17
 272.203 9.40625 212.734 5.84375 152 0 c 1
 110.406 11.2969 81.0469 -7.17188 14 0 c 9
 21.0156 30.4219 9.39062 56.4688 32 78 c 24
 54.3906 99.3125 96.1719 64.3594 110 92 c 16
 122 116 130.625 148.672 140 186 c 24
 150.438 227.547 151.453 252.031 160 294 c 24
 170.047 343.328 173.594 371.766 188 420 c 16
 199.83 459.622 212.665 490.983 225.563 521.221 c 1
 139.312 522.766 l 5
 109.391 515.641 109.984 545.062 124.234 557.188 c 20
 139.991 570.595 189.185 576.569 249.802 578.88 c 1
 257.467 598.135 264.937 618.639 272 642 c 1
 250.703 679.016 195.375 631.031 164 660 c 24
 149.828 673.094 156.688 689.281 152 708 c 17
 186.859 723.891 246.797 708.094 308 726 c 1
 365.734 720.641 412.781 737.203 464 720 c 9
 461.656 701.281 471.5 685.172 458 672 c 24
 441.172 655.578 416.641 680.344 398 666 c 16
 369.088 643.746 372.866 613.96 364.717 579.919 c 1
 403.089 579.515 440.932 578.633 474 578 c 4
 550.99 576.521 619.918 573.477 684.666 572.166 c 1
 699.252 602.956 715.804 628.969 698 660 c 8
 683.266 685.672 654.078 674.641 626 684 c 17
 626.406 705.094 639.578 725.891 650 738 c 1
 682.234 752.5 727.219 729.625 782 732 c 1
 821.984 729.078 851.922 746.969 888 732 c 1
 916 690 890 666 890 666 c 17
 869.609 666.516 842.422 678.531 812 660 c 1
 791.875 633.88 783.219 604.227 778.054 571.89 c 1
347.821 519.314 m 1
 340.445 489.637 335.233 462.912 326 426 c 1
 415.281 402.156 537.891 407.625 614 408 c 1
 632.912 451.48 648.782 478.292 663.592 516.476 c 1
 572.559 517.349 502.681 517.162 347.821 519.314 c 1
EndSplineSet
EndChar
StartChar: hbar
Encoding: 295 295 94
Width: 485
VWidth: 1000
Flags: HW
VStem: 101.837 86.287<319.375 413.719 480.094 507.094 577.406 589.781>
Fore
188.124 501.225 m 1
101.837 498.016 m 1
101.995 624.339 m 1
187.499 635.499 m 1
185.933 477.799 m 1
 153.695 478.493 125.402 483.151 104 499.781 c 12
 89.5312 511.031 93.7344 524.781 110 535.219 c 20
 139.134 553.924 176.402 546.906 219.317 549.784 c 1
 226.607 563.169 233.1 576.439 237.094 595.266 c 8
 242.078 618.703 250.531 636.875 237.094 656.719 c 24
 227.234 671.281 202.219 657.328 195.203 673.469 c 24
 185.562 695.609 199.625 715.031 217.547 731.188 c 24
 235.984 747.828 254.156 747.266 278.984 747.953 c 24
 310.172 748.812 336.531 754.562 357.188 731.188 c 24
 373.609 712.625 376.375 688.609 362.781 667.891 c 24
 355.219 656.359 339.375 666.078 329.266 656.719 c 17
 309.206 625.909 299.158 592.898 286.375 556.139 c 1
 293.024 556.267 300.092 556.089 308 555.469 c 12
 335.547 553.297 357.547 552.891 374 540.281 c 28
 390.656 527.5 395.781 512.906 380 499.781 c 28
 353.25 477.531 310.703 480.547 263 479.531 c 20
 260.294 479.473 257.597 479.405 254.911 479.328 c 1
 232.329 424.672 222.821 417.797 197.062 332.719 c 9
 214.125 347.25 224.172 354.969 240.812 369.969 c 24
 248.641 377.016 250.734 384.344 260.375 388.578 c 24
 320.344 414.922 376.078 439.75 427.953 399.75 c 24
 461.344 374.016 452.672 335.562 448.438 293.625 c 24
 441.547 225.594 418.609 189 381.406 131.625 c 24
 350.375 83.7969 327.797 57.8594 280.859 25.5 c 24
 257.531 9.42188 242.094 -4.03125 213.828 -2.4375 c 24
 191.422 -1.17188 175.969 6.82812 163.547 25.5 c 24
 152.625 41.9219 151.984 56.9688 157.969 75.7656 c 24
 165.906 100.766 176.672 122.422 202.656 126.047 c 24
 230.781 129.969 236 82.7656 264.094 86.9375 c 24
 303.828 92.8594 309.094 131.547 331.125 165.141 c 24
 346.625 188.781 355.469 203.016 362.781 230.312 c 24
 370.688 259.844 379.062 279.875 368.375 308.516 c 24
 361.906 325.844 353.25 340.328 334.844 342.031 c 24
 284.906 346.672 264.734 304.328 228.719 269.422 c 24
 195.141 236.859 185.562 210.359 157.969 172.594 c 17
 117.094 114.016 111.984 40.8906 74.1719 16.1875 c 9
 12.7188 38.5312 l 17
 28.5 107.625 56.2812 130.562 73.2344 187.484 c 1
 118.026 302.079 142.745 372.325 185.933 477.799 c 1
EndSplineSet
EndChar
StartChar: itilde
Encoding: 297 297 96
Width: 244
Flags: HW
VStem: 97 80<66 72> 97 85<72 151.447>
Fore
177.39 560.864 m 28
 197.276 559.657 205.781 547.993 224.253 540.526 c 28
 237.911 535.007 245.015 525.337 259.621 527.264 c 28
 279.591 529.9 281.478 557.552 301.621 557.326 c 28
 317.138 557.153 332.353 548.932 333.452 533.453 c 28
 334.214 522.751 322.47 520.585 314 514 c 28
 292.147 497.014 280.634 479.088 252.989 477.747 c 28
 218.167 476.061 206.918 517.194 172.084 515.768 c 28
 150.631 514.89 145.534 484.935 124.336 488.358 c 28
 109.268 490.792 97.9492 502.276 98.2529 517.537 c 28
 98.5527 532.654 112.29 537.553 125.221 545.389 c 28
 143.369 556.39 156.206 562.146 177.39 560.864 c 28
EndSplineSet
Ref: 305 305 N 1 0 0 1 0 0
EndChar
StartChar: imacron
Encoding: 299 299 98
Width: 244
Flags: HW
VStem: 97 80<66 72> 97 85<72 151.447>
Fore
124.75 523 m 28
 113.896 537.994 117.052 556.327 129.25 570.25 c 28
 152.396 596.667 182.377 584.602 217 590.5 c 28
 240.5 594.503 254.142 600.549 277.75 597.25 c 28
 298.407 594.363 314.915 593.819 327.25 577 c 28
 339.748 559.959 343.588 540.507 331.75 523 c 28
 311.693 493.339 279.78 497.357 244 496 c 28
 196.35 494.192 152.712 484.374 124.75 523 c 28
EndSplineSet
Ref: 305 305 N 1 0 0 1 0 0
EndChar
StartChar: Ibreve
Encoding: 300 300 99
Width: 491
Flags: HW
Fore
636 952.5 m 28
 597.455 941.35 602.536 894.449 566.649 876.5 c 28
 546.009 866.176 530.642 867.882 507.75 870.8 c 28
 483.1 873.942 466.195 875.836 447.899 892.649 c 28
 418.73 919.458 442.24 970.876 405.149 984.8 c 28
 370.988 997.624 306.35 1000.95 319.649 946.8 c 4
 329.149 905 347.66 879.665 380.45 848.95 c 28
 402.829 827.986 420.232 820.031 449.799 811.899 c 28
 473.044 805.507 487.441 808.898 511.549 809.05 c 28
 536.787 809.209 552.002 805.515 576.149 812.85 c 28
 602.049 820.717 617.271 828.454 636 848 c 28
 663.864 877.081 700.403 902.219 684.45 939.2 c 28
 676.688 957.191 654.822 957.944 636 952.5 c 28
EndSplineSet
Ref: 73 73 N 1 0 0 1 0 0
EndChar
StartChar: ibreve
Encoding: 301 301 100
Width: 244
Flags: HW
VStem: 97 80<66 72> 97 85<72 151.447>
Fore
312 571.875 m 28
 289.177 565.273 292.185 537.503 270.937 526.875 c 28
 258.715 520.762 249.617 521.771 236.062 523.5 c 28
 221.467 525.36 211.457 526.481 200.624 536.438 c 28
 183.353 552.311 197.273 582.756 175.312 591 c 28
 155.085 598.593 116.812 600.562 124.687 568.5 c 4
 130.312 543.75 141.272 528.749 160.687 510.562 c 28
 173.938 498.15 184.243 493.439 201.749 488.625 c 28
 215.513 484.84 224.038 486.848 238.312 486.938 c 28
 253.254 487.032 262.264 484.844 276.562 489.188 c 28
 291.898 493.846 300.911 498.427 312 510 c 28
 328.499 527.219 350.133 542.104 340.687 564 c 28
 336.091 574.653 323.145 575.1 312 571.875 c 28
EndSplineSet
Ref: 305 305 N 1 0 0 1 0 0
EndChar
StartChar: dotlessi
Encoding: 305 305 102
Width: 244
VWidth: 1000
Flags: W
Fore
66 8 m 24
 46.6582 13.5771 31.656 19.3837 24 38 c 24
 14.3672 61.4229 27.9401 77.6778 35 102 c 24
 49.1328 150.69 60.5713 177.573 85 222 c 16
 102.621 254.046 118 274 140 290 c 8
 146.938 295.047 140 303.42 140 312 c 17
 101.134 308.46 135.275 308.453 54 306 c 9
 77 348 l 17
 101.281 390.274 129.464 416.502 175 440 c 1
 187.477 438.819 184.816 461.817 266 454 c 1
 270.415 412.66 286.527 387.427 255 348 c 9
 219.9 289.5 198.224 257.585 165 198 c 24
 152.173 174.996 136.843 164.185 134 138 c 24
 132.693 125.962 131.188 113.453 142 108 c 24
 170.452 93.6504 186.208 140.172 218 138 c 24
 232.285 137.024 246.991 133.999 250 120 c 24
 257.735 84.0049 221.852 68.0786 194 44 c 24
 173.938 26.6562 159.528 19.185 134 12 c 24
 108.428 4.80273 91.5253 0.639437 66 8 c 24
EndSplineSet
EndChar
StartChar: IJ
Encoding: 306 306 103
Width: 719
VWidth: 1080
Flags: HW
Fore
585.462 658.353 m 0
 575.608 658.521 565.038 659.27 554 657 c 1
 504.75 588.938 492.25 533.891 472 452 c 9
 404 266 l 17
 388.844 202.812 368.594 165.844 350 90 c 9
 379.25 78.2998 407.338 86.0871 425 60 c 24
 440.742 36.748 425 16.0801 425 -12 c 17
 397.188 -11.2812 286.672 5.73438 190 -1 c 9
 136.96 -1.78027 96.9003 -34.2003 54 -3 c 24
 41.1299 6.36035 35.4091 21.5157 42 36 c 24
 61.0908 77.9531 106.023 70.1981 150 84 c 24
 169.704 90.1836 181.72 90.0996 202 94 c 17
 225.141 143.047 221.828 182.156 244 232 c 9
 256.48 262.42 263.788 279.472 276 310 c 24
 312.688 401.721 341.8 450.751 368 546 c 24
 375.55 573.448 378.858 589.556 380 618 c 24
 380.738 636.382 388.749 651.738 376 665 c 24
 354.209 687.668 316.809 651.428 296 675 c 24
 279.739 693.42 279.096 720.17 296 738 c 24
 336.307 780.514 387.5 742.88 446 746 c 17
 490.531 736.001 545.766 749.904 609.312 755.616 c 24
 617.015 756.309 621.921 755.621 629 758 c 8
 672.748 772.7 684.848 698.084 731 698 c 24
 796.017 697.881 812.934 762.636 875 782 c 24
 904.125 791.087 927.206 804.295 953 788 c 24
 980.555 770.593 971.3 740.42 983 710 c 17
 950.234 684.656 906.875 689.203 863 668 c 1
 845.156 637.781 800.203 593.672 803 536 c 1
 826.016 526.297 843.125 530.312 872 524 c 9
 872 504.89 885.585 488.44 872 475 c 24
 846.214 449.49 815.27 475.61 779 476 c 17
 700.969 332.016 688.984 212 629 56 c 9
 485 -118 l 17
 439.25 -172.969 404.484 -186.172 353 -202 c 1
 282.594 -223.062 247.781 -191.047 197 -144 c 1
 188.547 -111.734 191.594 -74.6875 209 -48 c 9
 237.08 -44.4902 253.604 -31.9066 281 -39 c 24
 317.474 -48.4443 329.781 -72.2139 359 -96 c 24
 376.131 -109.945 380.14 -141.265 401 -134 c 16
 435.906 -121.844 428.953 -101.984 435 -72 c 1
 459.938 -36.8125 483.375 34.9844 493 110 c 9
 528.1 184.88 545.152 228.471 583 302 c 24
 602.659 340.194 634.978 355.091 637 398 c 24
 638.085 421.021 628.377 434.834 613 452 c 24
 591.31 476.214 542.296 461.518 541 494 c 24
 540.129 515.837 565.407 522.634 587 526 c 24
 618.447 530.902 635.565 489.892 665 502 c 24
 699.371 516.138 703.531 549.402 710 586 c 24
 712.88 602.294 713.212 614.255 704 628 c 24
 691.152 647.169 675.354 652.275 653 658 c 24
 628.054 664.389 616 660 587 656 c 0
 586.065 655.871 585.95 657.561 585.462 658.353 c 0
EndSplineSet
LCarets: 0 255 '    ' 1 0 
Ligature: 0 0 'liga' I J
EndChar
StartChar: ij
Encoding: 307 307 104
Width: 424
VWidth: 1000
Flags: HW
VStem: 97 77<72 195.481> 97 80<66 72> 255 98<-96 374> 255.113 2.60301<49 61.9294>
Fore
450 590 m 24
 436 591 426 592 416 602 c 24
 406 612 405 622 404 636 c 24
 404 652 406 663 416 676 c 24
 427 690 438 697 456 699 c 24
 479 701 497 699 512 681 c 17
 529.734 668.672 533.703 651.719 524 625 c 9
 518 609 506 605 492 598 c 24
 477 591 466 589 450 590 c 24
229.578 554.5 m 24
 206.625 561.094 187.406 562.938 175.828 583.828 c 24
 160.078 612.203 167.422 637.297 180.719 666.906 c 24
 190.656 689.031 201.984 702.359 224.688 710.891 c 24
 251.516 720.969 273.203 720.359 298 706 c 24
 309.891 699.109 314.312 690.031 317.547 676.672 c 24
 325.531 643.75 318.938 622.328 307.781 590.344 c 24
 301.844 573.359 299.328 559.484 283.344 551.25 c 24
 264.672 541.625 249.766 548.703 229.578 554.5 c 24
260.638 454.482 m 1
 292.007 475.6 335.975 481.14 386 516 c 9
 419.156 517.953 445.281 542.016 471 521 c 24
 496.625 500.062 494.844 467.906 483 437 c 24
 475.172 416.578 456.766 415.047 440 401 c 17
 395.781 291.062 398.062 217.375 354 132 c 9
 315.781 38.4062 300.281 -17.1094 256 -108 c 24
 233.969 -153.219 233.062 -190.938 192 -220 c 24
 149.281 -250.219 110.812 -256.469 60 -244 c 24
 34.0938 -237.641 20.4062 -224.453 6 -202 c 24
 -8.71875 -179.062 -23.7031 -157.547 -10 -134 c 24
 10.8438 -98.1562 54.5469 -86.2188 92 -104 c 24
 106.531 -110.891 94.0781 -133.953 108 -142 c 24
 124.328 -151.438 137.281 -138.344 156 -136 c 17
 178.046 -77.0124 186.454 -13.0673 208.725 55.7729 c 1
 203.754 51.9929 198.759 48.1156 194 44 c 8
 173.938 26.6562 159.531 19.1875 134 12 c 24
 108.422 4.79688 91.5312 0.640625 66 8 c 24
 46.6562 13.5781 31.6562 19.3906 24 38 c 24
 14.375 61.4219 27.9375 77.6719 35 102 c 24
 49.125 150.688 60.5781 177.578 85 222 c 16
 102.625 254.047 118 274 140 290 c 8
 146.938 295.047 140 303.422 140 312 c 17
 101.141 308.453 135.281 308.453 54 306 c 9
 77 348 l 17
 101.281 390.281 129.469 416.5 175 440 c 1
 187.188 438.839 184.925 460.788 260.638 454.482 c 1
259.205 353.563 m 1
 257.908 351.739 256.508 349.886 255 348 c 9
 219.906 289.5 198.219 257.578 165 198 c 24
 152.172 175 136.844 164.188 134 138 c 24
 132.688 125.969 131.188 113.453 142 108 c 24
 170.453 93.6562 186.203 140.172 218 138 c 16
 225.864 137.467 233.856 136.308 239.954 133.036 c 1
 246.991 147.172 254.938 161.493 264 176 c 1
 278.781 246.266 344.141 302.359 336 362 c 1
 306.813 362 281.538 345.291 259.205 353.563 c 1
EndSplineSet
LCarets: 0 255 '    ' 1 0 
Ligature: 0 0 'liga' i j
EndChar
StartChar: kgreenlandic
Encoding: 312 312 107
Width: 399
Flags: HW
VStem: 80 105<95 456> 81 104<57 197>
Fore
260 264 m 24
 245.162 270.716 235.6 271.32 220 276 c 17
 215.743 317.547 255.974 315.812 292 337 c 9
 336.46 348.31 384 348 406 366 c 0
 413.744 372.336 441.821 427.198 434 436 c 8
 412.008 460.752 382.827 426.084 352 414 c 24
 321.627 402.095 302.953 396.014 278 375 c 16
 240 343 281.05 411.6 283 435 c 17
 310.295 485.778 227.913 458.433 201 441 c 1
 171 357 104 226 104 226 c 17
 110.703 173.508 45.0615 142.995 22 42 c 1
 36.7617 4.42773 64.6719 -12.332 103 0 c 9
 131 58 l 17
 160.184 106.861 157.407 146.056 176 202 c 9
 230 196 l 17
 245.782 134.318 228.085 130.223 236 40 c 9
 252.38 30.6396 259.632 20.3046 278 16 c 24
 316.798 6.9082 350.676 -4.98229 380 22 c 24
 392.176 33.2041 395.928 50.7628 386 64 c 24
 376.072 77.2373 358.367 61.7933 344 70 c 24
 330.989 77.4316 329.36 88.2998 320 100 c 17
 311.069 186.55 335.459 189.289 308 234 c 24
 296.447 252.812 280.111 254.897 260 264 c 24
EndSplineSet
EndChar
StartChar: Lslash
Encoding: 321 321 116
Width: 649
VWidth: 1080
Flags: HW
VStem: 323.395 68.0475<227.445 290.001 306.945 406.445> 327.395 64.0475<379.43 406.857 430.445 478.906>
Fore
81 0 m 9
 83.3398 26.5195 68.0186 49.332 87 68 c 24
 110.417 91.0293 138.24 71.6602 171 74 c 17
 197.648 211.883 194.323 279.61 243 398 c 9
 280.44 484.58 308.74 530.657 339 620 c 24
 345.19 638.276 346.32 649.28 351 668 c 17
 333.875 716.279 273.85 687.611 243 703 c 9
 261 756 l 17
 349.335 758.567 367.032 748.244 405 759 c 1
 464.056 743.438 515.106 774.896 563 730 c 9
 560.66 713.62 569.039 699.352 557 688 c 24
 536.499 668.67 513.08 684.34 485 682 c 17
 435.561 600.706 435.977 516.447 395 414 c 1
 353.466 298.834 387.824 407.335 281 120 c 9
 283.34 108.3 278.563 98.4365 287 90 c 24
 320.748 56.252 359.273 66 407 66 c 24
 442.795 66 461.9 76.9805 497 84 c 17
 558.514 112.698 546.794 159.818 625 232 c 9
 661 226 l 17
 663.495 155.125 642.685 71.1641 607 16 c 1
 526.455 -11.9277 460.171 2.15137 366 -1 c 24
 254.911 -4.71777 187.642 -17.46 81 0 c 9
358.252 444.5 m 1
 432.492 496 425.17 502 493.027 549 c 1
 496.09 559.5 471.648 550.852 473.646 561.5 c 16
 473.76 562.133 473.934 562.758 474.15 563.375 c 0
 476.365 569.656 483.533 575.312 491.133 578.5 c 1
 526.133 578.5 536.461 581 543.961 581 c 0
 551.461 581 556.133 578.5 579.85 568.5 c 1
 580.34 566.281 580.061 563.828 579.174 561.312 c 0
 576.861 554.758 570.383 547.727 562.355 543 c 0
 559.664 541.414 557.441 540.852 555.465 540.852 c 0
 550.699 540.852 547.318 544.109 541.951 544.109 c 0
 540.311 544.109 538.477 543.805 536.355 543 c 1
 432.303 472 442.77 471 361 410 c 0
 302.932 364.5 268.297 342.5 187.357 275.5 c 1
 182.76 270.172 172.635 264.547 170.455 258.367 c 0
 170.18 257.586 170.035 256.797 170.043 256 c 0
 170.055 253.375 172.176 252.656 175.066 252.656 c 0
 178.52 252.656 183.078 253.688 186.422 253.688 c 0
 189.328 253.688 191.318 252.906 190.865 250 c 0
 190.73 249.133 190.514 248.297 190.232 247.5 c 0
 186.16 235.953 167.439 230.938 153.996 220 c 1
 119.66 220 104.125 216.891 83.8672 216.891 c 0
 73.7422 216.891 62.4297 217.664 46.9961 220 c 1
 44.4531 229.117 34.4941 232.336 38.0312 242.367 c 0
 38.4258 243.484 38.9824 244.688 39.75 246 c 8
 46.4766 257.562 58.8125 262.57 71.8594 267 c 16
 74.3965 267.859 76.6816 268.203 78.791 268.203 c 0
 87.0723 268.203 92.6191 262.93 99.666 262.93 c 0
 102.807 262.93 106.246 263.977 110.359 267 c 1
 234.09 358.262 265.414 385.479 358.252 444.5 c 1
EndSplineSet
EndChar
StartChar: lslash
Encoding: 322 322 117
Width: 378
VWidth: 1080
Flags: HW
VStem: 492.058 85.788<134.637 432.387 362.637 470.637 362.637 605.637>
Fore
137.038 268.94 m 1
 149.121 296.51 l 1
 148.078 295.5 l 1
 144.422 290.172 121.547 279.047 120.734 274.406 c 0
 120.625 273.828 120.625 273.234 120.734 272.641 c 0
 121.094 270.672 122.781 270.125 124.938 270.125 c 0
 127.531 270.125 130.812 270.906 133.328 270.906 c 0
 135.205 270.906 136.65 270.463 137.038 268.94 c 1
355.787 524.915 m 1
 367.353 536.643 380.39 549.173 405.516 569 c 1
 406.734 579.5 383.906 571.766 383.938 581.5 c 16
 383.938 582.125 384 582.75 384.109 583.375 c 0
 385.219 589.656 391.391 595.312 398.422 598.5 c 1
 433.422 598.5 443.312 601 450.812 601 c 0
 458.312 601 463.422 598.5 488.906 588.5 c 1
 489.781 586.281 489.938 583.828 489.5 581.312 c 0
 488.344 574.75 483.094 567.719 475.906 563 c 0
 473.5 561.406 471.375 560.844 469.391 560.844 c 0
 464.625 560.844 460.672 564.109 455.297 564.109 c 0
 453.656 564.109 451.875 563.812 449.906 563 c 1
 371.196 501.945 368.039 492.654 323.541 452.459 c 1
 311.265 423.494 299.138 392.508 286.922 356.344 c 9
 255.797 285.219 235.625 246.172 207.125 173.953 c 24
 197.312 149.094 159.844 98.6406 184.312 109.344 c 16
 214.719 122.656 227.109 145 260.312 149.25 c 24
 276.547 151.328 292.766 153.781 301.172 139.75 c 24
 310.625 123.938 293.641 111.938 288.812 94.1562 c 17
 250.734 72.375 223.047 63.1875 186.219 37.1562 c 9
 150.656 23.8125 132.969 4.48438 95.0156 2.95312 c 24
 78.8438 2.29688 70.6719 9.90625 55.125 14.3438 c 17
 53.4062 54.8125 66.4062 88.6562 77.9219 134.047 c 1
 132.948 259.607 l 1
 127.956 254.979 119.533 251.412 113.453 245.641 c 1
 87.7031 245.641 76.4688 243.312 61.2656 243.312 c 0
 53.6719 243.312 45.0938 243.891 33.2031 245.641 c 1
 30.0938 252.469 22.2031 254.891 23.5312 262.406 c 0
 23.6719 263.25 23.9375 264.156 24.3281 265.141 c 8
 28.2344 274.703 35.9219 277.391 45.6406 280.891 c 16
 47.4219 281.531 49.0938 281.781 50.6719 281.781 c 0
 56.8906 281.781 61.75 277.828 67.0312 277.828 c 0
 69.3906 277.828 69 283.969 72.5781 287 c 1
 188.456 386.268 l 1
 212.812 441.844 l 8
 246.453 516.328 283.516 552.062 301.172 631.844 c 24
 303.406 641.984 306.719 649.688 301.172 658.453 c 24
 289.984 676.078 261.922 662.5 252.719 681.25 c 24
 243.688 699.656 248.828 718.906 264.125 732.547 c 24
 295.812 760.828 336.703 766.938 372.422 743.953 c 17
 435.781 729.625 415 687.984 406.625 641.344 c 1
 388.775 597.026 371.993 560.399 355.787 524.915 c 1
EndSplineSet
EndChar
StartChar: napostrophe
Encoding: 329 329 124
Width: 474
VWidth: 1000
Flags: HW
VStem: 51 106<119 331>
Fore
194.562 570.312 m 5
 169.249 585.5 158.147 575.677 145.062 592.25 c 28
 133.862 606.433 132.99 620.11 136.624 637.812 c 28
 140.918 658.732 146.647 676.904 166.999 683.374 c 28
 193.206 691.706 214.136 678.248 232.812 658.062 c 28
 254.731 634.371 258.387 610.965 256.437 578.75 c 28
 254.875 552.958 248.658 535.874 230 518 c 28
 204.877 493.93 211.437 487.624 146.749 485.938 c 5
 135.263 497.475 197.937 509 194.562 570.312 c 5
EndSplineSet
Ref: 110 110 N 1 0 0 1 0 0
EndChar
StartChar: Eng
Encoding: 330 330 125
Width: 710
VWidth: 1080
Flags: HW
VStem: 134 65<114 657>
Fore
378 78 m 24
 390.04 47.7129 359.7 30.4199 348 0 c 17
 290.776 -1.20282 239.42 2.92188 170 0 c 1
 115.26 7.90014 66.4678 -22.8827 20 0 c 9
 29.3604 31.9805 19.4319 59.489 44 82 c 24
 79.1895 114.242 117.2 96.6396 164 106 c 17
 188.726 221.957 210 326 242 430 c 1
 261.724 497.86 260.598 532.354 311 604 c 9
 317 646 l 17
 293.085 683.906 266.371 643.143 214 664 c 9
 226 733 l 17
 291.765 754.243 376.324 745.824 448 737 c 1
 523.004 661.952 506.257 602.525 550 500 c 1
 586.845 411.123 598 296 638 258 c 1
 682.752 285.213 651.134 395.013 688 468 c 9
 708.28 521.82 722.989 551.06 740 606 c 24
 745.819 624.795 762.561 638.4 752 655 c 24
 732.786 685.201 685.925 646.375 662 673 c 24
 644.725 692.225 658.34 713.26 656 739 c 17
 709.896 755.591 753.302 743.252 814 747 c 1
 858.445 740.345 895.379 751.026 928 747 c 9
 930.34 716.58 954.73 691.386 934 669 c 24
 918.101 651.831 897.4 669 874 669 c 17
 781.758 607.207 808.298 535.184 760 410 c 1
 720.576 287.737 736.118 164.622 667.099 36 c 0
 662.461 27.3587 580.591 -146.037 474 -196 c 24
 454.931 -204.938 437.706 -207.402 420 -196 c 16
 414.818 -192.663 485.817 -138.082 530 -78 c 4
 565.327 -29.9613 575.347 25.922 575.82 30 c 0
 580 66 554.616 99.6883 538 142 c 8
 502.838 231.54 490.42 284.74 460 376 c 17
 428.292 448.93 444.917 512.797 418 586 c 9
 375 568 l 17
 353.972 468.24 355.673 404.735 327 304 c 9
 309.45 247.84 290.877 218.165 282 160 c 24
 279.882 146.121 274.519 135.881 282 124 c 24
 304.122 88.8691 362.663 116.579 378 78 c 24
EndSplineSet
EndChar
StartChar: eng
Encoding: 331 331 126
Width: 474
VWidth: 1000
Flags: HW
VStem: 52 105<119 331>
Fore
384 68 m 24
 333.878 -28.5176 335.897 -117.123 242 -172 c 24
 210.342 -190.502 125.885 -203.249 148 -174 c 16
 250 -70 l 4
 275.49 -36.1599 283.898 5.8464 306 54 c 8
 330.544 107.474 329.664 162.058 344 200 c 9
 351.41 239.78 355.01 262.332 363 302 c 24
 367.728 325.472 380.48 338.479 376 362 c 16
 368 404 314.412 320.745 286 284 c 24
 232.229 214.458 225 160.78 186 82 c 17
 156.531 48.5762 169.788 8.38281 141 1 c 1
 94.4527 -6.03116 53.9396 1.16157 39 69 c 1
 60.1943 152.886 92.7938 159.735 112 206 c 9
 128.77 243.44 152.963 261.026 155 302 c 24
 155.735 316.781 156.657 332.299 143 338 c 24
 113.706 350.229 99.0213 289.138 70 302 c 24
 54.4258 308.902 62.6797 327.62 58 344 c 17
 85.9979 394.126 128.566 414.583 166 452 c 1
 205.78 474.715 232.548 498.301 268 476 c 9
 274.24 455.72 283.093 445.199 284 424 c 24
 285.263 394.5 274.24 378.86 268 350 c 17
 282.287 377.589 315.051 400.583 364 445 c 9
 393.64 453.19 413.285 481.228 440 466 c 24
 489.151 437.983 478.946 382.567 478 326 c 24
 476.936 262.354 452.488 229.55 430 170 c 24
 414.583 129.176 404.111 106.728 384 68 c 24
EndSplineSet
EndChar
StartChar: OE
Encoding: 338 338 131
Width: 998
VWidth: 1080
Flags: HW
Fore
615.175 655.857 m 1
 604.503 657.37 593.001 661.035 580 668 c 0
 571.285 672.667 564.138 684.62 551 690 c 24
 539.719 694.619 540.85 696.875 520 694 c 1
 470.406 688.281 453.266 654.812 436 646 c 9
 400 646 l 17
 374.938 670.969 392.766 710.266 388 742 c 9
 484 756 l 17
 536.64 764.344 522.975 749.115 578 734 c 8
 585.521 731.934 590.203 733.766 598 734 c 24
 676.105 736.341 720.812 736.844 798 746 c 9
 833.1 742.1 852.706 737.248 888 736 c 24
 927.007 734.621 948.977 739.22 988 740 c 24
 1018.41 740.608 1040.12 755.993 1066 740 c 24
 1101.61 717.993 1095.28 681.44 1114 644 c 17
 1117.91 613.141 1124.33 589.375 1108 554 c 9
 1084.6 554 1059.61 533.684 1048 554 c 16
 1024 596 1021.87 630.405 982 656 c 24
 950.159 676.438 923.812 671.334 886 670 c 24
 860.466 669.099 822 686 822 656 c 8
 822 618.261 803.7 599.88 792 564 c 17
 790.625 509.531 776.906 464.172 780 422 c 9
 814.32 419.66 838.373 398.52 868 416 c 24
 901.36 435.683 878.222 483.853 910 506 c 24
 933.117 522.11 953.92 509.66 982 512 c 17
 990.953 451.125 956.578 405.578 952 344 c 1
 935.781 305.391 942.312 273.484 922 236 c 9
 856 238 l 17
 832.672 297.531 857.875 318.141 856 362 c 1
 831.338 365.384 796.927 367.44 766.382 365.078 c 1
 764.742 355.006 762.935 344.664 761 334 c 0
 747.545 259.871 726.172 213.838 686.056 158.881 c 1
 685.087 146.374 683.85 134.03 682 122 c 9
 705.4 102.5 713.359 82.3693 742 72 c 24
 775.737 59.7852 798.12 72 834 72 c 17
 880.547 62.6719 896.953 78.375 944 126 c 9
 966.62 123.66 988.068 137.973 1002 120 c 24
 1030.99 82.5977 991.02 46.7998 984 0 c 17
 929.891 -4.34375 822.578 10.0469 714 0 c 1
 607.188 -11.1562 418 -10 418 -10 c 1
 418.477 -8.3327 418.863 -6.70007 419.183 -5.09903 c 1
 373.535 -11.9629 338.454 -12.9614 288 0 c 8
 236.269 13.29 214.8 40.2598 168 66 c 17
 103.953 125.141 97.9219 171.078 86 276 c 1
 81.8281 347.531 79.9539 391.585 98 462 c 24
 114.46 526.225 125.994 566.41 170 616 c 24
 222.437 675.09 269.665 691.24 342 723 c 24
 348.671 725.929 352.98 726.05 360 728 c 17
 378.906 645.797 377.328 670.172 366 638 c 9
 326.22 593.54 295.902 574.412 264 524 c 24
 238.203 483.236 234.72 454.46 216 410 c 17
 198.812 309.297 186 240.734 228 148 c 9
 268.56 110.56 280.591 72.1001 332 52 c 24
 357.426 42.0586 375.903 43.9834 402 52 c 16
 471.532 73.3592 511.802 100.771 557.664 151.862 c 1
 564.985 195.147 573.593 247.437 598 302 c 9
 664 484 l 17
 669.734 499.261 l 1
 668.184 520.608 664.45 543.045 658 568 c 0
 648.419 605.053 637.936 632.002 615.175 655.857 c 1
EndSplineSet
EndChar
